<svg width="97" height="24" viewBox="0 0 97 24" fill="none" xmlns="http://www.w3.org/2000/svg">
<path d="M88.2347 8.952H86.9688V15.042H88.2347C89.9088 15.042 90.6663 14.0415 90.6663 12.012C90.6663 9.981 89.9012 8.952 88.2347 8.952Z" fill="white"/>
<path d="M73 6C73 5.20435 73.3161 4.44129 73.8787 3.87868C74.4413 3.31607 75.2044 3 76 3H94C94.7956 3 95.5587 3.31607 96.1213 3.87868C96.6839 4.44129 97 5.20435 97 6V18C97 18.7956 96.6839 19.5587 96.1213 20.1213C95.5587 20.6839 94.7956 21 94 21H76C75.2044 21 74.4413 20.6839 73.8787 20.1213C73.3161 19.5587 73 18.7956 73 18V6ZM80.776 12.552C81.745 12.552 82.3585 13.119 82.366 13.902C82.378 14.7075 81.7255 15.2805 80.737 15.2805C79.84 15.2745 79.1815 14.793 79.135 14.1465H77.5C77.545 15.5175 78.6865 16.6785 80.7295 16.6785C82.5895 16.6785 84.157 15.6885 84.1375 13.9815C84.118 12.552 83.017 11.9115 82.1995 11.8335V11.7405C82.8595 11.6355 83.887 10.95 83.8615 9.678C83.842 8.319 82.6615 7.323 80.782 7.3305C78.817 7.338 77.7175 8.4315 77.671 9.8355H79.3255C79.3585 9.249 79.9 8.709 80.7295 8.709C81.5275 8.709 82.1215 9.204 82.1215 9.9285C82.1275 10.647 81.547 11.181 80.7295 11.181H79.7815V12.552H80.776ZM85.189 16.5H88.4725C91.1875 16.5 92.5 14.8395 92.5 11.9775C92.5 9.1365 91.2085 7.5015 88.4725 7.5015H85.189V16.5Z" fill="white"/>
<path d="M1.078 7.032V17H2.828V13.164H5.642C7.658 13.164 8.876 11.96 8.876 10.07C8.876 7.984 7.462 7.032 5.404 7.032H1.078ZM2.828 8.488H5.11C6.216 8.488 7.168 8.824 7.168 10.112C7.168 11.288 6.398 11.75 5.264 11.75H2.828V8.488ZM10.3739 7.032V17H12.1099V12.884H14.4339C16.1279 12.884 16.5199 13.444 16.6179 15.012C16.6739 15.936 16.6879 16.622 16.9399 17H18.8159C18.4099 16.552 18.3819 15.712 18.2839 14.522C18.1999 13.5 18.0739 12.534 16.7999 12.254C17.8499 11.89 18.4519 11.008 18.4519 9.804C18.4519 7.746 16.8839 7.032 15.0919 7.032H10.3739ZM12.1099 8.46H14.6439C15.6939 8.46 16.7159 8.67 16.7159 9.986C16.7159 11.414 15.5679 11.582 14.4199 11.582H12.1099V8.46ZM24.5433 6.794C21.4913 6.794 19.7273 9.09 19.7273 12.016C19.7273 15.124 21.6593 17.238 24.5153 17.238C27.3573 17.238 29.3033 15.124 29.3033 12.016C29.3033 8.922 27.3573 6.794 24.5433 6.794ZM24.5153 8.264C26.3633 8.264 27.5393 9.72 27.5393 12.002C27.5393 14.284 26.3633 15.768 24.5433 15.768C22.6673 15.768 21.4913 14.312 21.4913 11.988C21.4913 9.734 22.6813 8.264 24.5153 8.264ZM30.882 7.032V17H34.774C36.342 17 37.182 16.72 38.008 15.894C39.086 14.816 39.408 13.332 39.408 11.848C39.408 10.252 38.89 8.908 37.938 8.054C36.986 7.2 35.908 7.032 34.676 7.032H30.882ZM32.618 8.516H34.564C36.748 8.516 37.658 9.888 37.658 11.932C37.658 13.976 37.014 15.53 34.676 15.53H32.618V8.516ZM49.0775 7.032H47.3275V12.912C47.3275 14.606 47.0335 15.754 45.0455 15.754C43.4775 15.754 42.6515 14.998 42.6515 13.458V7.032H40.9015V13.108C40.9015 15.866 42.1895 17.196 45.0175 17.196C47.7055 17.196 49.0775 15.88 49.0775 13.136V7.032ZM59.6291 13.206H57.8791C57.6971 14.676 56.9551 15.754 55.3311 15.754C53.2031 15.754 52.3911 13.864 52.3911 12.016C52.3911 10.182 53.2451 8.292 55.3451 8.292C56.6331 8.292 57.5711 9.006 57.8091 10.21H59.5451C59.2091 7.9 57.3611 6.808 55.3731 6.808C52.3491 6.808 50.6271 9.188 50.6271 12.016C50.6271 15.166 52.4751 17.238 55.2891 17.238C57.7811 17.238 59.4471 15.628 59.6291 13.206ZM68.3466 7.032H60.2406V8.544H63.4186V17H65.1686V8.544H68.3466V7.032Z" fill="white"/>
</svg>
