<svg width="100" height="100" fill="none" xmlns="http://www.w3.org/2000/svg"><path fill-rule="evenodd" clip-rule="evenodd" d="M39.292 71.675a.883.883 0 0 1-.529-.173L35.38 69.04l-3.387 2.458a.899.899 0 0 1-1.383-1.004l1.294-3.979-3.386-2.458a.9.9 0 0 1 .529-1.627h4.182l1.294-3.978a.899.899 0 0 1 1.699 0l1.293 3.978h4.182a.9.9 0 0 1 .53 1.627l-3.386 2.458 1.293 3.981a.897.897 0 0 1-.327 1.002.886.886 0 0 1-.515.178ZM55.7 67.097a.889.889 0 0 1-.53-.172l-4.854-3.517-4.855 3.516a.897.897 0 0 1-1.383-1.004l1.852-5.692-4.854-3.52a.898.898 0 0 1 .526-1.626h5.988l1.85-5.694a.9.9 0 0 1 1.71 0L53 55.082h5.988a.897.897 0 0 1 .527 1.627l-4.854 3.519 1.849 5.692a.895.895 0 0 1-.325 1.004.863.863 0 0 1-.486.173Zm5.988 4.578a.899.899 0 0 1-.855-1.177l1.294-3.979-3.386-2.458a.898.898 0 0 1 .527-1.627h4.184l1.291-3.978a.903.903 0 0 1 1.386-.45.897.897 0 0 1 .326.45l1.29 3.978h4.185a.897.897 0 0 1 .527 1.627l-3.383 2.458 1.29 3.981a.898.898 0 0 1-1.383 1.002l-3.376-2.463-3.398 2.463a.886.886 0 0 1-.52.173Z" fill="#F83718"/><path fill-rule="evenodd" clip-rule="evenodd" d="M77.811 91H22.267a8.638 8.638 0 0 1-8.628-8.629V33.116a8.635 8.635 0 0 1 8.628-8.626h55.544a8.636 8.636 0 0 1 8.629 8.626V82.37a8.64 8.64 0 0 1-8.629 8.628V91ZM22.267 26.289a6.84 6.84 0 0 0-6.83 6.83V82.37a6.837 6.837 0 0 0 6.83 6.83h55.544a6.837 6.837 0 0 0 6.83-6.83V33.116a6.837 6.837 0 0 0-6.83-6.83l-55.544.003Z" fill="#F83718"/><path fill-rule="evenodd" clip-rule="evenodd" d="M85.54 38.87h-71a.902.902 0 0 1-.36-1.743.9.9 0 0 1 .36-.055h71a.9.9 0 0 1 0 1.799Zm-44.714-4.268a2.913 2.913 0 1 1 0-5.827 2.913 2.913 0 0 1 0 5.827Zm-8.087 0a2.913 2.913 0 1 1 0-5.826 2.913 2.913 0 0 1 0 5.826Zm-8.09 0a2.913 2.913 0 1 1 0-5.826 2.913 2.913 0 0 1 0 5.826ZM78.35 83.808H21.729a.897.897 0 0 1-.898-.898V45.163a.898.898 0 0 1 .898-.898H78.35a.898.898 0 0 1 .898.898V82.91a.898.898 0 0 1-.898.898Zm-55.72-1.796h54.822V46.061H22.629v35.951Z" fill="#F83718"/><path fill-rule="evenodd" clip-rule="evenodd" d="M78.35 77.517H21.73a.9.9 0 0 1 0-1.799h56.62a.9.9 0 0 1 0 1.799ZM81.046 19.1a4.494 4.494 0 1 1-.005-8.99 4.494 4.494 0 0 1 .005 8.99Zm0-7.19a2.697 2.697 0 1 0-.004 5.393 2.697 2.697 0 0 0 .004-5.393Zm-52.128 8.1a5.393 5.393 0 1 1 0-10.788 5.393 5.393 0 0 1 0 10.787Zm0-8.981a3.595 3.595 0 1 0 3.595 3.592 3.598 3.598 0 0 0-3.595-3.61v.018Z" fill="#F83718"/></svg>