<svg width="100" height="100" fill="none" xmlns="http://www.w3.org/2000/svg"><path fill-rule="evenodd" clip-rule="evenodd" d="m78.011 54.56-5.662-.019a.871.871 0 1 1 0-1.743l5.66.02a11.257 11.257 0 0 0 0-22.512c-.2 0-.41 0-.646.019a.87.87 0 0 1-.83-.485 13.687 13.687 0 0 0-19.66-5.454.869.869 0 0 1-1.07-.098.872.872 0 0 1-.214-.317 19.344 19.344 0 0 0-37.342 7.087c0 1.069.087 2.135.262 3.19a.874.874 0 0 1-.668.992 8.828 8.828 0 0 0 1.96 17.437l18.298.048a.872.872 0 0 1 0 1.743L19.8 54.422a10.574 10.574 0 0 1-3.124-20.675A21.085 21.085 0 0 1 37.59 9.973 21.087 21.087 0 0 1 56.819 22.4a15.44 15.44 0 0 1 21.022 6.17h.173a13 13 0 0 1 0 26l-.003-.01Z" fill="#F83718"/><path fill-rule="evenodd" clip-rule="evenodd" d="M25.269 31.02a.871.871 0 0 1-.871-.872 13.966 13.966 0 0 1 13.948-13.952.873.873 0 1 1 0 1.745A12.221 12.221 0 0 0 26.14 30.148a.87.87 0 0 1-.871.871ZM81.94 19.684a5.23 5.23 0 1 1 5.234-5.23 5.238 5.238 0 0 1-5.233 5.23Zm0-8.718a3.488 3.488 0 1 0 0 6.975 3.488 3.488 0 0 0 0-6.975ZM20.038 82.463a6.975 6.975 0 1 1 6.974-6.975 6.985 6.985 0 0 1-6.974 6.975Zm0-12.209a5.234 5.234 0 1 0 5.23 5.233 5.238 5.238 0 0 0-5.23-5.233Z" fill="#F83718"/><rect x="38.714" y="35.072" width="33.01" height="54.612" rx="4.976" fill="#fff" stroke="#F83718" stroke-width="1.699"/><path d="M38.593 78.64h33.01" stroke="#F83718" stroke-width="1.699"/><circle cx="55.34" cy="83.98" r="2.184" fill="#F83718" stroke="#F83718" stroke-width="1.456"/><path fill-rule="evenodd" clip-rule="evenodd" d="M48.646 62.957a.528.528 0 0 1-.316-.103l-2.021-1.472-2.023 1.469a.536.536 0 0 1-.826-.6l.772-2.377-2.022-1.469a.539.539 0 0 1 .316-.971h2.498l.773-2.377a.537.537 0 0 1 1.015 0l.773 2.377h2.498a.538.538 0 0 1 .316.971l-2.023 1.47.773 2.377a.537.537 0 0 1-.196.599.53.53 0 0 1-.307.106Zm9.802-2.735a.53.53 0 0 1-.316-.103l-2.9-2.1-2.9 2.1a.536.536 0 0 1-.827-.6l1.107-3.4-2.9-2.102a.536.536 0 0 1 .314-.972h3.577l1.105-3.402a.538.538 0 0 1 1.023 0l1.104 3.402h3.577a.537.537 0 0 1 .315.971l-2.9 2.103 1.105 3.4a.535.535 0 0 1-.484.703Zm3.577 2.735a.537.537 0 0 1-.51-.703l.772-2.377-2.023-1.468a.536.536 0 0 1 .315-.972h2.5l.771-2.376a.54.54 0 0 1 .828-.269c.091.067.16.16.194.269l.772 2.376h2.5a.537.537 0 0 1 .314.972l-2.021 1.468.771 2.378a.537.537 0 0 1-.826.6l-2.017-1.472-2.03 1.471a.53.53 0 0 1-.31.103Z" fill="#F83718"/></svg>