<svg width="98" height="98" fill="none" xmlns="http://www.w3.org/2000/svg"><path d="M52.667 50.628a4.355 4.355 0 1 0-6.16-6.16 4.355 4.355 0 0 0 6.16 6.16Z" fill="#F83718"/><path fill-rule="evenodd" clip-rule="evenodd" d="M57.104 84.822H42.068a.952.952 0 0 1-.94-.94v-8.696a28.734 28.734 0 0 1-5.097-2.124l-6.16 6.159a.936.936 0 0 1-1.328 0L17.911 68.588a.951.951 0 0 1 0-1.327l6.149-6.154a28.639 28.639 0 0 1-2.127-5.104h-8.69a.951.951 0 0 1-.95-.952V40.013a.951.951 0 0 1 .95-.94h8.7a28.807 28.807 0 0 1 2.124-5.097l-6.161-6.16a.936.936 0 0 1-.273-.664.952.952 0 0 1 .273-.664l10.633-10.632a.952.952 0 0 1 1.327 0l6.16 6.16a28.835 28.835 0 0 1 5.098-2.126v-8.696a.952.952 0 0 1 .94-.952H57.1a.951.951 0 0 1 .94.952v8.687a28.714 28.714 0 0 1 5.104 2.128l6.154-6.153a.935.935 0 0 1 1.327 0l10.633 10.63a.938.938 0 0 1 0 1.33l-6.16 6.158a28.915 28.915 0 0 1 2.126 5.097h8.696a.937.937 0 0 1 .937.952v15.042a.935.935 0 0 1-.937.94h-8.687a28.83 28.83 0 0 1-2.126 5.107l6.15 6.151a.938.938 0 0 1 0 1.327l-10.63 10.633a.952.952 0 0 1-1.327 0l-6.151-6.154a28.59 28.59 0 0 1-5.107 2.13v8.686a.952.952 0 0 1-.952.951l.015-.014Zm-14.096-1.879H56.17v-8.449a.95.95 0 0 1 .685-.904 26.854 26.854 0 0 0 6-2.502.936.936 0 0 1 1.127.155l5.987 5.987 9.305-9.306-5.987-5.987a.937.937 0 0 1-.152-1.127 26.844 26.844 0 0 0 2.5-6 .952.952 0 0 1 .906-.684h8.449V40.967h-8.46a.952.952 0 0 1-.904-.685 26.857 26.857 0 0 0-2.5-5.994.951.951 0 0 1 .155-1.125l5.994-5.994-9.308-9.306-5.99 5.988a.952.952 0 0 1-1.127.154 26.896 26.896 0 0 0-5.998-2.502.937.937 0 0 1-.685-.904v-8.451h-13.16v8.458a.95.95 0 0 1-.684.906 26.952 26.952 0 0 0-5.992 2.5.951.951 0 0 1-1.13-.152l-5.994-5.997-9.305 9.306 5.996 5.994a.952.952 0 0 1 .155 1.127 26.91 26.91 0 0 0-2.502 5.992.937.937 0 0 1-.904.685h-8.459v13.159h8.444a.937.937 0 0 1 .904.685 26.877 26.877 0 0 0 2.503 5.996.952.952 0 0 1-.153 1.13L19.9 67.924l9.303 9.306 5.994-5.995a.952.952 0 0 1 1.128-.154 26.964 26.964 0 0 0 5.994 2.5.952.952 0 0 1 .685.904v8.458h.005Zm41.331-64.509a4.698 4.698 0 1 1-.005-9.395 4.698 4.698 0 0 1 .005 9.395Zm0-1.722a2.976 2.976 0 1 0-2.976-2.973 2.978 2.978 0 0 0 2.976 2.968v.005ZM16.243 89.187a7.202 7.202 0 1 1 7.2-7.203 7.21 7.21 0 0 1-7.2 7.203Zm0-1.722a5.47 5.47 0 1 0-5.47-5.471 5.485 5.485 0 0 0 5.47 5.47Z" fill="#F83718"/><path fill-rule="evenodd" clip-rule="evenodd" d="M36.666 46.538h8.69c.107-.453.287-.885.532-1.28l-6.149-6.13a12.906 12.906 0 0 0-3.073 7.41Zm4.496-8.837 6.142 6.144a4.326 4.326 0 0 1 1.277-.532v-8.704a12.897 12.897 0 0 0-7.42 3.092Zm9.431-3.092v8.69c.451.107.883.286 1.278.53l6.141-6.142a12.904 12.904 0 0 0-7.419-3.078ZM62.515 48.55h-8.69a4.327 4.327 0 0 1-.532 1.283l6.142 6.141a12.914 12.914 0 0 0 3.08-7.423Zm-8.691-2.012h8.691a12.91 12.91 0 0 0-3.092-7.421l-6.14 6.142c.248.394.43.826.54 1.28Zm4.188 10.856-6.141-6.134a4.296 4.296 0 0 1-1.278.532v8.69a12.9 12.9 0 0 0 7.42-3.088Zm-9.432 3.08v-8.689a4.375 4.375 0 0 1-1.279-.533l-6.142 6.142a12.906 12.906 0 0 0 7.422 3.08Zm-8.843-4.502 6.144-6.142a4.31 4.31 0 0 1-.533-1.28h-8.682a12.904 12.904 0 0 0 3.07 7.422Zm-1.422 1.425a14.914 14.914 0 0 1-3.673-8.846h-5.078a19.981 19.981 0 0 0 5.159 12.435l3.592-3.59Zm-8.751-10.859h5.078a14.912 14.912 0 0 1 3.673-8.844l-3.592-3.59a19.98 19.98 0 0 0-5.16 12.434Zm6.581-13.856 3.592 3.59a14.923 14.923 0 0 1 8.844-3.67v-5.08a19.956 19.956 0 0 0-12.436 5.16Zm14.448-.081a14.924 14.924 0 0 1 8.844 3.67l3.59-3.589a19.95 19.95 0 0 0-12.434-5.16v5.08Zm10.267 5.1a14.928 14.928 0 0 1 3.672 8.846h5.079a19.98 19.98 0 0 0-5.162-12.435l-3.59 3.59Zm8.75 10.849h-5.078a14.926 14.926 0 0 1-3.672 8.85l3.589 3.588a19.98 19.98 0 0 0 5.162-12.438ZM59.437 58.819a14.912 14.912 0 0 1-8.844 3.672v5.079a19.966 19.966 0 0 0 12.433-5.162l-3.589-3.59ZM48.58 67.57v-5.08a14.919 14.919 0 0 1-8.845-3.672l-3.59 3.589a19.98 19.98 0 0 0 12.436 5.162Z" fill="#F83718"/></svg>