<svg width="576" height="443" fill="none" xmlns="http://www.w3.org/2000/svg"><ellipse cx="410.467" cy="72.462" rx="2.467" ry="2.462" fill="#fff"/><ellipse cx="425.267" cy="72.462" rx="2.467" ry="2.462" fill="#fff"/><ellipse cx="454.863" cy="72.462" rx="2.467" ry="2.462" fill="#fff"/><ellipse cx="469.664" cy="72.462" rx="2.467" ry="2.462" fill="#fff"/><ellipse cx="484.463" cy="72.462" rx="2.467" ry="2.462" fill="#fff"/><ellipse cx="499.265" cy="72.462" rx="2.467" ry="2.462" fill="#fff"/><ellipse cx="514.062" cy="72.462" rx="2.467" ry="2.462" fill="#fff"/><ellipse cx="410.465" cy="87.231" rx="2.467" ry="2.462" fill="#fff"/><ellipse cx="425.269" cy="87.231" rx="2.467" ry="2.462" fill="#fff"/><ellipse cx="440.064" cy="87.231" rx="2.467" ry="2.462" fill="#fff"/><ellipse cx="469.664" cy="87.231" rx="2.467" ry="2.462" fill="#fff"/><ellipse cx="484.463" cy="87.231" rx="2.467" ry="2.462" fill="#fff"/><ellipse cx="499.265" cy="87.231" rx="2.467" ry="2.462" fill="#fff"/><ellipse cx="514.064" cy="87.231" rx="2.467" ry="2.462" fill="#fff"/><ellipse cx="410.465" cy="102.003" rx="2.467" ry="2.462" fill="#fff"/><ellipse cx="425.269" cy="102.003" rx="2.467" ry="2.462" fill="#fff"/><ellipse cx="440.064" cy="102.003" rx="2.467" ry="2.462" fill="#fff"/><ellipse cx="454.863" cy="102.003" rx="2.467" ry="2.462" fill="#fff"/><ellipse cx="484.463" cy="102.003" rx="2.467" ry="2.462" fill="#fff"/><ellipse cx="499.265" cy="102.003" rx="2.467" ry="2.462" fill="#fff"/><ellipse cx="514.064" cy="102.003" rx="2.467" ry="2.462" fill="#fff"/><ellipse cx="410.465" cy="116.773" rx="2.467" ry="2.462" fill="#fff"/><ellipse cx="425.269" cy="116.773" rx="2.467" ry="2.462" fill="#fff"/><ellipse cx="440.064" cy="116.773" rx="2.467" ry="2.462" fill="#fff"/><ellipse cx="454.863" cy="116.773" rx="2.467" ry="2.462" fill="#fff"/><ellipse cx="469.664" cy="116.773" rx="2.467" ry="2.462" fill="#fff"/><ellipse cx="499.265" cy="116.773" rx="2.467" ry="2.462" fill="#fff"/><ellipse cx="514.064" cy="116.773" rx="2.467" ry="2.462" fill="#fff"/><ellipse cx="410.465" cy="131.542" rx="2.467" ry="2.462" fill="#fff"/><ellipse cx="425.269" cy="131.542" rx="2.467" ry="2.462" fill="#fff"/><ellipse cx="440.064" cy="131.542" rx="2.467" ry="2.462" fill="#fff"/><ellipse cx="454.863" cy="131.542" rx="2.467" ry="2.462" fill="#fff"/><ellipse cx="469.664" cy="131.542" rx="2.467" ry="2.462" fill="#fff"/><ellipse cx="484.463" cy="131.542" rx="2.467" ry="2.462" fill="#fff"/><ellipse cx="499.265" cy="131.542" rx="2.467" ry="2.462" fill="#fff"/><ellipse cx="514.064" cy="131.542" rx="2.467" ry="2.462" fill="#fff"/><ellipse cx="410.465" cy="146.312" rx="2.467" ry="2.462" fill="#fff"/><ellipse cx="425.269" cy="146.312" rx="2.467" ry="2.462" fill="#fff"/><ellipse cx="440.064" cy="146.312" rx="2.467" ry="2.462" fill="#fff"/><ellipse cx="454.863" cy="146.312" rx="2.467" ry="2.462" fill="#fff"/><ellipse cx="469.664" cy="146.312" rx="2.467" ry="2.462" fill="#fff"/><ellipse cx="484.463" cy="146.312" rx="2.467" ry="2.462" fill="#fff"/><ellipse cx="514.064" cy="146.312" rx="2.467" ry="2.462" fill="#fff"/><ellipse cx="410.465" cy="161.083" rx="2.467" ry="2.462" fill="#fff"/><ellipse cx="425.269" cy="161.083" rx="2.467" ry="2.462" fill="#fff"/><ellipse cx="440.064" cy="161.083" rx="2.467" ry="2.462" fill="#fff"/><ellipse cx="454.863" cy="161.083" rx="2.467" ry="2.462" fill="#fff"/><ellipse cx="469.664" cy="161.083" rx="2.467" ry="2.462" fill="#fff"/><ellipse cx="484.463" cy="161.083" rx="2.467" ry="2.462" fill="#fff"/><ellipse cx="499.265" cy="161.083" rx="2.467" ry="2.462" fill="#fff"/><ellipse cx="410.465" cy="175.852" rx="2.467" ry="2.462" fill="#fff"/><ellipse cx="425.269" cy="175.852" rx="2.467" ry="2.462" fill="#fff"/><ellipse cx="440.064" cy="175.852" rx="2.467" ry="2.462" fill="#fff"/><ellipse cx="454.863" cy="175.852" rx="2.467" ry="2.462" fill="#fff"/><ellipse cx="469.664" cy="175.852" rx="2.467" ry="2.462" fill="#fff"/><ellipse cx="484.463" cy="175.852" rx="2.467" ry="2.462" fill="#fff"/><ellipse cx="499.265" cy="175.852" rx="2.467" ry="2.462" fill="#fff"/><ellipse cx="514.064" cy="175.852" rx="2.467" ry="2.462" fill="#fff"/><ellipse cx="410.465" cy="190.623" rx="2.467" ry="2.462" fill="#fff"/><ellipse cx="425.269" cy="190.623" rx="2.467" ry="2.462" fill="#fff"/><ellipse cx="440.064" cy="190.623" rx="2.467" ry="2.462" fill="#fff"/><ellipse cx="454.863" cy="190.623" rx="2.467" ry="2.462" fill="#fff"/><ellipse cx="469.664" cy="190.623" rx="2.467" ry="2.462" fill="#fff"/><ellipse cx="484.463" cy="190.623" rx="2.467" ry="2.462" fill="#fff"/><ellipse cx="499.265" cy="190.623" rx="2.467" ry="2.462" fill="#fff"/><ellipse cx="514.064" cy="190.623" rx="2.467" ry="2.462" fill="#fff"/><ellipse cx="410.465" cy="205.393" rx="2.467" ry="2.462" fill="#fff"/><ellipse cx="425.269" cy="205.393" rx="2.467" ry="2.462" fill="#fff"/><ellipse cx="440.064" cy="205.393" rx="2.467" ry="2.462" fill="#fff"/><ellipse cx="454.863" cy="205.393" rx="2.467" ry="2.462" fill="#fff"/><ellipse cx="469.664" cy="205.393" rx="2.467" ry="2.462" fill="#fff"/><ellipse cx="484.463" cy="205.393" rx="2.467" ry="2.462" fill="#fff"/><ellipse cx="499.265" cy="205.393" rx="2.467" ry="2.462" fill="#fff"/><ellipse cx="514.064" cy="205.393" rx="2.467" ry="2.462" fill="#fff"/><ellipse cx="410.465" cy="220.163" rx="2.467" ry="2.462" fill="#fff"/><ellipse cx="425.269" cy="220.163" rx="2.467" ry="2.462" fill="#fff"/><ellipse cx="440.064" cy="220.163" rx="2.467" ry="2.462" fill="#fff"/><ellipse cx="454.863" cy="220.163" rx="2.467" ry="2.462" fill="#fff"/><ellipse cx="469.664" cy="220.163" rx="2.467" ry="2.462" fill="#fff"/><ellipse cx="484.463" cy="220.163" rx="2.467" ry="2.462" fill="#fff"/><ellipse cx="499.265" cy="220.163" rx="2.467" ry="2.462" fill="#fff"/><ellipse cx="514.064" cy="220.163" rx="2.467" ry="2.462" fill="#fff"/><ellipse cx="410.465" cy="234.934" rx="2.467" ry="2.462" fill="#fff"/><ellipse cx="425.269" cy="234.934" rx="2.467" ry="2.462" fill="#fff"/><ellipse cx="440.064" cy="234.934" rx="2.467" ry="2.462" fill="#fff"/><ellipse cx="454.863" cy="234.934" rx="2.467" ry="2.462" fill="#fff"/><ellipse cx="469.664" cy="234.934" rx="2.467" ry="2.462" fill="#fff"/><ellipse cx="484.463" cy="234.934" rx="2.467" ry="2.462" fill="#fff"/><ellipse cx="499.265" cy="234.934" rx="2.467" ry="2.462" fill="#fff"/><ellipse cx="514.064" cy="234.934" rx="2.467" ry="2.462" fill="#fff"/><ellipse cx="528.271" cy="72.462" rx="2.467" ry="2.462" fill="#fff"/><ellipse cx="543.07" cy="72.462" rx="2.467" ry="2.462" fill="#fff"/><ellipse cx="557.867" cy="72.462" rx="2.467" ry="2.462" fill="#fff"/><ellipse cx="572.67" cy="72.462" rx="2.467" ry="2.462" fill="#fff"/><ellipse cx="528.271" cy="87.231" rx="2.467" ry="2.462" fill="#fff"/><ellipse cx="543.074" cy="87.231" rx="2.467" ry="2.462" fill="#fff"/><ellipse cx="557.867" cy="87.231" rx="2.467" ry="2.462" fill="#fff"/><ellipse cx="572.67" cy="87.231" rx="2.467" ry="2.462" fill="#fff"/><ellipse cx="528.271" cy="102.003" rx="2.467" ry="2.462" fill="#fff"/><ellipse cx="543.074" cy="102.003" rx="2.467" ry="2.462" fill="#fff"/><ellipse cx="557.867" cy="102.003" rx="2.467" ry="2.462" fill="#fff"/><ellipse cx="572.67" cy="102.003" rx="2.467" ry="2.462" fill="#fff"/><ellipse cx="528.271" cy="116.773" rx="2.467" ry="2.462" fill="#fff"/><ellipse cx="543.074" cy="116.773" rx="2.467" ry="2.462" fill="#fff"/><ellipse cx="557.867" cy="116.773" rx="2.467" ry="2.462" fill="#fff"/><ellipse cx="572.67" cy="116.773" rx="2.467" ry="2.462" fill="#fff"/><ellipse cx="528.271" cy="131.542" rx="2.467" ry="2.462" fill="#fff"/><ellipse cx="543.074" cy="131.542" rx="2.467" ry="2.462" fill="#fff"/><ellipse cx="557.867" cy="131.542" rx="2.467" ry="2.462" fill="#fff"/><ellipse cx="572.67" cy="131.542" rx="2.467" ry="2.462" fill="#fff"/><ellipse cx="528.271" cy="146.312" rx="2.467" ry="2.462" fill="#fff"/><ellipse cx="543.074" cy="146.312" rx="2.467" ry="2.462" fill="#fff"/><ellipse cx="557.867" cy="146.312" rx="2.467" ry="2.462" fill="#fff"/><ellipse cx="572.67" cy="146.312" rx="2.467" ry="2.462" fill="#fff"/><ellipse cx="528.271" cy="161.083" rx="2.467" ry="2.462" fill="#fff"/><ellipse cx="543.074" cy="161.083" rx="2.467" ry="2.462" fill="#fff"/><ellipse cx="557.867" cy="161.083" rx="2.467" ry="2.462" fill="#fff"/><ellipse cx="572.67" cy="161.083" rx="2.467" ry="2.462" fill="#fff"/><ellipse cx="543.074" cy="175.852" rx="2.467" ry="2.462" fill="#fff"/><ellipse cx="557.867" cy="175.852" rx="2.467" ry="2.462" fill="#fff"/><ellipse cx="572.67" cy="175.852" rx="2.467" ry="2.462" fill="#fff"/><ellipse cx="543.074" cy="190.623" rx="2.467" ry="2.462" fill="#fff"/><ellipse cx="557.867" cy="190.623" rx="2.467" ry="2.462" fill="#fff"/><ellipse cx="572.67" cy="190.623" rx="2.467" ry="2.462" fill="#fff"/><ellipse cx="543.074" cy="205.393" rx="2.467" ry="2.462" fill="#fff"/><ellipse cx="557.867" cy="205.393" rx="2.467" ry="2.462" fill="#fff"/><ellipse cx="572.67" cy="205.393" rx="2.467" ry="2.462" fill="#fff"/><ellipse cx="543.074" cy="220.163" rx="2.467" ry="2.462" fill="#fff"/><ellipse cx="557.867" cy="220.163" rx="2.467" ry="2.462" fill="#fff"/><ellipse cx="572.67" cy="220.163" rx="2.467" ry="2.462" fill="#fff"/><ellipse cx="543.074" cy="234.934" rx="2.467" ry="2.462" fill="#fff"/><ellipse cx="557.867" cy="234.934" rx="2.467" ry="2.462" fill="#fff"/><ellipse cx="572.67" cy="234.934" rx="2.467" ry="2.462" fill="#fff"/><ellipse cx="30.267" cy="277.462" rx="2.467" ry="2.462" fill="#fff"/><ellipse cx="45.064" cy="277.462" rx="2.467" ry="2.462" fill="#fff"/><ellipse cx="59.863" cy="277.462" rx="2.467" ry="2.462" fill="#fff"/><ellipse cx="74.664" cy="277.462" rx="2.467" ry="2.462" fill="#fff"/><ellipse cx="89.463" cy="277.462" rx="2.467" ry="2.462" fill="#fff"/><ellipse cx="104.265" cy="277.462" rx="2.467" ry="2.462" fill="#fff"/><ellipse cx="119.062" cy="277.462" rx="2.467" ry="2.462" fill="#fff"/><ellipse cx="30.269" cy="292.231" rx="2.467" ry="2.462" fill="#fff"/><ellipse cx="45.064" cy="292.231" rx="2.467" ry="2.462" fill="#fff"/><ellipse cx="59.863" cy="292.231" rx="2.467" ry="2.462" fill="#fff"/><ellipse cx="74.664" cy="292.231" rx="2.467" ry="2.462" fill="#fff"/><ellipse cx="89.463" cy="292.231" rx="2.467" ry="2.462" fill="#fff"/><ellipse cx="104.265" cy="292.231" rx="2.467" ry="2.462" fill="#fff"/><ellipse cx="119.064" cy="292.231" rx="2.467" ry="2.462" fill="#fff"/><ellipse cx="30.269" cy="307.003" rx="2.467" ry="2.462" fill="#fff"/><ellipse cx="45.064" cy="307.003" rx="2.467" ry="2.462" fill="#fff"/><ellipse cx="59.863" cy="307.003" rx="2.467" ry="2.462" fill="#fff"/><ellipse cx="74.664" cy="307.003" rx="2.467" ry="2.462" fill="#fff"/><ellipse cx="89.463" cy="307.003" rx="2.467" ry="2.462" fill="#fff"/><ellipse cx="104.265" cy="307.003" rx="2.467" ry="2.462" fill="#fff"/><ellipse cx="119.064" cy="307.003" rx="2.467" ry="2.462" fill="#fff"/><ellipse cx="45.064" cy="321.773" rx="2.467" ry="2.462" fill="#fff"/><ellipse cx="59.863" cy="321.773" rx="2.467" ry="2.462" fill="#fff"/><ellipse cx="74.664" cy="321.773" rx="2.467" ry="2.462" fill="#fff"/><ellipse cx="89.463" cy="321.773" rx="2.467" ry="2.462" fill="#fff"/><ellipse cx="104.265" cy="321.773" rx="2.467" ry="2.462" fill="#fff"/><ellipse cx="119.064" cy="321.773" rx="2.467" ry="2.462" fill="#fff"/><ellipse cx="45.064" cy="336.542" rx="2.467" ry="2.462" fill="#fff"/><ellipse cx="59.863" cy="336.542" rx="2.467" ry="2.462" fill="#fff"/><ellipse cx="74.664" cy="336.542" rx="2.467" ry="2.462" fill="#fff"/><ellipse cx="89.463" cy="336.542" rx="2.467" ry="2.462" fill="#fff"/><ellipse cx="104.265" cy="336.542" rx="2.467" ry="2.462" fill="#fff"/><ellipse cx="119.064" cy="336.542" rx="2.467" ry="2.462" fill="#fff"/><ellipse cx="30.269" cy="351.312" rx="2.467" ry="2.462" fill="#fff"/><ellipse cx="45.064" cy="351.312" rx="2.467" ry="2.462" fill="#fff"/><ellipse cx="59.863" cy="351.312" rx="2.467" ry="2.462" fill="#fff"/><ellipse cx="74.664" cy="351.312" rx="2.467" ry="2.462" fill="#fff"/><ellipse cx="89.463" cy="351.312" rx="2.467" ry="2.462" fill="#fff"/><ellipse cx="104.265" cy="351.312" rx="2.467" ry="2.462" fill="#fff"/><ellipse cx="119.064" cy="351.312" rx="2.467" ry="2.462" fill="#fff"/><ellipse cx="30.269" cy="366.083" rx="2.467" ry="2.462" fill="#fff"/><ellipse cx="59.863" cy="366.083" rx="2.467" ry="2.462" fill="#fff"/><ellipse cx="74.664" cy="366.083" rx="2.467" ry="2.462" fill="#fff"/><ellipse cx="89.463" cy="366.083" rx="2.467" ry="2.462" fill="#fff"/><ellipse cx="104.265" cy="366.083" rx="2.467" ry="2.462" fill="#fff"/><ellipse cx="119.064" cy="366.083" rx="2.467" ry="2.462" fill="#fff"/><ellipse cx="30.269" cy="380.852" rx="2.467" ry="2.462" fill="#fff"/><ellipse cx="45.064" cy="380.852" rx="2.467" ry="2.462" fill="#fff"/><ellipse cx="74.664" cy="380.852" rx="2.467" ry="2.462" fill="#fff"/><ellipse cx="89.463" cy="380.852" rx="2.467" ry="2.462" fill="#fff"/><ellipse cx="104.265" cy="380.852" rx="2.467" ry="2.462" fill="#fff"/><ellipse cx="119.064" cy="380.852" rx="2.467" ry="2.462" fill="#fff"/><ellipse cx="30.269" cy="395.623" rx="2.467" ry="2.462" fill="#fff"/><ellipse cx="45.064" cy="395.623" rx="2.467" ry="2.462" fill="#fff"/><ellipse cx="74.664" cy="395.623" rx="2.467" ry="2.462" fill="#fff"/><ellipse cx="89.463" cy="395.623" rx="2.467" ry="2.462" fill="#fff"/><ellipse cx="104.265" cy="395.623" rx="2.467" ry="2.462" fill="#fff"/><ellipse cx="119.064" cy="395.623" rx="2.467" ry="2.462" fill="#fff"/><ellipse cx="30.269" cy="410.393" rx="2.467" ry="2.462" fill="#fff"/><ellipse cx="45.064" cy="410.393" rx="2.467" ry="2.462" fill="#fff"/><ellipse cx="59.863" cy="410.393" rx="2.467" ry="2.462" fill="#fff"/><ellipse cx="74.664" cy="410.393" rx="2.467" ry="2.462" fill="#fff"/><ellipse cx="89.463" cy="410.393" rx="2.467" ry="2.462" fill="#fff"/><ellipse cx="104.265" cy="410.393" rx="2.467" ry="2.462" fill="#fff"/><ellipse cx="119.064" cy="410.393" rx="2.467" ry="2.462" fill="#fff"/><ellipse cx="30.269" cy="425.163" rx="2.467" ry="2.462" fill="#fff"/><ellipse cx="45.064" cy="425.163" rx="2.467" ry="2.462" fill="#fff"/><ellipse cx="59.863" cy="425.163" rx="2.467" ry="2.462" fill="#fff"/><ellipse cx="74.664" cy="425.163" rx="2.467" ry="2.462" fill="#fff"/><ellipse cx="89.463" cy="425.163" rx="2.467" ry="2.462" fill="#fff"/><ellipse cx="104.265" cy="425.163" rx="2.467" ry="2.462" fill="#fff"/><ellipse cx="119.064" cy="425.163" rx="2.467" ry="2.462" fill="#fff"/><ellipse cx="15.467" cy="277.462" rx="2.467" ry="2.462" fill="#fff"/><ellipse cx="15.467" cy="292.231" rx="2.467" ry="2.462" fill="#fff"/><ellipse cx="15.467" cy="307.003" rx="2.467" ry="2.462" fill="#fff"/><ellipse cx="15.467" cy="321.773" rx="2.467" ry="2.462" fill="#fff"/><ellipse cx="15.467" cy="336.542" rx="2.467" ry="2.462" fill="#fff"/><ellipse cx="15.467" cy="351.312" rx="2.467" ry="2.462" fill="#fff"/><ellipse cx="15.467" cy="366.083" rx="2.467" ry="2.462" fill="#fff"/><ellipse cx="15.467" cy="380.852" rx="2.467" ry="2.462" fill="#fff"/><ellipse cx="15.467" cy="395.623" rx="2.467" ry="2.462" fill="#fff"/><ellipse cx="15.467" cy="410.393" rx="2.467" ry="2.462" fill="#fff"/><ellipse cx="15.467" cy="425.163" rx="2.467" ry="2.462" fill="#fff"/><ellipse cx="15.467" cy="439.934" rx="2.467" ry="2.462" fill="#fff"/><ellipse cx="2.513" cy="277.462" rx="2.467" ry="2.462" fill="#fff"/><ellipse cx="2.513" cy="292.231" rx="2.467" ry="2.462" fill="#fff"/><ellipse cx="2.513" cy="307.003" rx="2.467" ry="2.462" fill="#fff"/><ellipse cx="2.513" cy="321.773" rx="2.467" ry="2.462" fill="#fff"/><ellipse cx="2.513" cy="336.542" rx="2.467" ry="2.462" fill="#fff"/><ellipse cx="2.513" cy="351.312" rx="2.467" ry="2.462" fill="#fff"/><ellipse cx="2.513" cy="366.083" rx="2.467" ry="2.462" fill="#fff"/><ellipse cx="2.513" cy="380.852" rx="2.467" ry="2.462" fill="#fff"/><ellipse cx="2.513" cy="395.623" rx="2.467" ry="2.462" fill="#fff"/><ellipse cx="2.513" cy="410.393" rx="2.467" ry="2.462" fill="#fff"/><ellipse cx="2.513" cy="425.163" rx="2.467" ry="2.462" fill="#fff"/><ellipse cx="2.513" cy="439.934" rx="2.467" ry="2.462" fill="#fff"/><ellipse cx="30.269" cy="439.934" rx="2.467" ry="2.462" fill="#fff"/><ellipse cx="45.064" cy="439.934" rx="2.467" ry="2.462" fill="#fff"/><ellipse cx="59.863" cy="439.934" rx="2.467" ry="2.462" fill="#fff"/><ellipse cx="74.664" cy="439.934" rx="2.467" ry="2.462" fill="#fff"/><ellipse cx="89.463" cy="439.934" rx="2.467" ry="2.462" fill="#fff"/><ellipse cx="104.265" cy="439.934" rx="2.467" ry="2.462" fill="#fff"/><ellipse cx="119.064" cy="439.934" rx="2.467" ry="2.462" fill="#fff"/><ellipse cx="133.271" cy="277.462" rx="2.467" ry="2.462" fill="#fff"/><ellipse cx="148.07" cy="277.462" rx="2.467" ry="2.462" fill="#fff"/><ellipse cx="162.867" cy="277.462" rx="2.467" ry="2.462" fill="#fff"/><ellipse cx="177.67" cy="277.462" rx="2.467" ry="2.462" fill="#fff"/><ellipse cx="133.271" cy="292.231" rx="2.467" ry="2.462" fill="#fff"/><ellipse cx="148.074" cy="292.231" rx="2.467" ry="2.462" fill="#fff"/><ellipse cx="162.867" cy="292.231" rx="2.467" ry="2.462" fill="#fff"/><ellipse cx="177.67" cy="292.231" rx="2.467" ry="2.462" fill="#fff"/><ellipse cx="133.271" cy="307.003" rx="2.467" ry="2.462" fill="#fff"/><ellipse cx="148.074" cy="307.003" rx="2.467" ry="2.462" fill="#fff"/><ellipse cx="162.867" cy="307.003" rx="2.467" ry="2.462" fill="#fff"/><ellipse cx="177.67" cy="307.003" rx="2.467" ry="2.462" fill="#fff"/><ellipse cx="133.271" cy="321.773" rx="2.467" ry="2.462" fill="#fff"/><ellipse cx="148.074" cy="321.773" rx="2.467" ry="2.462" fill="#fff"/><ellipse cx="162.867" cy="321.773" rx="2.467" ry="2.462" fill="#fff"/><ellipse cx="177.67" cy="321.773" rx="2.467" ry="2.462" fill="#fff"/><ellipse cx="133.271" cy="336.542" rx="2.467" ry="2.462" fill="#fff"/><ellipse cx="148.074" cy="336.542" rx="2.467" ry="2.462" fill="#fff"/><ellipse cx="162.867" cy="336.542" rx="2.467" ry="2.462" fill="#fff"/><ellipse cx="177.67" cy="336.542" rx="2.467" ry="2.462" fill="#fff"/><ellipse cx="133.271" cy="351.312" rx="2.467" ry="2.462" fill="#fff"/><ellipse cx="148.074" cy="351.312" rx="2.467" ry="2.462" fill="#fff"/><ellipse cx="162.867" cy="351.312" rx="2.467" ry="2.462" fill="#fff"/><ellipse cx="177.67" cy="351.312" rx="2.467" ry="2.462" fill="#fff"/><ellipse cx="133.271" cy="366.083" rx="2.467" ry="2.462" fill="#fff"/><ellipse cx="148.074" cy="366.083" rx="2.467" ry="2.462" fill="#fff"/><ellipse cx="162.867" cy="366.083" rx="2.467" ry="2.462" fill="#fff"/><ellipse cx="177.67" cy="366.083" rx="2.467" ry="2.462" fill="#fff"/><ellipse cx="133.271" cy="380.852" rx="2.467" ry="2.462" fill="#fff"/><ellipse cx="148.074" cy="380.852" rx="2.467" ry="2.462" fill="#fff"/><ellipse cx="162.867" cy="380.852" rx="2.467" ry="2.462" fill="#fff"/><ellipse cx="177.67" cy="380.852" rx="2.467" ry="2.462" fill="#fff"/><ellipse cx="133.271" cy="395.623" rx="2.467" ry="2.462" fill="#fff"/><ellipse cx="148.074" cy="395.623" rx="2.467" ry="2.462" fill="#fff"/><ellipse cx="162.867" cy="395.623" rx="2.467" ry="2.462" fill="#fff"/><ellipse cx="177.67" cy="395.623" rx="2.467" ry="2.462" fill="#fff"/><ellipse cx="133.271" cy="410.393" rx="2.467" ry="2.462" fill="#fff"/><ellipse cx="148.074" cy="410.393" rx="2.467" ry="2.462" fill="#fff"/><ellipse cx="162.867" cy="410.393" rx="2.467" ry="2.462" fill="#fff"/><ellipse cx="177.67" cy="410.393" rx="2.467" ry="2.462" fill="#fff"/><ellipse cx="133.271" cy="425.163" rx="2.467" ry="2.462" fill="#fff"/><ellipse cx="148.074" cy="425.163" rx="2.467" ry="2.462" fill="#fff"/><ellipse cx="162.867" cy="425.163" rx="2.467" ry="2.462" fill="#fff"/><ellipse cx="133.271" cy="439.934" rx="2.467" ry="2.462" fill="#fff"/><ellipse cx="148.074" cy="439.934" rx="2.467" ry="2.462" fill="#fff"/><ellipse cx="162.867" cy="439.934" rx="2.467" ry="2.462" fill="#fff"/><path d="M294.896 422.942c151.221 0 273.81-5.361 273.81-11.974s-122.589-11.974-273.81-11.974-273.81 5.361-273.81 11.974 122.589 11.974 273.81 11.974Z" fill="#E2E2E2"/><path fill-rule="evenodd" clip-rule="evenodd" d="M294.893 398.993c63.703 0 122.304.952 168.817 2.547 113.831-64.949 74.413-191.582 33.544-263.206-56.881-99.68-191.291-135.507-246.885-55.975-75.463 107.95-148.257 70.282-187.566 152.267-39.31 81.984 20.387 160.578 63.273 166.928 46.514-1.596 105.126-2.547 168.817-2.547v-.014Zm-99.678-274.404c-37.431 28.446-99.333 50.485-119.901 20.248-15.362-22.595 3.558-64.985 40.616-97.123 37.058-32.137 86.646-51.555 113.69-27.909 32.089 28.063-5.577 82.874-34.405 104.784Z" fill="#fff"/><path fill-rule="evenodd" clip-rule="evenodd" d="M205.31 22.88c15.877.955 25.535 13.969 26.204 28.977.27 6.385-4.737-10.31-22.339-12.631-10.916-1.444-12.554 1.768-16.465-2.727-3.911-4.496-.2-14.4 12.6-13.618Zm175.68 49.884c68.383 15.226 111.903 78.012 116.16 108.338 2.413 17.141-8.017-37.77-94.294-62.901-46.316-13.488-74.499-.628-84.179-19.404-9.679-18.776 7.167-38.29 62.313-26.033Zm93.287 296.989c3.121-3.9 7.51-7.118 8.797-11.942 1.52-5.689-1.827-11.677-.996-17.517 1.039-7.339 8.119-12.095 11.963-18.436 3.76-6.199 1.998-8.298 2.343-15.548.513-10.925 9.488-24.713 21.446-21.021 12.146 3.773 10.157 15.03 8.019 23.506-1.519 6.037-.54 6.904.953 12.952 1.787 7.303 7.558 14.364 5.129 21.49-1.49 4.406-5.817 7.379-7.383 11.761-1.776 4.961.375 10.343 1.201 15.55 1.744 10.955-.755 20.072-8.732 29.106a30.831 30.831 0 0 1-5.201 3.994c-9.936-.563-20.982-1.078-33.018-1.563a24.891 24.891 0 0 1-2.067-2.003c-7.285-7.936-9.461-21.584-2.454-30.329Z" fill="#fff"/><path fill-rule="evenodd" clip-rule="evenodd" d="M512.314 295.156a.96.96 0 0 1 1.256-.592.95.95 0 0 1 .542.525.945.945 0 0 1-.005.754 69.137 69.137 0 0 0-2.43 7.765c.27-.248.562-.488.853-.725a22.24 22.24 0 0 1 4.438-2.739.962.962 0 0 1 1.219.486.955.955 0 0 1-.409 1.245 20.224 20.224 0 0 0-4.049 2.501 16.278 16.278 0 0 0-2.924 3.021c-1.225 5.842-2.027 12.127-2.747 18.754a33.902 33.902 0 0 1 3.557-4.641 24.986 24.986 0 0 1 7.288-5.543.958.958 0 0 1 .85 1.714 23.079 23.079 0 0 0-6.715 5.12 35.886 35.886 0 0 0-5.469 8.069l-.186 1.798c-.411 3.951-.829 8.001-1.323 12.127a.899.899 0 0 1-.016.116c-.516 4.312-1.12 8.74-1.89 13.23a54.649 54.649 0 0 1 6.692-8.473 40.44 40.44 0 0 1 11.515-8.411.947.947 0 0 1 .732-.041.95.95 0 0 1 .547.488.947.947 0 0 1-.149 1.053.94.94 0 0 1-.299.224 38.795 38.795 0 0 0-10.972 8.018c-3.335 3.428-6.355 7.612-9.062 12.551a156.748 156.748 0 0 1-4.68 18.134v.024a139.741 139.741 0 0 1-3.315 9.056 55.394 55.394 0 0 1 23.881-12.047.96.96 0 0 1 1.151.716.958.958 0 0 1-.717 1.149 54.076 54.076 0 0 0-14.139 5.39 55.056 55.056 0 0 0-12.027 9.096 128.384 128.384 0 0 1-3.666 7.451l-2.124-.091a127.61 127.61 0 0 0 9.102-21.237 36.946 36.946 0 0 0-1.663-14.014c-1.492-4.736-3.921-9.477-7.288-14.224a.952.952 0 0 1-.064-1.089.965.965 0 0 1 1-.441.973.973 0 0 1 .624.422c3.491 4.909 6.01 9.827 7.558 14.755a40.177 40.177 0 0 1 1.706 8.393c2.877-10.374 4.472-20.517 5.639-30.184-1.127-4.102-2.387-7.572-3.779-10.411-1.393-2.839-2.893-5.018-4.5-6.538a.959.959 0 0 1-.236-1.035.943.943 0 0 1 .503-.531.967.967 0 0 1 .731-.02.938.938 0 0 1 .316.198c1.8 1.692 3.438 4.055 4.916 7.088a53.342 53.342 0 0 1 2.594 6.468c.27-2.558.54-5.078.81-7.546l.197-1.933v-.102c1.357-13.152 2.731-25.123 6.626-35.291Z" fill="#0D0D0D"/><path fill-rule="evenodd" clip-rule="evenodd" d="M506.39 374.874c3.331-1.789 7.345-2.735 9.671-5.713 2.748-3.504 2.192-8.676 4.503-12.492 2.901-4.805 9.245-6.023 13.804-9.303 4.461-3.212 3.854-5.188 6.246-10.138 3.601-7.455 13.941-14.405 21.175-8.296 7.34 6.199 2.616 13.475-1.387 18.744-2.853 3.757-2.429 4.654-3.182 9.306-.924 5.616.993 12.238-2.797 16.488-2.346 2.63-6.243 3.423-8.638 6.01-2.699 2.932-2.809 7.317-3.778 11.187-1.523 6.082-4.387 10.75-9.178 14.367-8.621-.658-18.641-1.28-29.875-1.854a19.108 19.108 0 0 1-3.868-6.431c-2.708-7.694-.176-17.832 7.304-21.875Z" fill="#0D0D0D"/><path fill-rule="evenodd" clip-rule="evenodd" d="M555.019 334.179a.73.73 0 0 1 1.005.003.727.727 0 0 1 .04 1.002 52.97 52.97 0 0 0-3.995 4.692c.27-.089.54-.175.81-.253 1.272-.35 2.581-.55 3.9-.596a.729.729 0 0 1 .72.697.724.724 0 0 1-.663.751 15.252 15.252 0 0 0-3.566.539 12.292 12.292 0 0 0-2.931 1.237c-2.589 3.711-5.013 7.85-7.483 12.254a25.814 25.814 0 0 1 3.855-2.183 18.918 18.918 0 0 1 6.713-1.706.727.727 0 0 1 .752.683.723.723 0 0 1-.668.764c-2.15.139-4.255.677-6.209 1.585a27.161 27.161 0 0 0-6.208 4.002l-.667 1.196a534.194 534.194 0 0 1-4.521 8.064c-.016.027-.03.054-.046.078a207.748 207.748 0 0 1-5.236 8.659 41.566 41.566 0 0 1 7.174-3.924 30.704 30.704 0 0 1 10.527-2.452.725.725 0 1 1 .068 1.447 29.324 29.324 0 0 0-10.02 2.342 43.563 43.563 0 0 0-10.038 6.058 118.026 118.026 0 0 1-8.638 11.246h-.013a108.205 108.205 0 0 1-4.997 5.326 41.879 41.879 0 0 1 20.21-1.326.726.726 0 0 1 .579.836.726.726 0 0 1-.828.592 40.9 40.9 0 0 0-11.453-.423 41.796 41.796 0 0 0-11.067 2.776 99.125 99.125 0 0 1-6.111 5.174l-2.235-.116a96.09 96.09 0 0 0 14.768-13.744 27.926 27.926 0 0 0 2.999-10.241c.36-3.741.073-7.763-.861-12.068a.715.715 0 0 1 .081-.564.726.726 0 0 1 1.336.254c.972 4.454 1.267 8.626.885 12.515a30.39 30.39 0 0 1-1.301 6.352c5.083-6.376 9.205-12.971 12.889-19.368.41-2.771.565-5.573.462-8.371-.124-2.377-.523-4.337-1.196-5.881a.724.724 0 0 1 .142-.791.733.733 0 0 1 .508-.222.713.713 0 0 1 .516.202.72.72 0 0 1 .162.232c.745 1.709 1.185 3.839 1.32 6.39a40.24 40.24 0 0 1-.108 5.266 651.417 651.417 0 0 0 2.799-5.029l.71-1.286c0-.024.024-.045.04-.07 4.848-8.739 9.359-16.671 15.089-22.6Z" fill="#4D4D4D"/><path fill-rule="evenodd" clip-rule="evenodd" d="M133.676 361.784c-3.488-4.358-8.395-7.958-9.836-13.351-1.701-6.363 2.043-13.057 1.114-19.576-1.163-8.206-9.077-13.526-13.377-20.617-4.208-6.945-2.235-9.279-2.616-17.385-.58-12.219-10.616-27.635-23.985-23.501-13.575 4.205-11.359 16.801-8.967 26.279 1.7 6.754.588 7.724-1.064 14.486-2 8.168-8.438 16.062-5.746 24.028 1.662 4.93 6.502 8.255 8.251 13.152 1.987 5.546-.416 11.567-1.35 17.388-1.946 12.252.848 22.444 9.764 32.558a34.69 34.69 0 0 0 11.876 7.414c7.969-.361 16.452-.701 25.395-1.016a28.108 28.108 0 0 0 7.771-5.913c8.174-8.893 10.608-24.158 2.77-33.946Z" fill="#fff"/><path fill-rule="evenodd" clip-rule="evenodd" d="M91.142 278.392a1.078 1.078 0 0 0-1.342-.506 1.079 1.079 0 0 0-.66 1.271 77.236 77.236 0 0 1 2.715 8.667 18.39 18.39 0 0 0-.953-.808 24.777 24.777 0 0 0-4.959-3.064 1.086 1.086 0 0 0-.878-.124 1.073 1.073 0 0 0-.778 1.016 1.076 1.076 0 0 0 .741 1.043 22.7 22.7 0 0 1 4.535 2.797 18.387 18.387 0 0 1 3.266 3.377c1.371 6.535 2.267 13.564 3.074 20.972a37.606 37.606 0 0 0-3.978-5.188 27.836 27.836 0 0 0-8.133-6.198 1.085 1.085 0 0 0-1.28.064 1.08 1.08 0 0 0-.06 1.616c.11.105.243.186.387.236a25.73 25.73 0 0 1 7.51 5.735c2.261 2.454 4.3 5.461 6.116 9.02l.208 2.011c.453 4.417.923 8.947 1.476 13.574.003.045.008.089.016.132.58 4.835 1.255 9.772 2.106 14.791a61.715 61.715 0 0 0-7.469-9.468 45.422 45.422 0 0 0-12.878-9.403 1.092 1.092 0 0 0-.874-.125 1.082 1.082 0 0 0-.7 1.45 1.08 1.08 0 0 0 .643.605 43.356 43.356 0 0 1 12.27 8.963c3.725 3.833 7.103 8.511 10.133 14.036a174.911 174.911 0 0 0 5.234 20.274v.027a155.423 155.423 0 0 0 3.706 10.125 61.936 61.936 0 0 0-26.703-13.475 1.081 1.081 0 0 0-1.078 1.592c.128.233.34.41.592.497a60.29 60.29 0 0 1 15.81 6.039 61.457 61.457 0 0 1 13.452 10.166 140.44 140.44 0 0 0 5.939 11.68l2.429-.092a141.21 141.21 0 0 1-12.06-27.103 41.185 41.185 0 0 1 1.857-15.666c1.668-5.293 4.388-10.593 8.16-15.901a1.077 1.077 0 0 0-1.045-1.774 1.068 1.068 0 0 0-.704.537c-3.898 5.491-6.714 10.991-8.449 16.499a44.548 44.548 0 0 0-1.908 9.387c-3.221-11.602-5.002-22.945-6.306-33.766 1.26-4.588 2.665-8.47 4.216-11.645 1.552-3.174 3.23-5.61 5.034-7.306a1.081 1.081 0 0 0 .438-.772 1.074 1.074 0 0 0-.664-1.095 1.092 1.092 0 0 0-.448-.081 1.093 1.093 0 0 0-.797.393c-2.004 1.892-3.835 4.533-5.493 7.923a59.772 59.772 0 0 0-2.904 7.223 1270.79 1270.79 0 0 1-.89-8.452l-.225-2.156a.894.894 0 0 0 0-.118c-1.552-14.707-3.088-28.09-7.447-39.452Z" fill="#0D0D0D"/><path fill-rule="evenodd" clip-rule="evenodd" d="M98.31 368.012c-3.853-1.738-8.402-2.481-11.216-5.621-3.339-3.706-3.125-9.507-5.996-13.583-3.606-5.132-10.783-6-16.125-9.298-5.23-3.238-4.714-5.489-7.757-10.823-4.6-8.037-16.68-14.984-24.267-7.602-7.704 7.501-1.868 15.233 3.01 20.802 3.473 3.967 3.055 5.001 4.274 10.127 1.467 6.195-.154 13.732 4.408 18.176 2.817 2.75 7.227 3.331 10.097 6.029 3.248 3.061 3.703 7.943 5.084 12.185 2.698 8.278 7.533 11.819 15.793 15.597 8.037 0 15.971.115 25.001-.927a22.003 22.003 0 0 0 7.549-11.232c2.423-8.798-1.196-19.924-9.855-23.83Z" fill="#0D0D0D"/><path fill-rule="evenodd" clip-rule="evenodd" d="M40.735 326.521a.811.811 0 1 0-1.087 1.205 57.88 57.88 0 0 1 4.822 4.923 15.08 15.08 0 0 0-.92-.222 18.89 18.89 0 0 0-4.4-.36.809.809 0 1 0 .048 1.618 17.017 17.017 0 0 1 4.022.324c1.167.239 2.298.627 3.366 1.153 3.179 3.938 6.205 8.365 9.303 13.084a29.031 29.031 0 0 0-4.478-2.118 21.119 21.119 0 0 0-7.618-1.383.824.824 0 0 0-.571.244.806.806 0 0 0-.166.885.811.811 0 0 0 .755.491 19.48 19.48 0 0 1 7.039 1.285 30.355 30.355 0 0 1 7.232 3.979l.834 1.293a575.34 575.34 0 0 0 5.73 8.728 234.79 234.79 0 0 0 6.519 9.248 46.666 46.666 0 0 0-8.312-3.817 34.447 34.447 0 0 0-11.923-1.914.82.82 0 0 0-.567.251.81.81 0 0 0 .607 1.367 32.86 32.86 0 0 1 11.36 1.826c3.834 1.301 7.724 3.295 11.669 5.982a133.053 133.053 0 0 0 10.504 11.846l.015.016a121.807 121.807 0 0 0 5.987 5.551 46.876 46.876 0 0 0-22.644.095.81.81 0 1 0 .38 1.576 45.69 45.69 0 0 1 12.742-1.364c4.273.164 8.503.916 12.57 2.233a106.872 106.872 0 0 0 9.144 6.555c.379-.387.743-.795 1.092-1.225a107.17 107.17 0 0 1-18.079-14.518 31.12 31.12 0 0 1-4.14-11.2c-.704-4.144-.699-8.652.014-13.525a.81.81 0 1 0-1.605-.237c-.73 5.042-.734 9.718-.012 14.028a34.172 34.172 0 0 0 1.947 6.985c-6.152-6.718-11.276-13.751-15.887-20.599a51.15 51.15 0 0 1-1.167-9.301c-.046-2.66.25-4.878.887-6.654a.807.807 0 0 0-.491-1.035.814.814 0 0 0-1.037.491c-.698 1.967-1.022 4.377-.972 7.23.047 1.965.225 3.924.532 5.866a676.809 676.809 0 0 1-3.516-5.387l-.908-1.379a.419.419 0 0 0-.049-.075c-6.078-9.382-11.73-17.878-18.57-24.045Z" fill="#4D4D4D"/><path fill-rule="evenodd" clip-rule="evenodd" d="M347.614 241.849c-.81 11.224-2.478 12.771-13.194 13.639 10.716.86 12.376 2.409 13.194 13.634.81-11.225 2.478-12.774 13.197-13.634-10.719-.868-12.377-2.425-13.197-13.639Zm43.569 29.601c-.438 5.994-1.323 6.819-7.043 7.277 5.72.461 6.605 1.288 7.043 7.276.437-5.991 1.322-6.818 7.047-7.276-5.725-.464-6.61-1.288-7.047-7.277Zm-19.079-46.119c-.442 6.069-1.349 6.905-7.137 7.374 5.798.468 6.695 1.304 7.137 7.376.443-6.072 1.35-6.908 7.134-7.376-5.808-.469-6.705-1.305-7.147-7.374h.013Z" fill="#fff"/><path d="M253.873 52.116H44.397c-5.465 0-9.895 4.424-9.895 9.88V190.28c0 5.457 4.43 9.88 9.895 9.88h209.476c5.466 0 9.896-4.423 9.896-9.88V61.996c0-5.456-4.43-9.88-9.896-9.88Z" fill="#F9F9F9"/><path fill-rule="evenodd" clip-rule="evenodd" d="M263.768 61.985v10.241H34.496v-10.24a9.864 9.864 0 0 1 2.898-6.988 9.895 9.895 0 0 1 6.998-2.892h209.462a9.912 9.912 0 0 1 7.009 2.886 9.87 9.87 0 0 1 2.905 6.993Z" fill="#DE2C10"/><path fill-rule="evenodd" clip-rule="evenodd" d="M79.792 62.165a5.63 5.63 0 0 1-3.482 5.208 5.652 5.652 0 0 1-6.152-1.22 5.633 5.633 0 0 1-1.225-6.141 5.637 5.637 0 0 1 5.215-3.48 5.65 5.65 0 0 1 3.99 1.649 5.631 5.631 0 0 1 1.654 3.984Zm-14.715.001a5.63 5.63 0 0 1-3.482 5.208 5.651 5.651 0 0 1-6.152-1.22 5.632 5.632 0 0 1 3.99-9.62 5.648 5.648 0 0 1 5.215 3.476c.283.683.43 1.416.43 2.156Zm-15.095 0a5.629 5.629 0 0 1-3.483 5.208 5.652 5.652 0 0 1-6.153-1.22 5.633 5.633 0 0 1-1.222-6.143 5.637 5.637 0 0 1 5.216-3.478c1.496 0 2.931.594 3.99 1.65a5.628 5.628 0 0 1 1.652 3.983Z" fill="#fff"/><path d="M185.326 102.176h-66.812v7.4h66.812v-7.4Z" fill="#EBEBEB"/><path d="M245.094 102.176h-51.03v7.4h51.03v-7.4Z" fill="#C1C1C1"/><path d="M172.626 115.184H58.072v7.397h114.554v-7.397Zm31.156-30.527H89.228v7.398h114.554v-7.398Z" fill="#EBEBEB"/><path d="M209.453 115.184h-27.846v7.397h27.846v-7.397Z" fill="#DDD"/><path d="M245.09 115.185h-26.901v7.397h26.901v-7.397Zm.005-30.528h-32.747v7.398h32.747v-7.398Z" fill="#C1C1C1"/><path d="M118.517 128.192H58.072v7.398h60.445v-7.398Z" fill="#EBEBEB"/><path d="M209.449 128.192h-81.955v7.398h81.955v-7.398Zm-90.937 13.009H81.408v7.398h37.104v-7.398Z" fill="#DDD"/><path d="M245.092 141.201H127.248v7.398h117.844v-7.398Z" fill="#C1C1C1"/><path d="M109.534 154.21H58.072v7.398h51.462v-7.398Z" fill="#EBEBEB"/><path d="M209.452 154.21h-90.938v7.398h90.938v-7.398Z" fill="#DDD"/><path d="M245.09 154.21h-26.901v7.398h26.901v-7.398Z" fill="#C1C1C1"/><path d="M144.243 167.219h-86.17v7.398h86.17v-7.398Z" fill="#EBEBEB"/><path d="M185.327 167.219h-32.102v7.398h32.102v-7.398Z" fill="#DDD"/><path d="M245.094 167.219h-51.03v7.398h51.03v-7.398Z" fill="#C1C1C1"/><path d="M209.45 180.228H95.766v7.397H209.45v-7.397Z" fill="#DDD"/><path d="M245.09 180.228h-26.901v7.397h26.901v-7.397Z" fill="#C1C1C1"/><path fill-rule="evenodd" clip-rule="evenodd" d="m63.522 86.332-8.862 3.269v2.762l8.862 3.27V93.01l-5.733-2.026 5.733-2.03v-2.622ZM63.9 99.06h3.042l5.93-16.912h-3.036L63.9 99.06Zm9.17-12.729v2.622l5.736 2.03-5.736 2.026v2.623l8.865-3.27V89.6l-8.865-3.269Z" fill="#C1C1C1"/><path fill-rule="evenodd" clip-rule="evenodd" d="M457.144 100.546v98.001a7.54 7.54 0 0 1-2.214 5.336 7.562 7.562 0 0 1-5.344 2.21H289.558a7.562 7.562 0 0 1-5.344-2.21 7.54 7.54 0 0 1-2.214-5.336v-98.001a7.54 7.54 0 0 1 2.214-5.336 7.562 7.562 0 0 1 5.344-2.21h160.023a7.568 7.568 0 0 1 5.348 2.208 7.545 7.545 0 0 1 2.215 5.338Z" fill="#F9F9F9"/><path fill-rule="evenodd" clip-rule="evenodd" d="M456.745 101.003v7.816H281.604v-7.816a7.54 7.54 0 0 1 2.213-5.336 7.565 7.565 0 0 1 5.344-2.21h160.021a7.57 7.57 0 0 1 5.347 2.208 7.535 7.535 0 0 1 2.216 5.338Z" fill="#F83718"/><path fill-rule="evenodd" clip-rule="evenodd" d="M316.198 101.134a4.313 4.313 0 0 1-2.666 3.984 4.322 4.322 0 0 1-5.888-3.143 4.3 4.3 0 0 1 1.836-4.426 4.322 4.322 0 0 1 5.453.536 4.308 4.308 0 0 1 1.265 3.049Zm-11.234 0a4.312 4.312 0 0 1-2.666 3.984 4.325 4.325 0 0 1-4.707-.935 4.31 4.31 0 0 1-.936-4.699 4.322 4.322 0 0 1 7.044-1.399 4.308 4.308 0 0 1 1.265 3.049Zm-11.531.001a4.312 4.312 0 0 1-2.667 3.984 4.322 4.322 0 0 1-5.888-3.143 4.314 4.314 0 0 1 4.236-5.153c1.145 0 2.244.454 3.054 1.263a4.308 4.308 0 0 1 1.265 3.049Z" fill="#fff"/><path d="M521.905 166.164h-65.727c-5.218 0-9.448 4.223-9.448 9.433v65.623c0 5.209 4.23 9.432 9.448 9.432h65.727c5.217 0 9.447-4.223 9.447-9.432v-65.623c0-5.21-4.23-9.433-9.447-9.433Z" fill="#F9F9F9"/><path fill-rule="evenodd" clip-rule="evenodd" d="m478.348 205.188-11.777 4.037 11.777 4.035v6.6l-19.821-7.18v-6.91l19.821-7.179v6.597Zm13.41-15.054h7.771l-12.824 36.555h-7.771l12.824-36.555Zm27.79 15.635v6.91l-19.823 7.18v-6.6l11.779-4.035-11.779-4.037v-6.597l19.823 7.179Z" fill="#C1C1C1"/><path fill-rule="evenodd" clip-rule="evenodd" d="M73.62 253.204H40.78a4.703 4.703 0 0 1-1.805-.358 4.698 4.698 0 0 1-2.554-2.549 4.705 4.705 0 0 1-.358-1.803v-32.785c0-1.25.497-2.448 1.381-3.331a4.72 4.72 0 0 1 3.337-1.38H73.62a4.72 4.72 0 0 1 3.336 1.38 4.705 4.705 0 0 1 1.382 3.331v32.785a4.704 4.704 0 0 1-2.912 4.352 4.703 4.703 0 0 1-1.806.358Z" fill="#EBEBEB"/><path fill-rule="evenodd" clip-rule="evenodd" d="M61.338 244.824a4.093 4.093 0 0 1-2.487 3.819 4.113 4.113 0 0 1-4.485-.837 4.1 4.1 0 0 1-.936-4.459 4.106 4.106 0 0 1 6.676-1.398 4.092 4.092 0 0 1 1.232 2.875Zm7.643-19.348a19.39 19.39 0 0 0-23.535.208c-1.08.832-2.586.983-3.482.148-.896-.836-.61-2.563.761-3.63a23.81 23.81 0 0 1 14.41-5.022 23.817 23.817 0 0 1 14.502 4.752c1.39 1.046 1.698 2.773.81 3.62-.888.846-2.376.738-3.466-.076Z" fill="#fff"/><path fill-rule="evenodd" clip-rule="evenodd" d="M65.066 231.993a13.814 13.814 0 0 0-15.597.137c-1.104.76-2.61.919-3.508.092-.9-.828-.554-2.644.977-3.711a18.25 18.25 0 0 1 20.598-.181c1.55 1.04 1.935 2.857 1.047 3.692-.888.836-2.4.712-3.517-.029Z" fill="#fff"/><path fill-rule="evenodd" clip-rule="evenodd" d="M60.823 238.575a8.042 8.042 0 0 0-7.288.064c-1.157.574-2.666.75-3.59-.056-.923-.806-.394-2.849 1.544-3.86a12.504 12.504 0 0 1 11.318-.097c1.955.973 2.522 3.022 1.62 3.83-.902.809-2.438.674-3.604.119Zm167.277-8.406s1.757-4.296 3.69-4.471c1.932-.176 8.076-1.14 8.516-.27.44.871 0 4.043-1.318 5.169-1.317 1.127-9.482 2.981-9.482 2.981l-1.406-3.409Z" fill="#fff"/><path fill-rule="evenodd" clip-rule="evenodd" d="M181.338 202.246c.726-1.501 1.542-4.169 1.944-8.923-.062.469-.886 6.468-3.196 9.867-9.504 6.212-27.695 26.995-27.333 30.933 0 0-6.411-10.853-6.519-10.918 0 0-11.82-15.005 2.19-23.6 7.117-4.371 7.08-9.971 6.785-14.849-.294-4.878 1.941-25.842 16.196-20.353 0 0 2.292-1.016 3.317-.865-.465.09-.899.295-1.263.598 1.652-.097 4.019.027 5.99 1.146 5.236 2.967 9.914 29.58 1.889 36.964Z" fill="#0D0D0D"/><path fill-rule="evenodd" clip-rule="evenodd" d="M179.507 203.498c.049.019-4.589 2.425-8.063 1.469-3.276-.892-5.414-5.121-5.371-5.142 1.39-.27 1.79-2.181 1.757-10.357l.626.121 10.546 2.089s-.24 3.309-.243 6.43c-.01 2.625.146 5.107.748 5.39Z" fill="#FFD3CC"/><path fill-rule="evenodd" clip-rule="evenodd" d="M179.001 191.678s-.24 3.31-.243 6.431c-5.903-.162-9.023-5.538-10.303-8.519l10.546 2.088Z" fill="#F2C4BD"/><path fill-rule="evenodd" clip-rule="evenodd" d="M167.37 188.445s-3.09-4.878-3.835-9.05c-.527-2.964.99-14.014 12.103-12.426a15.077 15.077 0 0 1 6.26 2.36c2.41 1.617 5.89 5.14 2.003 14.774l-1.015 3.253-15.516 1.089Z" fill="#0D0D0D"/><path fill-rule="evenodd" clip-rule="evenodd" d="M180.98 194.629s-13.966.232-13.971-8.451c-.006-8.684-1.82-14.499 7.093-15.017 8.913-.517 10.649 2.8 11.359 5.695.71 2.894-.85 17.493-4.481 17.773Z" fill="#FFD3CC"/><path fill-rule="evenodd" clip-rule="evenodd" d="M180.457 170.949s-3.819 10.187-9.687 11.694c-5.869 1.506-8.409-.062-8.409-.062s4.497-3.571 5.431-9.799c0 0 9.785-6.681 12.665-1.833Z" fill="#0D0D0D"/><path fill-rule="evenodd" clip-rule="evenodd" d="M179.51 171.776s2.858 2.277 3.552 4.487 1.01 6.762 2.34 6.608c0 0 2.88-6.923-.356-10.842-3.439-4.153-5.536-.253-5.536-.253Z" fill="#0D0D0D"/><path fill-rule="evenodd" clip-rule="evenodd" d="M142.738 274.165c.753 2.089 3.064 2.623 6.16 2.264 5.903-.687 14.667-4.646 20.981-7.379 9.636-4.172 14.012-.256 17.076-2.908 3.063-2.652-3.51-8.551 2.191-35.943 1.93-9.287-10.303-29.203-10.303-29.203s-1.055 5.768-12.759-1.169c-.41-.243-5.021 6.565-9.448 14.96-4.891 9.262-9.574 20.452-8.197 26.219 2.61 10.977-7.898 27.096-5.701 33.159Z" fill="#FFE00C"/><path fill-rule="evenodd" clip-rule="evenodd" d="m178.836 200.995 7.212 29.548s.899 1.595 2.308 3.867c3.301 5.334 9.418 14.392 13.332 15.313 1.927.453 6.038-1.153 10.581-3.441 8.592-4.336 18.752-11.128 18.752-11.128.656-3.935-2.772-7.142-2.772-7.142s-20.58 7.724-22.62 7.867c-4.457.321-8.989-21.147-13.154-28.297-3.009-5.188-13.639-6.587-13.639-6.587Z" fill="#FFE00C"/><path fill-rule="evenodd" clip-rule="evenodd" d="M142.738 274.165c.753 2.088 3.064 2.622 6.16 2.263 4.081-1.778 21.731-8.602 21.529-13.227-.292-6.848-3.39-7.066-1.201-15.517 1.754-6.789-14.547-19.404-17.149-22.148-4.888 9.263-5.023 9.702-3.646 15.469 2.618 10.977-7.89 27.096-5.693 33.16Z" fill="#FEC047"/><path fill-rule="evenodd" clip-rule="evenodd" d="M172.006 247.519s2.953-2.293 5.747-1.752c2.794.542 4.157 2.466 4.049 3.337-.108.87-1.585 3.333-3.72 3.552-2.135.218-8.211-1.313-8.211-1.313l2.135-3.824Z" fill="#fff"/><path fill-rule="evenodd" clip-rule="evenodd" d="M166.076 199.826s-11.38.704-15.318 6.185c-5.547 7.724-15.178 39.247-12.552 46.465l34.621-.151s.84-3.911-.327-5.805c-1.166-1.895-20.136-4.956-21.013-5.83-.878-.873 10.945-17.048 10.945-19.673s3.644-21.191 3.644-21.191Z" fill="#FFE00C"/><path fill-rule="evenodd" clip-rule="evenodd" d="M174.979 260.431h41.914l7.555-26.309h-41.852l-7.617 26.309Z" fill="#F1F1F1"/><path d="M216.751 259.406h-54.798v1.024h54.798v-1.024Z" fill="#C6C6C6"/><path fill-rule="evenodd" clip-rule="evenodd" d="M203.583 246.862c.27-.925-.27-1.676-1.196-1.676a2.394 2.394 0 0 0-2.159 1.676c-.27.922.27 1.673 1.193 1.673a2.411 2.411 0 0 0 2.162-1.673Z" fill="#C6C6C6"/><path fill-rule="evenodd" clip-rule="evenodd" d="M173.65 176.629c1.247.092 1.176 1.078.253 1.318-9.841 2.463-3.344-1.552-.253-1.318Z" fill="#0D0D0D"/><path fill-rule="evenodd" clip-rule="evenodd" d="M399.376 383.928a31.278 31.278 0 0 1-9.374 7.986c-6.149 3.382-13.243 5.012-8.843 6.54 4.4 1.529 10.829 2.722 17.102.903 4.397-1.274 9.556-1.541 10.921-3.616 1.366-2.076-3.239-7.781-2.013-15.569.99-6.242-7.793 3.756-7.793 3.756Z" fill="#F83718"/><path fill-rule="evenodd" clip-rule="evenodd" d="M421.747 318.106s-24.804-1.943-31.733-.738c-6.929 1.204-22.134 1.188-12.184 29.202 7.792 21.954 17.418 42.783 17.418 42.783 5.164 1.267 8.891 4.827 15.491 3.8 0 0-8.325-49.24-15.062-56.325a248.764 248.764 0 0 1 28.963 6.527c25.403 7.253 35.614 3.62 35.614 3.62l3.779-13.235-42.286-15.634Z" fill="#0D0D0D"/><path d="M321.835 300.719h-20.757v2.401h20.757v-2.401Z" fill="#0D0D0D"/><path fill-rule="evenodd" clip-rule="evenodd" d="m293.799 240.711 25.378-.305 8.246 44.071-24.174 6.724-9.45-50.49Z" fill="#0D0D0D"/><path fill-rule="evenodd" clip-rule="evenodd" d="m295.754 242.309 8.77 46.858 21.035-5.854-7.722-41.268-22.083.264Z" fill="#EBEBEB"/><path fill-rule="evenodd" clip-rule="evenodd" d="M301.078 303.122h5.887v-12.955l-3.714 1.035-2.173-11.621v23.541Z" fill="#0D0D0D"/><path fill-rule="evenodd" clip-rule="evenodd" d="M385.492 308.333h-95.646c-.405 0-.737-.935-.737-2.086v-1.043c0-1.15.332-2.083.737-2.083h95.646c.41 0 .739.933.739 2.083v1.043c0 1.151-.329 2.086-.739 2.086Z" fill="#8D8D8D"/><path fill-rule="evenodd" clip-rule="evenodd" d="M440.377 219.911c5.582-.151 3.509-4.295 9.931-2.641 3.376.871.885 2.256 5.266 1.806 4.381-.45 6.545-.906 7.099 1.954.553 2.859.81 3.773 2.926 4.209 2.116.437 3.064 4.213 0 6.77-3.064 2.558-1.574 3.609-.894 5.716.681 2.108-1.635 2.253-2.888 4.21-1.252 1.956 1.155 2.326-.653 4.021-1.809 1.695-4.343 1.544-4.343 1.544l-7.609-14.569-8.835-13.02Z" fill="#0D0D0D"/><path fill-rule="evenodd" clip-rule="evenodd" d="M390.744 393.984a31.279 31.279 0 0 1-9.375 7.985c-6.149 3.385-13.245 5.013-8.845 6.543 4.399 1.531 10.829 2.72 17.102.901 4.403-1.275 9.561-1.542 10.921-3.617 1.361-2.075-1.606-7.277-.369-15.076.987-6.241-9.434 3.264-9.434 3.264Z" fill="#F83718"/><path fill-rule="evenodd" clip-rule="evenodd" d="M427.019 318.278s-32.235-1.202-39.164 0c-6.929 1.202-22.134 1.192-12.187 29.203 7.793 21.956 10.362 49.753 10.362 49.753l15.494 3.8s-.613-49.985-8.006-63.292a248.357 248.357 0 0 1 28.961 6.524c25.405 7.252 39.336 3.622 39.336 3.622l3.779-13.235-38.575-16.375Z" fill="#0D0D0D"/><path fill-rule="evenodd" clip-rule="evenodd" d="m453.941 235.184 7.876 23.236-9.949 6.541-5.641-20.075 7.714-9.702Z" fill="#FFD3CC"/><path fill-rule="evenodd" clip-rule="evenodd" d="m450.977 261.791-4.75-16.905 7.714-9.702 2.88 8.5c-.993 7.675-3.398 14.024-5.844 18.107Z" fill="#F2C4BD"/><path fill-rule="evenodd" clip-rule="evenodd" d="M433.845 239.116c-.254 7.069 3.223 13.186 8.748 13.728 5.526.542 10.571-4.719 11.264-11.758.694-7.039-3.22-13.179-8.745-13.726-5.526-.547-10.857.604-11.267 11.756Z" fill="#FFD3CC"/><path fill-rule="evenodd" clip-rule="evenodd" d="M465.6 257.744c24.177 16.299 9.14 42.643 3.83 61.893-4.521 16.399-4.372 26.309-5.05 26.309-.677 0-17.305-2.485-26.796-11.05a145.09 145.09 0 0 1-15.906-16.873s12.146-2.156 16.133-17.865c2.017-7.969 1.102-12.297 5.698-24.931 4.597-12.635 22.091-17.483 22.091-17.483Z" fill="#FFE00C"/><path fill-rule="evenodd" clip-rule="evenodd" d="m465.6 257.743-2.589-6.325s-8.209 5.412-11.488 7.969c-3.28 2.558-5.296 3.159-5.296 3.159s-1.182 9.066-.416 8.244c9.693-10.368 19.789-13.047 19.789-13.047Z" fill="#D1D1D1"/><path fill-rule="evenodd" clip-rule="evenodd" d="M476.315 412.768h-2.111l-15.138-63.057h4.643l12.606 63.057Zm-63.235.001h2.111l17.37-65.287h-4.643l-14.838 65.287Z" fill="#8D8D8D"/><path fill-rule="evenodd" clip-rule="evenodd" d="M452.801 352.071c8.457 0 13.813-1.514 17.232-4.851 4.238-4.123 5.116-10.51 5.129-18.824.027-17.491.996-21.105 5.938-31.785a2.357 2.357 0 0 0-1.165-3.123 2.369 2.369 0 0 0-3.134 1.145c-5.21 11.289-6.333 15.437-6.36 33.755-.013 8.43-1.08 12.909-3.701 15.45-2.68 2.606-7.525 3.682-15.712 3.479-7.903-.199-13.345-1.301-17.715-2.188-5.75-1.167-9.907-2.01-14.846.34a2.364 2.364 0 0 0-1.058 3.123 2.367 2.367 0 0 0 3.098 1.14c3.51-1.668 6.479-1.078 11.847.027 4.557.925 10.223 2.073 18.544 2.277.651.03 1.288.035 1.903.035Z" fill="#8D8D8D"/><path fill-rule="evenodd" clip-rule="evenodd" d="M464.703 281.479s-6.027 18.347-13.496 25.942c-7.469 7.594-22.463 10.146-27.16 9.847 3.746-1.504 10.878-5.783 13.747-17.119 2.017-7.969 1.101-12.297 5.698-24.931 3.412-9.378 13.931-14.461 19.125-16.458-6.479 4.649-14.576 12.302-17.079 18.129-2.753 6.468 19.165 4.59 19.165 4.59Z" fill="#FEC047"/><path fill-rule="evenodd" clip-rule="evenodd" d="M381.542 297.579s-10.392-4.735-11.523-4.285c-1.131.45-12.652 7.4-12.652 8.551 0 1.151 10.168-4.29 10.168-4.29s-1.131 3.005-.453 4.449c.677 1.445 8.494 1.442 15.545.989 7.05-.453-1.085-5.414-1.085-5.414Z" fill="#fff"/><path fill-rule="evenodd" clip-rule="evenodd" d="M464.37 267.301c9.582 19.606-23.284 39.479-42.778 41.249-19.494 1.771-42.649-4.606-42.649-4.606l2.611-6.365s39.061-5.088 40.051-5.802c.991-.715 39.258-31.656 42.765-24.476Z" fill="#FFE00C"/><path fill-rule="evenodd" clip-rule="evenodd" d="M433.835 220.919c-2.648-1.102-5.631-2.285-4.708 2.207.402 1.954 0 1.402-.699 3.207-.699 1.806 1.768 3.234 2.572 4.223.805.99-1.171 2.094.438 3.296 1.608 1.202 3.725-.444 5.223 0 4.467 1.332 3.916-2.177 6.424-2.907 2.508-.731 3.741-.618 4.222.986.48 1.603-1.76 6.883.148 6.384 1.908-.498 2.338 3.757 2.85 6.167.513 2.409 1.822-1.663 1.739-4.415-.13-4.22.918-5.994 2.478-7.174 1.56-1.18 2.221-11.923-5.312-12.324-7.534-.402-7.58-1.129-10.797-1.809-3.218-.679-3.372 2.66-4.578 2.159Z" fill="#0D0D0D"/><path fill-rule="evenodd" clip-rule="evenodd" d="M297.988 308.334h5.528v99.984h-5.528v-99.984Zm73.833 0h5.528v99.984h-5.528v-99.984Z" fill="#8D8D8D"/><path fill-rule="evenodd" clip-rule="evenodd" d="M453.151 229.301a7.125 7.125 0 0 1 6.581 4.391 7.102 7.102 0 0 1-1.545 7.751 7.132 7.132 0 0 1-10.96-1.081 7.104 7.104 0 0 1 3.198-10.521 7.118 7.118 0 0 1 2.726-.54Z" fill="#D1D1D1"/><path fill-rule="evenodd" clip-rule="evenodd" d="M451.851 216.407h2.969a.773.773 0 0 1 .772.766v17.248a.77.77 0 0 1-.772.768h-2.969a.773.773 0 0 1-.769-.768v-17.248a.77.77 0 0 1 .769-.766Z" fill="#F83718"/><path d="M456.309 237.144a3.274 3.274 0 0 0-2.439-3.939 3.274 3.274 0 1 0-1.506 6.373 3.279 3.279 0 0 0 3.945-2.434Z" fill="#fff"/><path fill-rule="evenodd" clip-rule="evenodd" d="M82.062 248.92c-.81 11.225-2.478 12.774-13.197 13.639 10.719.863 12.379 2.426 13.197 13.634.81-11.222 2.478-12.771 13.197-13.634-10.72-.865-12.377-2.425-13.197-13.639Zm43.569 29.602c-.438 5.993-1.323 6.818-7.045 7.276 5.722.461 6.607 1.288 7.045 7.277.437-5.994 1.322-6.821 7.045-7.277-5.723-.463-6.608-1.288-7.045-7.276Zm-19.065-46.12c-.443 6.069-1.35 6.908-7.137 7.377 5.798.466 6.694 1.304 7.137 7.37.442-6.066 1.349-6.904 7.134-7.37-5.809-.464-6.705-1.308-7.134-7.377Z" fill="#fff"/><path d="M327.906 163.865c0 1.771-.209 3.437-.625 5-.382 1.562-1.077 2.934-2.084 4.114-.972 1.146-2.309 2.066-4.01 2.761-1.667.659-3.785.989-6.354.989-2.361 0-4.392-.278-6.094-.833-1.701-.59-3.107-1.267-4.218-2.031l2.708-6.302a23.13 23.13 0 0 0 3.229 1.562c1.146.452 2.396.677 3.75.677 1.979 0 3.403-.486 4.271-1.458.868-.972 1.302-2.604 1.302-4.896v-23.541h8.125v23.958ZM358.933 176a72.149 72.149 0 0 0-1.302-3.854l-1.354-3.958h-14.062a178.36 178.36 0 0 1-1.407 3.958 123.367 123.367 0 0 0-1.25 3.854h-8.437a644.26 644.26 0 0 1 3.854-10.781 474.098 474.098 0 0 1 3.542-9.323 479.264 479.264 0 0 1 3.437-8.281 199.365 199.365 0 0 1 3.542-7.708h7.76c1.181 2.5 2.344 5.07 3.489 7.708a223.899 223.899 0 0 1 3.438 8.281 321.447 321.447 0 0 1 3.594 9.323A653.344 653.344 0 0 1 367.631 176h-8.698Zm-9.739-27.916a52.269 52.269 0 0 1-.782 2.135c-.347.903-.746 1.945-1.197 3.125a624.386 624.386 0 0 1-1.511 3.907 488.001 488.001 0 0 0-1.614 4.479h10.26a518.65 518.65 0 0 0-1.615-4.479 106.235 106.235 0 0 0-1.51-3.907l-1.198-3.125c-.347-.902-.625-1.614-.833-2.135ZM379.624 176a270.945 270.945 0 0 1-4.219-9.427 357.159 357.159 0 0 1-3.958-9.687 510.661 510.661 0 0 1-3.49-9.166 398.034 398.034 0 0 1-2.708-7.813h8.958c.695 2.084 1.441 4.34 2.24 6.771l2.5 7.187c.868 2.396 1.701 4.688 2.5 6.875.798 2.187 1.545 4.08 2.239 5.677a147.27 147.27 0 0 0 2.187-5.677 246.425 246.425 0 0 0 2.5-6.875 291.945 291.945 0 0 0 2.5-7.187 796.6 796.6 0 0 0 2.292-6.771h8.646c-.799 2.292-1.719 4.896-2.761 7.813a325.459 325.459 0 0 1-3.437 9.166 360.423 360.423 0 0 1-3.958 9.687 270.945 270.945 0 0 1-4.219 9.427h-7.812Zm47.616 0a71.298 71.298 0 0 0-1.303-3.854l-1.354-3.958h-14.062c-.451 1.319-.92 2.639-1.406 3.958a123.367 123.367 0 0 0-1.25 3.854h-8.437a644.26 644.26 0 0 1 3.854-10.781 474.307 474.307 0 0 1 3.541-9.323 487.073 487.073 0 0 1 3.438-8.281 199.362 199.362 0 0 1 3.541-7.708h7.761c1.18 2.5 2.343 5.07 3.489 7.708a222.22 222.22 0 0 1 3.437 8.281 315.753 315.753 0 0 1 3.594 9.323A644.26 644.26 0 0 1 435.937 176h-8.697Zm-9.74-27.916a51.976 51.976 0 0 1-.781 2.135c-.347.903-.747 1.945-1.198 3.125a620.374 620.374 0 0 1-1.51 3.907 518.65 518.65 0 0 0-1.615 4.479h10.26a488.001 488.001 0 0 0-1.614-4.479 106.15 106.15 0 0 0-1.511-3.907c-.451-1.18-.85-2.222-1.197-3.125-.348-.902-.625-1.614-.834-2.135Z" fill="#C1C1C1"/><path fill-rule="evenodd" clip-rule="evenodd" d="M291.141 298.736v97.998a7.54 7.54 0 0 1-2.213 5.336 7.566 7.566 0 0 1-5.345 2.21H123.558a7.562 7.562 0 0 1-5.344-2.21 7.537 7.537 0 0 1-2.214-5.336v-97.998c0-2.001.796-3.92 2.214-5.335a7.559 7.559 0 0 1 5.344-2.211h160.025c2.005 0 3.927.795 5.345 2.211a7.54 7.54 0 0 1 2.213 5.335Z" fill="#F9F9F9"/><path fill-rule="evenodd" clip-rule="evenodd" d="M291.141 298.736v7.816H116v-7.816c0-2.001.796-3.92 2.214-5.335a7.559 7.559 0 0 1 5.344-2.211h160.025c2.005 0 3.927.795 5.345 2.211a7.54 7.54 0 0 1 2.213 5.335Z" fill="#C1C1C1"/><path fill-rule="evenodd" clip-rule="evenodd" d="M150.597 298.874a4.312 4.312 0 0 1-2.666 3.984 4.326 4.326 0 0 1-4.707-.934 4.304 4.304 0 0 1 .654-6.635 4.327 4.327 0 0 1 5.454.536 4.31 4.31 0 0 1 1.265 3.049Zm-11.243 0a4.311 4.311 0 0 1-2.666 3.984 4.322 4.322 0 0 1-4.706-.934 4.311 4.311 0 0 1 3.054-7.362c1.145 0 2.244.455 3.053 1.263a4.31 4.31 0 0 1 1.265 3.049Zm-11.529 0a4.313 4.313 0 0 1-2.666 3.984 4.322 4.322 0 0 1-5.889-3.142 4.312 4.312 0 0 1 4.236-5.154c1.146 0 2.244.455 3.054 1.263a4.31 4.31 0 0 1 1.265 3.049Z" fill="#fff"/><path d="M171.218 374.729c-5.868 0-10.347-1.632-13.437-4.896-3.055-3.263-4.583-7.899-4.583-13.905 0-2.986.469-5.643 1.406-7.969.938-2.361 2.222-4.34 3.854-5.937 1.632-1.632 3.576-2.865 5.833-3.698 2.257-.833 4.705-1.25 7.344-1.25 1.528 0 2.916.121 4.166.365 1.25.208 2.344.468 3.282.781.937.278 1.718.573 2.343.885.625.313 1.077.556 1.354.729l-2.343 6.563c-1.111-.591-2.413-1.094-3.906-1.511-1.459-.416-3.125-.625-5-.625-1.25 0-2.483.209-3.698.625-1.181.417-2.24 1.094-3.177 2.031-.903.903-1.632 2.084-2.188 3.542-.555 1.458-.833 3.229-.833 5.312 0 1.667.174 3.229.521 4.688.382 1.423.972 2.656 1.771 3.698.833 1.041 1.909 1.874 3.229 2.499 1.319.591 2.916.886 4.791.886 1.181 0 2.24-.07 3.177-.208a29.883 29.883 0 0 0 2.5-.469 15.461 15.461 0 0 0 1.927-.677 86.136 86.136 0 0 0 1.511-.677l2.239 6.51c-1.146.694-2.76 1.319-4.843 1.875-2.084.555-4.497.833-7.24.833Zm28.211-19.531h8.698v-9.635h7.083v9.635h8.698v6.511h-8.698v9.635h-7.083v-9.635h-8.698v-6.511Zm29.602 0h8.697v-9.635h7.083v9.635h8.698v6.511h-8.698v9.635h-7.083v-9.635h-8.697v-6.511Z" fill="#C1C1C1"/><path fill-rule="evenodd" clip-rule="evenodd" d="M182.562 343.028a2.113 2.113 0 0 0-.375 2.261c.54 1.51 2.356 3.194 4.454 4.876.27.215.507.415.712.595l.162.143c.041.04.084.076.124.113 1.955 1.8 1.22 2.213 4.735 5.867 4.006 4.161 6.77 4.237 7.558 3.859.658-.323-.689-2.53-2.187-5.012-.073-.122-.14-.243-.216-.364-.199-.326-.394-.666-.591-.997-1.754-2.986-1.306-4.39-.891-8.832.341-3.614 5.634-20.182 5.634-20.182l-7.685-1.324s-2.311 13.206-4.859 15.23c-1.365 1.078-2.891 1.094-4.197 1.886a4.328 4.328 0 0 0-.27.173 10.136 10.136 0 0 0-2.108 1.708Z" fill="#fff"/><path fill-rule="evenodd" clip-rule="evenodd" d="M182.562 343.03a2.11 2.11 0 0 0-.375 2.261c.672 1.509 2.429 3.185 4.462 4.851.27.221.499.42.704.609l.162.143c.041.04.084.075.124.113 1.955 1.8 1.22 2.212 4.735 5.867 4.006 4.161 6.77 4.236 7.558 3.859.658-.323-.689-2.531-2.187-5.013a17.117 17.117 0 0 1-7.139-5.258c-2.416-3.075-4.022-7.026-5.669-9.314a4.842 4.842 0 0 0-.27.173 10.123 10.123 0 0 0-2.105 1.709Z" fill="#F83718"/><path fill-rule="evenodd" clip-rule="evenodd" d="M244.499 338.237c.472 2.367 3.855 1.976 7.631 1.054 3.776-.922 2.874.17 8.249-.423 5.374-.593 7.002-2.595 7.166-3.39.146-.709-2.507-.957-5.358-1.288-.359-.036-.715-.081-1.079-.127-3.213-.402-5.569-2.477-8.487-4.177-2.767-1.617-6.897-8.177-6.897-8.177l-7.369.585s3.869 5.864 5.361 8.414c.883 1.498.834 3.481.726 5.012a9.471 9.471 0 0 0 .057 2.517Z" fill="#fff"/><path fill-rule="evenodd" clip-rule="evenodd" d="M252.128 339.299c3.779-.922 2.875.17 8.249-.423 5.374-.593 7.002-2.595 7.167-3.391.146-.708-2.508-.956-5.358-1.288l-.025.057a15.16 15.16 0 0 1-7.695 2.39c-3.65.087-7.509-.956-10.025-.916a9.514 9.514 0 0 0 .056 2.517c.473 2.358 3.855 1.968 7.631 1.054Z" fill="#F83718"/><path fill-rule="evenodd" clip-rule="evenodd" d="m216.254 291.189-15.883 42.678c-1.605.118-3.22-.03-4.777-.44-2.16-.619-4.621-2.244-4.621-2.244s3.941-40.964 11.164-49.499c7.223-8.535 14.117 9.505 14.117 9.505Z" fill="#0D0D0D"/><path fill-rule="evenodd" clip-rule="evenodd" d="M153.436 273.924s45.636-15.407 55.815-12.127c10.179 3.28 40.737 63.984 40.737 63.984s-.688.914-2.572 1.617c-1.749.655-5.993.615-5.993.615s-27.578-23.606-30.86-30.489c-3.283-6.883-4.589-13.439-7.877-12.785-3.287.655-42.357 16.065-51.224 6.883-8.867-9.181-6.545-21.101-6.545-21.101l8.519 3.403Z" fill="#0D0D0D"/></svg>