<svg width="32" height="32" fill="none" xmlns="http://www.w3.org/2000/svg"><path d="m17.06 22.625 8.303 5.57a.7.7 0 0 0 .976-.2.644.644 0 0 0 .099-.343V9.97c0-1.4-.577-2.744-1.602-3.735a5.57 5.57 0 0 0-3.868-1.546H10.032a5.57 5.57 0 0 0-3.868 1.546A5.191 5.191 0 0 0 4.563 9.97v17.68c0 .12.034.239.098.342a.675.675 0 0 0 .268.243.705.705 0 0 0 .707-.043l8.305-5.57a2.802 2.802 0 0 1 1.56-.47c.557 0 1.101.165 1.56.472v0Z" stroke="#6E7191" stroke-width="2" stroke-linecap="round" stroke-linejoin="round"/></svg>