<svg width="32" height="32" fill="none" xmlns="http://www.w3.org/2000/svg"><path d="M2.875 2.875H5.8c.559 0 1.1.183 1.535.52.435.336.737.804.855 1.328l.792 3.46m0 0 1.349 7.163a6.988 6.988 0 0 0 2.506 4.16 7.527 7.527 0 0 0 4.703 1.65h3.3a7.531 7.531 0 0 0 4.579-1.55 7.01 7.01 0 0 0 2.567-3.955l1.249-5.305a1.693 1.693 0 0 0 0-.785 1.737 1.737 0 0 0-.352-.707 1.828 1.828 0 0 0-.638-.491 1.904 1.904 0 0 0-.797-.178L8.982 8.183Z" stroke="#6E7191" stroke-width="2" stroke-linecap="round"/><path d="M12.016 29.125a1.016 1.016 0 1 0 0-2.031 1.016 1.016 0 0 0 0 2.031Zm14.218 0a1.016 1.016 0 1 0 0-2.031 1.016 1.016 0 0 0 0 2.031Z" stroke="#6E7191" stroke-width="2"/></svg>