<?xml version="1.0" encoding="utf-8"?><svg viewbox="0 0 50 51" xmlns="http://www.w3.org/2000/svg" xmlns:xlink="http://www.w3.org/1999/xlink"><style>:root>svg{display:none}:root>svg:target{display:block}</style><svg viewbox="0 0 50 50" id="card-advantages-1" xmlns="http://www.w3.org/2000/svg"><path fill-rule="evenodd" clip-rule="evenodd" d="M19 0C8.507 0 0 8.507 0 19v12c0 10.493 8.507 19 19 19h12c10.493 0 19-8.507 19-19V19C50 8.507 41.493 0 31 0H19Zm.973 17.455 9.143 9.143c.17.16.214.41.125.616a.573.573 0 0 1-.527.357h-3.41l1.794 4.25a.574.574 0 0 1-.303.75l-1.58.67a.574.574 0 0 1-.75-.303l-1.706-4.036-2.786 2.785a.568.568 0 0 1-.402.17.573.573 0 0 1-.571-.571V17.857c0-.232.143-.437.357-.527a.575.575 0 0 1 .214-.044c.152 0 .295.053.402.17Z"/></svg><svg viewbox="0 0 50 50" id="card-advantages-2" xmlns="http://www.w3.org/2000/svg"><path fill-rule="evenodd" clip-rule="evenodd" d="M19 0C8.507 0 0 8.507 0 19v12c0 10.493 8.507 19 19 19h12c10.493 0 19-8.507 19-19V19C50 8.507 41.493 0 31 0H19Zm7.652 25.018-1.17-.545v-1.054c0-.5-.41-.91-.91-.91s-.911.41-.911.91v5.465c0 2.089-1.732 3.776-3.83 3.776A3.83 3.83 0 0 1 16 28.83v-2.375h2.929v2.34c0 .508.41.91.91.91s.911-.402.911-.91v-5.536c0-2.045 1.75-3.688 3.821-3.688 2.08 0 3.822 1.652 3.822 3.714V24.5l-1.741.518Zm3.562 3.892v-2.455h2.929v2.375a3.83 3.83 0 0 1-3.83 3.83c-2.108 0-3.83-1.696-3.83-3.794v-2.393l1.169.545 1.74-.518v2.41c0 .5.412.902.912.902s.91-.402.91-.902Z"/></svg><svg viewbox="0 0 50 51" id="card-advantages-3" xmlns="http://www.w3.org/2000/svg"><path fill-rule="evenodd" clip-rule="evenodd" d="M19 .83c-10.493 0-19 8.507-19 19v12c0 10.494 8.507 19 19 19h12c10.493 0 19-8.506 19-19v-12c0-10.493-8.507-19-19-19H19Zm6.393 32.982a.554.554 0 0 1-.393.16.554.554 0 0 1-.393-.16l-5.571-5.375c-.072-.062-2.036-1.857-2.036-4 0-2.616 1.598-4.178 4.268-4.178 1.562 0 3.027 1.232 3.732 1.928.705-.696 2.17-1.928 3.732-1.928 2.67 0 4.268 1.562 4.268 4.178 0 2.06-1.816 3.8-2.027 4.001l-.018.017-5.562 5.357Z"/></svg><svg viewbox="0 0 50 51" id="card-advantages-4" xmlns="http://www.w3.org/2000/svg"><path fill-rule="evenodd" clip-rule="evenodd" d="M19 .83c-10.493 0-19 8.507-19 19v12c0 10.494 8.507 19 19 19h12c10.493 0 19-8.506 19-19v-12c0-10.493-8.507-19-19-19H19Zm12.714 19.143c0 .16-.125.286-.285.286h-.858c0 3.303-1.58 5.696-3.33 6.857 1.75 1.16 3.33 3.553 3.33 6.857h.858c.16 0 .285.125.285.286v.571c0 .16-.125.286-.285.286H18.286A.282.282 0 0 1 18 34.83v-.571c0-.161.125-.286.286-.286h.857c0-3.304 1.58-5.697 3.33-6.857-1.75-1.16-3.33-3.554-3.33-6.857h-.857a.282.282 0 0 1-.286-.286V19.4c0-.16.125-.285.286-.285h13.143c.16 0 .285.125.285.285v.572Zm-3.044 3.714a7.915 7.915 0 0 0 .759-3.428h-9.143c0 1.303.294 2.455.759 3.428h7.625Zm-7.875 7.429h8.125c-.661-1.723-1.849-2.947-3.036-3.429H23.83c-1.187.482-2.375 1.706-3.035 3.429Z"/></svg><svg viewbox="0 0 35 36" id="check-mark" xmlns="http://www.w3.org/2000/svg"><mask id="ea"><path fill-rule="evenodd" clip-rule="evenodd" d="M13.854.301C6.203.301 0 6.504 0 14.155v7.292C0 29.1 6.203 35.301 13.854 35.301h7.292C28.797 35.301 35 29.098 35 21.447v-7.292C35 6.504 28.797.301 21.146.301h-7.292Zm10.78 12.24a.788.788 0 0 1 1.132 0 .83.83 0 0 1 0 1.155l-10.15 10.366a.789.789 0 0 1-1.132 0l-4.25-4.34a.83.83 0 0 1 0-1.155.788.788 0 0 1 1.132 0l3.684 3.762 9.584-9.788Z"/></mask><path fill-rule="evenodd" clip-rule="evenodd" d="M13.854.301C6.203.301 0 6.504 0 14.155v7.292C0 29.1 6.203 35.301 13.854 35.301h7.292C28.797 35.301 35 29.098 35 21.447v-7.292C35 6.504 28.797.301 21.146.301h-7.292Zm10.78 12.24a.788.788 0 0 1 1.132 0 .83.83 0 0 1 0 1.155l-10.15 10.366a.789.789 0 0 1-1.132 0l-4.25-4.34a.83.83 0 0 1 0-1.155.788.788 0 0 1 1.132 0l3.684 3.762 9.584-9.788Z"/><path d="m25.766 12.54 2.084-2.04-2.084 2.04Zm-1.132 0L22.55 10.5l2.084 2.04Zm1.132 1.156-2.084-2.04 2.084 2.04Zm-10.15 10.366-2.085-2.04 2.085 2.04Zm-1.132 0 2.084-2.04-2.084 2.04Zm-4.25-4.34-2.084 2.04 2.084-2.04Zm0-1.155-2.083-2.041 2.083 2.04Zm1.132 0-2.084 2.04 2.084-2.04Zm3.684 3.762-2.084 2.04 2.084 2.129 2.084-2.128-2.084-2.041ZM2.917 14.155c0-6.04 4.897-10.937 10.937-10.937v-5.833c-9.262 0-16.77 7.508-16.77 16.77h5.833Zm0 7.292v-7.292h-5.834v7.292h5.834Zm10.937 10.938c-6.04 0-10.937-4.897-10.937-10.938h-5.834c0 9.262 7.509 16.77 16.771 16.77v-5.832Zm7.292 0h-7.292v5.833h7.292v-5.833Zm10.937-10.938c0 6.04-4.897 10.938-10.937 10.938v5.833c9.262 0 16.77-7.509 16.77-16.77h-5.833Zm0-7.292v7.292h5.834v-7.292h-5.834ZM21.146 3.218c6.04 0 10.937 4.897 10.937 10.937h5.834c0-9.262-7.509-16.77-16.771-16.77v5.833Zm-7.292 0h7.292v-5.833h-7.292v5.833ZM27.85 10.5a3.705 3.705 0 0 0-5.3 0l4.168 4.081a2.129 2.129 0 0 1-3.036 0l4.168-4.08Zm0 5.237a3.746 3.746 0 0 0 0-5.237l-4.168 4.081a2.087 2.087 0 0 1 0-2.926l4.168 4.082ZM17.7 26.103l10.15-10.366-4.168-4.082-10.15 10.367 4.168 4.08Zm-5.3 0a3.705 3.705 0 0 0 5.3 0l-4.168-4.082a2.128 2.128 0 0 1 3.036 0L12.4 26.103Zm-4.25-4.34 4.25 4.34 4.168-4.082-4.25-4.34-4.168 4.081Zm0-5.237a3.746 3.746 0 0 0 0 5.236l4.168-4.08c.798.814.798 2.11 0 2.925L8.15 16.526Zm5.3 0a3.705 3.705 0 0 0-5.3 0l4.168 4.081a2.128 2.128 0 0 1-3.036 0l4.168-4.08Zm3.684 3.762-3.684-3.762-4.168 4.081 3.684 3.763 4.168-4.082ZM22.55 10.5l-9.584 9.788 4.168 4.082 9.584-9.789L22.55 10.5Z" mask="url(#ea)"/><path d="m25.766 12.54 2.084-2.04-2.084 2.04Zm-1.132 0L22.55 10.5l2.084 2.04Zm1.132 1.156-2.084-2.04 2.084 2.04Zm-10.15 10.366-2.085-2.04 2.085 2.04Zm-1.132 0 2.084-2.04-2.084 2.04Zm-4.25-4.34-2.084 2.04 2.084-2.04Zm0-1.155-2.083-2.041 2.083 2.04Zm1.132 0-2.084 2.04 2.084-2.04Zm3.684 3.762-2.084 2.04 2.084 2.129 2.084-2.128-2.084-2.041ZM2.917 14.155c0-6.04 4.897-10.937 10.937-10.937v-5.833c-9.262 0-16.77 7.508-16.77 16.77h5.833Zm0 7.292v-7.292h-5.834v7.292h5.834Zm10.937 10.938c-6.04 0-10.937-4.897-10.937-10.938h-5.834c0 9.262 7.509 16.77 16.771 16.77v-5.832Zm7.292 0h-7.292v5.833h7.292v-5.833Zm10.937-10.938c0 6.04-4.897 10.938-10.937 10.938v5.833c9.262 0 16.77-7.509 16.77-16.77h-5.833Zm0-7.292v7.292h5.834v-7.292h-5.834ZM21.146 3.218c6.04 0 10.937 4.897 10.937 10.937h5.834c0-9.262-7.509-16.77-16.771-16.77v5.833Zm-7.292 0h7.292v-5.833h-7.292v5.833ZM27.85 10.5a3.705 3.705 0 0 0-5.3 0l4.168 4.081a2.129 2.129 0 0 1-3.036 0l4.168-4.08Zm0 5.237a3.746 3.746 0 0 0 0-5.237l-4.168 4.081a2.087 2.087 0 0 1 0-2.926l4.168 4.082ZM17.7 26.103l10.15-10.366-4.168-4.082-10.15 10.367 4.168 4.08Zm-5.3 0a3.705 3.705 0 0 0 5.3 0l-4.168-4.082a2.128 2.128 0 0 1 3.036 0L12.4 26.103Zm-4.25-4.34 4.25 4.34 4.168-4.082-4.25-4.34-4.168 4.081Zm0-5.237a3.746 3.746 0 0 0 0 5.236l4.168-4.08c.798.814.798 2.11 0 2.925L8.15 16.526Zm5.3 0a3.705 3.705 0 0 0-5.3 0l4.168 4.081a2.128 2.128 0 0 1-3.036 0l4.168-4.08Zm3.684 3.762-3.684-3.762-4.168 4.081 3.684 3.763 4.168-4.082ZM22.55 10.5l-9.584 9.788 4.168 4.082 9.584-9.789L22.55 10.5Z" mask="url(#ea)"/></svg><svg viewbox="0 0 22 22" id="facebook" xmlns="http://www.w3.org/2000/svg"><path d="M17 1h-3a5 5 0 0 0-5 5v3H6v4h3v8h4v-8h3l1-4h-4V6a1 1 0 0 1 1-1h3V1Z" stroke-width="2" stroke-linecap="round" stroke-linejoin="round"/></svg><svg viewbox="0 0 22 22" id="instagram" xmlns="http://www.w3.org/2000/svg"><path fill-rule="evenodd" clip-rule="evenodd" d="M6.05 2.1A3.95 3.95 0 0 0 2.1 6.05v9.9a3.95 3.95 0 0 0 3.95 3.95h9.9a3.95 3.95 0 0 0 3.95-3.95v-9.9a3.95 3.95 0 0 0-3.95-3.95h-9.9ZM.1 6.05A5.95 5.95 0 0 1 6.05.1h9.9a5.95 5.95 0 0 1 5.95 5.95v9.9a5.95 5.95 0 0 1-5.95 5.95h-9.9A5.95 5.95 0 0 1 .1 15.95v-9.9Zm11.377 1.98a2.96 2.96 0 1 0-.868 5.855 2.96 2.96 0 0 0 .868-5.856ZM8.758 6.554a4.96 4.96 0 1 1 4.57 8.805 4.96 4.96 0 0 1-4.57-8.805Zm7.687-2a1 1 0 1 0 0 2h.01a1 1 0 1 0 0-2h-.01Z"/></svg><svg viewbox="0 0 19 19" id="star" xmlns="http://www.w3.org/2000/svg"><path d="m12.233 6.548 5.038.4-4.018 3.616-.464.418.171.6 1.616 5.654-4.808-3.205-.555-.37-.554.37-4.822 3.214 1.32-5.715.126-.548-.403-.393-3.733-3.64 5.047-.401.59-.047.242-.538L9.213 1.12l2.188 4.842.243.538.589.047Zm-11.217.274Zm-.051.141Z" stroke-width="2"/></svg><svg viewbox="0 0 22 22" id="twitter" xmlns="http://www.w3.org/2000/svg"><path d="M21 1.011a9.294 9.294 0 0 1-2.855 1.706c-.547-.772-1.275-1.32-2.084-1.568a3.369 3.369 0 0 0-2.44.18c-.78.364-1.45 1.013-1.918 1.86A5.829 5.829 0 0 0 11 6.06v1.115c-1.598.05-3.18-.384-4.608-1.265-1.428-.88-2.655-2.18-3.574-3.784 0 0-3.636 10.031 4.546 14.49C5.49 18.174 3.26 18.956 1 18.845c8.182 5.573 18.182 0 18.182-12.818-.001-.31-.025-.62-.073-.925.928-1.122 1.583-2.538 1.891-4.09v0Z" stroke-width="2" stroke-linecap="round" stroke-linejoin="round"/></svg></svg>