<?xml version="1.0" encoding="utf-8"?><svg viewBox="0 0 38 38" xmlns="http://www.w3.org/2000/svg" xmlns:xlink="http://www.w3.org/1999/xlink"><style>:root>svg{display:none}:root>svg:target{display:block}</style><svg viewBox="0 0 18 18" id="check-mark" xmlns="http://www.w3.org/2000/svg"><path fill-rule="evenodd" clip-rule="evenodd" d="M9 18A9 9 0 1 0 9 0a9 9 0 0 0 0 18Zm-.47-5.97 5-5-1.06-1.06L8 10.44 5.53 7.97 4.47 9.03l3 3 .53.53.53-.53Z"/></svg><svg viewBox="0 0 9 14" id="chevron-left" xmlns="http://www.w3.org/2000/svg"><path d="M8 13 2 7l6-6"/></svg><svg viewBox="0 0 9 14" id="chevron-right" xmlns="http://www.w3.org/2000/svg"><path d="m1 13 6-6-6-6"/></svg><svg viewBox="0 0 30 30" id="exclamation-point" xmlns="http://www.w3.org/2000/svg"><path fill-rule="evenodd" clip-rule="evenodd" d="M6 0a6 6 0 0 0-6 6v18a6 6 0 0 0 6 6h18a6 6 0 0 0 6-6V6a6 6 0 0 0-6-6H6Zm11.1 7.424h-4.2l1.033 11.064h2.136L17.1 7.424Zm-.215 12.264H13.14V23h3.744v-3.312Z"/></svg><svg fill="none" viewBox="0 0 38 38" id="facebook-icon" xmlns="http://www.w3.org/2000/svg"><rect width="38" height="38" rx="19" fill="#F3F6FF"/><path d="M20.283 22.75c0 1.357-.003 2.709.003 4.064 0 .149-.037.19-.174.186-1.067-.007-2.13-.007-3.197 0-.147 0-.193-.037-.193-.203.006-2.687.003-5.371.003-8.059 0-.27.028-.236-.228-.24-.452 0-.904-.003-1.357.004-.109 0-.14-.037-.14-.155.003-.853.003-1.71 0-2.563 0-.118.031-.155.14-.152.474.007.945-.003 1.42.007.127.003.168-.034.168-.179-.006-.718 0-1.44-.003-2.158-.003-.597.08-1.173.358-1.7.3-.573.749-.967 1.304-1.224.468-.215.96-.317 1.466-.347 1.001-.06 2.005-.01 3.007-.03.112-.004.14.04.14.155-.003.887-.003 1.777 0 2.664 0 .135-.047.155-.156.155-.577-.003-1.154-.003-1.73-.003-.481 0-.828.374-.828.886 0 .53.007 1.056-.003 1.585-.003.152.044.19.178.19.79-.007 1.582 0 2.37-.007.132 0 .175.04.16.182-.047.435-.088.87-.131 1.305-.04.418-.11.833-.172 1.247-.019.118-.053.145-.153.145-.677-.003-1.35-.003-2.027 0-.265 0-.228-.037-.228.253.003 1.329.003 2.66.003 3.993Z" fill="#3B5998"/></svg><svg viewBox="0 0 10 13" id="geoposition" xmlns="http://www.w3.org/2000/svg"><path fill-rule="evenodd" clip-rule="evenodd" d="M0 4.936a4.936 4.936 0 0 1 9.871 0c0 1.864-.823 3.586-1.737 4.935a16.827 16.827 0 0 1-2.496 2.857c-.401.363-1.003.363-1.404 0a16.827 16.827 0 0 1-2.497-2.857C.823 8.522 0 6.801 0 4.936Zm4.936-2.194a2.193 2.193 0 1 0 0 4.387 2.193 2.193 0 0 0 0-4.387Z"/></svg><svg viewBox="0 0 14 14" id="phone" xmlns="http://www.w3.org/2000/svg"><path d="M13.6 9.893 10.539 8.58a.656.656 0 0 0-.765.189l-1.357 1.657a10.135 10.135 0 0 1-4.845-4.845l1.657-1.356a.655.655 0 0 0 .189-.766L4.104.397a.66.66 0 0 0-.752-.38L.51.672a.656.656 0 0 0-.509.64C0 8.325 5.685 14 12.688 14a.656.656 0 0 0 .64-.509l.656-2.843a.664.664 0 0 0-.383-.755Z"/></svg><svg viewBox="0 0 20 20" id="rates-icon-1" xmlns="http://www.w3.org/2000/svg"><path fill-rule="evenodd" clip-rule="evenodd" d="M0 2.5A2.5 2.5 0 0 1 2.5 0H5a1 1 0 0 1 0 2H2.5a.5.5 0 0 0-.5.5V5a1 1 0 0 1-2 0V2.5ZM17.5 0A2.5 2.5 0 0 1 20 2.5V5a1 1 0 1 1-2 0V2.5a.5.5 0 0 0-.5-.5H15a1 1 0 1 1 0-2h2.5ZM0 17.5A2.5 2.5 0 0 0 2.5 20H5a1 1 0 1 0 0-2H2.5a.5.5 0 0 1-.5-.5V15a1 1 0 1 0-2 0v2.5ZM17.5 20a2.5 2.5 0 0 0 2.5-2.5V15a1 1 0 1 0-2 0v2.5a.5.5 0 0 1-.5.5H15a1 1 0 1 0 0 2h2.5ZM4.207 9.953c.23-.326.588-.766 1.082-1.206C6.271 7.875 7.793 7 10 7c2.207 0 3.73.875 4.71 1.747.495.44.852.88 1.083 1.206l.033.047-.033.047a7.198 7.198 0 0 1-1.082 1.206C13.729 12.125 12.207 13 10 13c-2.207 0-3.73-.875-4.71-1.747a7.194 7.194 0 0 1-1.083-1.206L4.174 10l.033-.047ZM17 10l.894.448v.001l-.002.002-.003.006-.008.016a3.024 3.024 0 0 1-.115.207c-.077.13-.19.31-.34.523-.3.424-.756.984-1.387 1.544C14.771 13.875 12.793 15 10 15c-2.793 0-4.77-1.125-6.04-2.253a9.192 9.192 0 0 1-1.385-1.544 7.524 7.524 0 0 1-.456-.73l-.008-.016-.003-.006-.001-.002h-.001c0-.001 0-.002.894-.449a94.522 94.522 0 0 1-.894-.448V9.55l.002-.002.003-.006.008-.016a3.327 3.327 0 0 1 .115-.207c.077-.13.19-.31.34-.523.3-.424.756-.984 1.387-1.544C5.229 6.125 7.207 5 10 5c2.793 0 4.77 1.125 6.04 2.253.63.56 1.085 1.12 1.385 1.544a7.485 7.485 0 0 1 .456.73l.008.016.003.006.002.002c0 .001 0 .002-.894.449ZM3 10l-.894.447a1 1 0 0 1 0-.894L3 10Zm14.894.447L17 10l.894-.447a1 1 0 0 1 0 .894Zm-14.002.004ZM10 8a2 2 0 1 0 0 4 2 2 0 0 0 0-4Z"/></svg><svg viewBox="0 0 20 20" id="rates-icon-2" xmlns="http://www.w3.org/2000/svg"><path fill-rule="evenodd" clip-rule="evenodd" d="M2.5 20A2.5 2.5 0 0 1 0 17.5V15a1 1 0 1 1 2 0v2.5a.5.5 0 0 0 .5.5H5a1 1 0 1 1 0 2H2.5Zm0-20A2.5 2.5 0 0 0 0 2.5V5a1 1 0 0 0 2 0V2.5a.5.5 0 0 1 .5-.5H5a1 1 0 0 0 0-2H2.5ZM20 17.5a2.5 2.5 0 0 1-2.5 2.5H15a1 1 0 1 1 0-2h2.5a.5.5 0 0 0 .5-.5V15a1 1 0 1 1 2 0v2.5ZM17.5 0A2.5 2.5 0 0 1 20 2.5V5a1 1 0 1 1-2 0V2.5a.5.5 0 0 0-.5-.5H15a1 1 0 1 1 0-2h2.5ZM9 19a1 1 0 1 0 2 0V1a1 1 0 1 0-2 0v18Z"/></svg><svg viewBox="0 0 20 16" id="rates-icon-3" xmlns="http://www.w3.org/2000/svg"><path fill-rule="evenodd" clip-rule="evenodd" d="M10 8a3 3 0 0 0-3 3v4a1 1 0 1 1-2 0v-4.036a3.525 3.525 0 0 1-.826.021c-.057.01-.115.015-.174.015h-.429C2.704 11 2 11.704 2 12.571V14a1 1 0 1 1-2 0v-1.429c0-1.27.664-2.386 1.664-3.02a3.5 3.5 0 0 1 4.35-5.208 4 4 0 1 1 7.97 0 3.5 3.5 0 0 1 4.35 5.208 3.569 3.569 0 0 1 1.666 3.02V14a1 1 0 1 1-2 0v-1.429c0-.867-.704-1.571-1.571-1.571H16c-.06 0-.117-.005-.174-.015a3.557 3.557 0 0 1-.826-.02V15a1 1 0 1 1-2 0v-4a3 3 0 0 0-3-3Zm0-2a2 2 0 1 1 0-4 2 2 0 0 1 0 4ZM4.5 6a1.5 1.5 0 1 0 0 3 1.5 1.5 0 0 0 0-3Zm11 0a1.5 1.5 0 1 0 0 3 1.5 1.5 0 0 0 0-3Z"/></svg><svg viewBox="0 0 20 20" id="rates-icon-4" xmlns="http://www.w3.org/2000/svg"><path fill-rule="evenodd" clip-rule="evenodd" d="M3.81 2.5c0-.276.212-.5.476-.5h9.368c-.206.455-.32.963-.32 1.5V5h1.904-1.905V15.588c0 1.332-1.028 2.412-2.296 2.412-1.269 0-2.297-1.08-2.297-2.412V14.05c0-.58-.447-1.05-1-1.05H3.81V2.499Zm11.428 9.278v3.81c0 2.437-1.88 4.412-4.201 4.412H5.714C2.597 20 0 17.349 0 14.05 0 13.47.448 13 1 13h.905V2.499C1.905 1.12 2.97 0 4.285 0h12.382C18.507 0 20 1.567 20 3.5v2.45C20 6.53 19.552 7 19 7h-3.762V11.778Zm0-6.778V3.5c0-.828.64-1.5 1.429-1.5s1.428.672 1.428 1.5V5h-2.857ZM6.835 15.588c0 .89.251 1.719.683 2.412H5.714c-1.775 0-3.282-1.285-3.696-3h4.817v.588ZM5.715 8c-.527 0-.953.448-.953 1s.426 1 .952 1h5.715c.526 0 .952-.448.952-1s-.426-1-.952-1H5.714Zm-.953-3c0-.552.426-1 .952-1h5.715c.526 0 .952.448.952 1s-.426 1-.952 1H5.714c-.526 0-.952-.448-.952-1Z"/></svg><svg viewBox="0 0 20 20" id="rates-icon-5" xmlns="http://www.w3.org/2000/svg"><path fill-rule="evenodd" clip-rule="evenodd" d="M18 10a8 8 0 1 1-16 0 8 8 0 0 1 16 0Zm-1.671 7.743A9.958 9.958 0 0 1 10 20a9.959 9.959 0 0 1-6.329-2.257l-1.964 1.964a1 1 0 0 1-1.414-1.414l1.964-1.964A9.958 9.958 0 0 1 0 10C0 4.477 4.477 0 10 0s10 4.477 10 10a9.958 9.958 0 0 1-2.257 6.329l1.964 1.964a1 1 0 0 1-1.414 1.414l-1.964-1.964ZM13 10a3 3 0 1 1-6 0 3 3 0 0 1 6 0Zm2 0a5 5 0 1 1-10 0 5 5 0 0 1 10 0Z"/></svg><svg fill="none" viewBox="0 0 38 38" id="telegram-icon" xmlns="http://www.w3.org/2000/svg"><rect width="38" height="38" rx="19" fill="#F3F6FF"/><path d="m16.524 25.971.31-4.754 8.523-7.778c.377-.349-.078-.518-.577-.214l-10.52 6.733-4.55-1.461c-.976-.281-.987-.967.223-1.462l17.72-6.924c.81-.37 1.588.203 1.277 1.462L25.912 25.97c-.211 1.023-.821 1.27-1.665.799l-4.594-3.44-2.208 2.17c-.255.258-.466.471-.921.471Z" fill="#08C"/></svg><svg fill="none" viewBox="0 0 38 38" id="twitter-icon" xmlns="http://www.w3.org/2000/svg"><rect width="38" height="38" rx="19" fill="#F3F6FF"/><path fill-rule="evenodd" clip-rule="evenodd" d="M29 12.13a7.56 7.56 0 0 1-2.356.716c.847-.562 1.498-1.453 1.804-2.513-.793.52-1.67.898-2.607 1.101-.747-.883-1.814-1.434-2.995-1.434-2.264 0-4.101 2.035-4.101 4.544 0 .356.035.702.105 1.035-3.41-.19-6.432-1.997-8.458-4.75a4.918 4.918 0 0 0-.555 2.287c0 1.576.725 2.967 1.826 3.782a3.808 3.808 0 0 1-1.86-.567v.056c0 2.203 1.415 4.04 3.293 4.456a3.64 3.64 0 0 1-1.081.16c-.264 0-.523-.027-.773-.08.522 1.804 2.037 3.118 3.833 3.153-1.404 1.22-3.174 1.947-5.096 1.947-.331 0-.659-.021-.979-.063 1.816 1.287 3.974 2.04 6.29 2.04 7.548 0 11.674-6.923 11.674-12.928 0-.198-.003-.396-.01-.59A8.848 8.848 0 0 0 29 12.132Z" fill="#1DA1F2"/></svg><svg fill="none" viewBox="0 0 38 38" id="vk-icon" xmlns="http://www.w3.org/2000/svg"><rect width="38" height="38" rx="19" fill="#F3F6FF"/><path d="M8.743 12h2.6c.33 0 .587.232.697.541.33 1.006 1.062 3.21 1.905 4.719 1.135 1.972 1.868 2.707 2.344 2.63.476-.117.33-1.431.33-2.476 0-1.044.11-2.823-.366-3.635l-.733-1.121c-.183-.271 0-.62.293-.62h4.176c.403 0 .733.349.733.774v5.608s.183 1.005 1.209-.039c1.025-1.044 2.124-2.978 3.04-4.95l.366-.928a.724.724 0 0 1 .66-.464h2.71c.514 0 .88.541.697 1.044l-.293.812s-.99 2.088-2.015 3.558c-1.026 1.508-1.246 1.856-1.1 2.243.147.387 2.785 2.978 3.444 4.216.183.348.33.657.476.928.257.503-.11 1.16-.659 1.16H26.18a.704.704 0 0 1-.623-.387l-.293-.503s-1.868-2.32-3.004-3.055c-1.172-.696-1.135.31-1.135.31v2.05c0 .85-.66 1.546-1.466 1.546h-.732s-4.03 0-7.253-5.066c-2.528-3.945-3.37-6.497-3.664-7.967-.073-.464.257-.928.733-.928Z" fill="#07F"/></svg></svg>