<svg width="17" height="16" viewBox="0 0 17 16" fill="none" xmlns="http://www.w3.org/2000/svg">
<path fill-rule="evenodd" clip-rule="evenodd" d="M0.5625 8C0.5625 12.1421 4.06028 15.5 8.375 15.5C12.6897 15.5 16.1875 12.1421 16.1875 8C16.1875 3.85786 12.6897 0.5 8.375 0.5C4.06028 0.5 0.5625 3.85786 0.5625 8ZM12.0759 6.25679C12.3675 5.95145 12.346 5.47703 12.0279 5.19713C11.7098 4.91724 11.2157 4.93787 10.9241 5.24321L7.23114 9.11074L5.85017 7.51986C5.57395 7.20165 5.08132 7.15866 4.74986 7.42383C4.41839 7.68901 4.37361 8.16193 4.64983 8.48014L6.60295 10.7301C6.74726 10.8964 6.95933 10.9947 7.18469 10.9998C7.41004 11.0049 7.62671 10.9163 7.77903 10.7568L12.0759 6.25679Z" fill="#89C440"/>
</svg>
