<svg width="148" height="148" fill="none" xmlns="http://www.w3.org/2000/svg"><g clip-path="url(#a)"><circle opacity=".3" cx="74" cy="74" r="71" stroke="#F89828" stroke-width="6"/><path d="M74 142c37.555 0 68-30.445 68-68S111.555 6 74 6V0c40.869 0 74 33.13 74 74 0 40.869-33.131 74-74 74-40.87 0-74-33.131-74-74 0-22.651 10.177-42.926 26.209-56.5L30 22.152C15.317 34.625 6 53.225 6 74c0 37.555 30.445 68 68 68Z" fill="#F89828"/><path d="M49.373 74.096a9.73 9.73 0 0 0 1.536-.128c.533-.107.928-.245 1.184-.416v-.544a.942.942 0 0 0 .032-.224 16.33 16.33 0 0 0-.192-2.144c-.107-.683-.288-1.27-.544-1.76a2.856 2.856 0 0 0-1.056-1.184c-.427-.299-.96-.448-1.6-.448-.512 0-.96.107-1.344.32-.384.213-.693.49-.928.832a4.193 4.193 0 0 0-.544 1.12c-.107.405-.16.8-.16 1.184 0 1.152.277 2.005.832 2.56.576.555 1.504.832 2.784.832Zm2.336 3.104c-.448.213-.95.373-1.504.48a8.902 8.902 0 0 1-1.376.128c-1.387 0-2.57-.16-3.552-.48-.981-.341-1.792-.81-2.432-1.408a5.776 5.776 0 0 1-1.376-2.208c-.299-.853-.448-1.792-.448-2.816 0-.853.139-1.728.416-2.624a7.246 7.246 0 0 1 1.376-2.432c.619-.747 1.397-1.355 2.336-1.824.96-.49 2.112-.736 3.456-.736 2.752 0 4.821.853 6.208 2.56 1.408 1.685 2.112 4.117 2.112 7.296 0 2.09-.277 3.936-.832 5.536-.533 1.6-1.376 2.944-2.528 4.032-1.13 1.088-2.581 1.92-4.352 2.496-1.77.555-3.872.843-6.304.864a56.101 56.101 0 0 0-.096-1.984c-.043-.64-.085-1.301-.128-1.984a24.951 24.951 0 0 0 3.296-.256c.981-.17 1.845-.437 2.592-.8a5.95 5.95 0 0 0 1.888-1.504c.533-.619.95-1.397 1.248-2.336Zm23.563 2.624c0 .96-.17 1.845-.512 2.656-.32.79-.81 1.483-1.472 2.08-.66.597-1.493 1.067-2.495 1.408-.982.32-2.123.48-3.425.48-1.493 0-2.74-.203-3.743-.608-.982-.427-1.782-.95-2.4-1.568-.598-.619-1.025-1.29-1.28-2.016-.257-.747-.385-1.43-.385-2.048 0-.64.086-1.227.256-1.76a5.36 5.36 0 0 1 .704-1.44c.3-.448.63-.853.992-1.216.385-.363.79-.704 1.216-1.024-.917-.747-1.6-1.483-2.047-2.208-.427-.725-.64-1.653-.64-2.784 0-.853.17-1.675.512-2.464a6.219 6.219 0 0 1 1.504-2.048 6.963 6.963 0 0 1 2.303-1.408c.918-.363 1.931-.544 3.04-.544 1.302 0 2.411.192 3.328.576.94.363 1.707.832 2.305 1.408a5.012 5.012 0 0 1 1.28 1.952 5.73 5.73 0 0 1 .415 2.112 5.376 5.376 0 0 1-.831 2.88c-.534.875-1.206 1.568-2.017 2.08 1.217.79 2.08 1.621 2.593 2.496.533.853.8 1.856.8 3.008Zm-11.072.192c0 .256.054.544.16.864.129.299.32.576.576.832.256.256.587.47.992.64.406.17.897.256 1.472.256 1.11 0 1.92-.267 2.432-.8.513-.533.769-1.13.769-1.792 0-.49-.118-.928-.352-1.312a3.041 3.041 0 0 0-.896-.992 5.636 5.636 0 0 0-1.376-.768 15.036 15.036 0 0 0-1.665-.64 6.55 6.55 0 0 0-1.504 1.568c-.405.597-.608 1.312-.608 2.144Zm5.92-10.528c0-.235-.053-.48-.16-.736a1.857 1.857 0 0 0-.48-.768 2.408 2.408 0 0 0-.832-.576c-.34-.17-.757-.256-1.248-.256-.469 0-.874.075-1.216.224a2.53 2.53 0 0 0-.864.608 2.44 2.44 0 0 0-.48.768c-.106.277-.16.544-.16.8 0 .683.246 1.323.736 1.92.513.597 1.377 1.11 2.593 1.536.682-.427 1.205-.917 1.567-1.472.363-.555.545-1.237.545-2.048Zm18.828.032c0 2.005-.512 3.541-1.536 4.608-1.024 1.067-2.4 1.6-4.128 1.6-1.728 0-3.104-.533-4.128-1.6-1.024-1.067-1.536-2.603-1.536-4.608 0-2.005.512-3.541 1.536-4.608 1.024-1.067 2.4-1.6 4.128-1.6 1.728 0 3.104.533 4.128 1.6 1.024 1.067 1.536 2.603 1.536 4.608Zm-3.616 0c0-1.088-.192-1.877-.576-2.368-.384-.49-.875-.736-1.472-.736a1.82 1.82 0 0 0-1.504.736c-.363.49-.544 1.28-.544 2.368 0 1.088.181 1.888.544 2.4.384.49.885.736 1.504.736.597 0 1.088-.245 1.472-.736.384-.512.576-1.312.576-2.4Zm9.856-5.696h4.448L87.124 86h-4.448l12.512-22.176Zm9.568 16.48c0 2.005-.512 3.541-1.536 4.608-1.024 1.067-2.4 1.6-4.128 1.6-1.728 0-3.104-.533-4.128-1.6-1.024-1.067-1.536-2.603-1.536-4.608 0-2.005.512-3.541 1.536-4.608 1.024-1.067 2.4-1.6 4.128-1.6 1.728 0 3.104.533 4.128 1.6 1.024 1.067 1.536 2.603 1.536 4.608Zm-3.616 0c0-1.088-.192-1.877-.576-2.368-.384-.49-.875-.736-1.472-.736a1.82 1.82 0 0 0-1.504.736c-.363.49-.544 1.28-.544 2.368 0 1.088.181 1.888.544 2.4.384.49.885.736 1.504.736.597 0 1.088-.245 1.472-.736.384-.512.576-1.312.576-2.4Z" fill="#1E212C"/></g><defs><clipPath id="a"><path fill="#fff" d="M0 0h148v148H0z"/></clipPath></defs></svg>