<svg width="148" height="148" fill="none" xmlns="http://www.w3.org/2000/svg"><g clip-path="url(#a)"><circle cx="74" cy="74" r="71" stroke="#03CEA4" stroke-width="6"/><path d="M33.271 68.432a36.205 36.205 0 0 0 1.92-.864 29.474 29.474 0 0 0 1.984-1.088c.64-.405 1.248-.821 1.824-1.248.598-.448 1.13-.917 1.6-1.408h3.328V86H39.16V70.032c-.64.427-1.354.821-2.144 1.184-.79.341-1.557.64-2.304.896l-1.44-3.68Zm33.036 6.432c0 3.733-.715 6.603-2.144 8.608-1.408 1.984-3.36 2.976-5.856 2.976s-4.459-.992-5.888-2.976c-1.408-2.005-2.112-4.875-2.112-8.608 0-1.856.181-3.499.544-4.928.384-1.43.928-2.635 1.632-3.616.704-.981 1.546-1.728 2.528-2.24.981-.512 2.08-.768 3.296-.768 2.496 0 4.448 1.003 5.856 3.008 1.43 1.984 2.144 4.832 2.144 8.544Zm-4.864 0c0-1.11-.054-2.112-.16-3.008-.107-.917-.278-1.707-.512-2.368-.235-.661-.555-1.173-.96-1.536-.406-.363-.907-.544-1.504-.544-.598 0-1.099.181-1.504.544-.384.363-.704.875-.96 1.536-.235.661-.406 1.45-.512 2.368a25.55 25.55 0 0 0-.16 3.008c0 1.11.053 2.123.16 3.04.106.917.277 1.707.512 2.368.256.661.576 1.173.96 1.536.405.363.906.544 1.504.544.597 0 1.098-.181 1.504-.544.405-.363.725-.875.96-1.536.234-.661.405-1.45.512-2.368.106-.917.16-1.93.16-3.04Zm23.051 0c0 3.733-.714 6.603-2.144 8.608-1.408 1.984-3.36 2.976-5.856 2.976s-4.458-.992-5.888-2.976c-1.408-2.005-2.112-4.875-2.112-8.608 0-1.856.182-3.499.544-4.928.384-1.43.928-2.635 1.632-3.616.704-.981 1.547-1.728 2.528-2.24.982-.512 2.08-.768 3.296-.768 2.496 0 4.448 1.003 5.856 3.008 1.43 1.984 2.144 4.832 2.144 8.544Zm-4.864 0c0-1.11-.053-2.112-.16-3.008-.106-.917-.277-1.707-.512-2.368-.234-.661-.554-1.173-.96-1.536-.405-.363-.906-.544-1.504-.544-.597 0-1.098.181-1.504.544-.384.363-.704.875-.96 1.536-.234.661-.405 1.45-.512 2.368-.106.896-.16 1.899-.16 3.008 0 1.11.054 2.123.16 3.04.107.917.278 1.707.512 2.368.256.661.576 1.173.96 1.536.406.363.907.544 1.504.544.598 0 1.099-.181 1.504-.544.406-.363.726-.875.96-1.536.235-.661.406-1.45.512-2.368.107-.917.16-1.93.16-3.04Zm18.412-5.344c0 2.005-.512 3.541-1.536 4.608-1.024 1.067-2.4 1.6-4.128 1.6-1.728 0-3.104-.533-4.128-1.6-1.024-1.067-1.536-2.603-1.536-4.608 0-2.005.512-3.541 1.536-4.608 1.024-1.067 2.4-1.6 4.128-1.6 1.728 0 3.104.533 4.128 1.6 1.024 1.067 1.536 2.603 1.536 4.608Zm-3.616 0c0-1.088-.192-1.877-.576-2.368-.384-.49-.875-.736-1.472-.736a1.82 1.82 0 0 0-1.504.736c-.363.49-.544 1.28-.544 2.368 0 1.088.181 1.888.544 2.4.384.49.885.736 1.504.736.597 0 1.088-.245 1.472-.736.384-.512.576-1.312.576-2.4Zm9.856-5.696h4.448L96.218 86H91.77l12.512-22.176Zm9.568 16.48c0 2.005-.512 3.541-1.536 4.608-1.024 1.067-2.4 1.6-4.128 1.6-1.728 0-3.104-.533-4.128-1.6-1.024-1.067-1.536-2.603-1.536-4.608 0-2.005.512-3.541 1.536-4.608 1.024-1.067 2.4-1.6 4.128-1.6 1.728 0 3.104.533 4.128 1.6 1.024 1.067 1.536 2.603 1.536 4.608Zm-3.616 0c0-1.088-.192-1.877-.576-2.368-.384-.49-.875-.736-1.472-.736a1.82 1.82 0 0 0-1.504.736c-.363.49-.544 1.28-.544 2.368 0 1.088.181 1.888.544 2.4.384.49.885.736 1.504.736.597 0 1.088-.245 1.472-.736.384-.512.576-1.312.576-2.4Z" fill="#1E212C"/></g><defs><clipPath id="a"><path fill="#fff" d="M0 0h148v148H0z"/></clipPath></defs></svg>