<svg width="148" height="148" fill="none" xmlns="http://www.w3.org/2000/svg"><g clip-path="url(#a)"><circle opacity=".3" cx="74" cy="74" r="71" stroke="#F52F6E" stroke-width="6"/><path d="M74 142c37.555 0 68-30.445 68-68S111.555 6 74 6V0c40.869 0 74 33.13 74 74 0 40.869-33.131 74-74 74-40.87 0-74-33.131-74-74h6c0 37.555 30.445 68 68 68Z" fill="#F52F6E"/><path d="M71.184 69.648c0 .81-.16 1.59-.48 2.336a11.2 11.2 0 0 1-1.247 2.176 18.543 18.543 0 0 1-1.728 1.984c-.64.64-1.27 1.248-1.888 1.824-.32.299-.672.64-1.056 1.024-.363.363-.715.736-1.056 1.12-.342.384-.651.747-.928 1.088-.257.32-.416.587-.48.8h9.535v4H57.073a5.155 5.155 0 0 1-.065-.896v-.768c0-1.024.16-1.963.48-2.816a10.71 10.71 0 0 1 1.313-2.368c.533-.747 1.13-1.44 1.791-2.08.683-.64 1.355-1.28 2.017-1.92.511-.49.991-.95 1.44-1.376a20.51 20.51 0 0 0 1.183-1.28c.342-.427.609-.843.8-1.248a3.08 3.08 0 0 0 .288-1.28c0-.939-.266-1.6-.8-1.984-.533-.384-1.194-.576-1.983-.576a4.61 4.61 0 0 0-1.633.288c-.49.17-.949.384-1.376.64-.405.235-.757.48-1.056.736a7.903 7.903 0 0 0-.672.576l-2.367-3.328a11.862 11.862 0 0 1 3.264-2.144 9.574 9.574 0 0 1 4.031-.864c1.302 0 2.422.15 3.36.448.94.299 1.707.725 2.305 1.28a4.57 4.57 0 0 1 1.344 1.984c.298.768.448 1.643.448 2.624Zm19.404 5.216c0 3.733-.715 6.603-2.144 8.608-1.408 1.984-3.36 2.976-5.856 2.976s-4.459-.992-5.888-2.976c-1.408-2.005-2.112-4.875-2.112-8.608 0-1.856.181-3.499.544-4.928.384-1.43.928-2.635 1.632-3.616.704-.981 1.547-1.728 2.528-2.24.981-.512 2.08-.768 3.296-.768 2.496 0 4.448 1.003 5.856 3.008 1.43 1.984 2.144 4.832 2.144 8.544Zm-4.864 0c0-1.11-.053-2.112-.16-3.008-.107-.917-.277-1.707-.512-2.368-.235-.661-.555-1.173-.96-1.536-.405-.363-.907-.544-1.504-.544s-1.099.181-1.504.544c-.384.363-.704.875-.96 1.536-.235.661-.405 1.45-.512 2.368a25.55 25.55 0 0 0-.16 3.008c0 1.11.053 2.123.16 3.04.107.917.277 1.707.512 2.368.256.661.576 1.173.96 1.536.405.363.907.544 1.504.544s1.099-.181 1.504-.544c.405-.363.725-.875.96-1.536s.405-1.45.512-2.368c.107-.917.16-1.93.16-3.04Z" fill="#1E212C"/></g><defs><clipPath id="a"><path fill="#fff" d="M0 0h148v148H0z"/></clipPath></defs></svg>