<svg width="148" height="148" fill="none" xmlns="http://www.w3.org/2000/svg"><g clip-path="url(#a)"><circle opacity=".3" cx="74" cy="74" r="71" stroke="#5A87FC" stroke-width="6"/><path d="M74 142c37.555 0 68-30.445 68-68S111.555 6 74 6V0c40.869 0 74 33.13 74 74 0 40.869-33.131 74-74 74-40.87 0-74-33.131-74-74 0-11.858 2.79-23.065 7.747-33l5.46 2.5C8.597 52.673 6 63.033 6 74c0 37.555 30.445 68 68 68Z" fill="#5A87FC"/><path d="M46.373 74.096a9.73 9.73 0 0 0 1.536-.128c.533-.107.928-.245 1.184-.416v-.544a.942.942 0 0 0 .032-.224 16.33 16.33 0 0 0-.192-2.144c-.107-.683-.288-1.27-.544-1.76a2.856 2.856 0 0 0-1.056-1.184c-.427-.299-.96-.448-1.6-.448-.512 0-.96.107-1.344.32-.384.213-.693.49-.928.832a4.193 4.193 0 0 0-.544 1.12c-.107.405-.16.8-.16 1.184 0 1.152.277 2.005.832 2.56.576.555 1.504.832 2.784.832Zm2.336 3.104c-.448.213-.95.373-1.504.48a8.902 8.902 0 0 1-1.376.128c-1.387 0-2.57-.16-3.552-.48-.981-.341-1.792-.81-2.432-1.408a5.776 5.776 0 0 1-1.376-2.208c-.299-.853-.448-1.792-.448-2.816 0-.853.139-1.728.416-2.624a7.246 7.246 0 0 1 1.376-2.432c.619-.747 1.397-1.355 2.336-1.824.96-.49 2.112-.736 3.456-.736 2.752 0 4.821.853 6.208 2.56 1.408 1.685 2.112 4.117 2.112 7.296 0 2.09-.277 3.936-.832 5.536-.533 1.6-1.376 2.944-2.528 4.032-1.13 1.088-2.581 1.92-4.352 2.496-1.77.555-3.872.843-6.304.864a56.101 56.101 0 0 0-.096-1.984c-.043-.64-.085-1.301-.128-1.984a24.951 24.951 0 0 0 3.296-.256c.981-.17 1.845-.437 2.592-.8a5.95 5.95 0 0 0 1.888-1.504c.533-.619.95-1.397 1.248-2.336Zm16.811-7.552a221.781 221.781 0 0 0-2.655 3.552 24.389 24.389 0 0 0-2.369 3.936h5.024v-7.488Zm4.672-5.824v13.312h2.369v3.904h-2.369V86h-4.671v-4.96h-9.569v-3.488a47.794 47.794 0 0 1 1.76-3.168 60.865 60.865 0 0 1 2.336-3.648 66.024 66.024 0 0 1 2.752-3.68 40 40 0 0 1 2.88-3.232h4.512ZM85.02 79.472c0-.619-.139-1.163-.416-1.632-.277-.49-.757-.896-1.44-1.216-.683-.32-1.6-.565-2.752-.736-1.152-.17-2.603-.256-4.352-.256.235-1.984.427-4 .576-6.048.15-2.048.267-3.968.352-5.76h12v4h-8a69.205 69.205 0 0 1-.16 2.24 32.097 32.097 0 0 1-.16 1.856c3.115.213 5.408.95 6.88 2.208 1.493 1.237 2.24 2.965 2.24 5.184a7.362 7.362 0 0 1-.544 2.848 6.127 6.127 0 0 1-1.632 2.272c-.725.64-1.643 1.141-2.752 1.504-1.088.363-2.368.544-3.84.544a13.88 13.88 0 0 1-1.824-.128 17.09 17.09 0 0 1-1.824-.288 19.463 19.463 0 0 1-1.568-.352c-.47-.128-.832-.256-1.088-.384l.864-3.936c.533.235 1.237.47 2.112.704.875.213 1.92.32 3.136.32 1.472 0 2.539-.288 3.2-.864.661-.597.992-1.29.992-2.08Zm22.54-9.824c0 .81-.16 1.59-.48 2.336a11.2 11.2 0 0 1-1.248 2.176 18.543 18.543 0 0 1-1.728 1.984c-.64.64-1.27 1.248-1.888 1.824-.32.299-.672.64-1.056 1.024-.363.363-.715.736-1.056 1.12-.342.384-.651.747-.928 1.088-.257.32-.416.587-.48.8h9.536v4H93.448a5.155 5.155 0 0 1-.064-.896v-.768c0-1.024.16-1.963.48-2.816.34-.853.778-1.643 1.311-2.368a15.1 15.1 0 0 1 1.793-2.08c.682-.64 1.354-1.28 2.016-1.92.512-.49.992-.95 1.44-1.376.448-.448.842-.875 1.184-1.28.341-.427.608-.843.8-1.248.192-.427.288-.853.288-1.28 0-.939-.267-1.6-.8-1.984-.534-.384-1.195-.576-1.984-.576a4.61 4.61 0 0 0-1.633.288c-.49.17-.949.384-1.376.64-.405.235-.757.48-1.056.736a7.903 7.903 0 0 0-.671.576l-2.368-3.328a11.862 11.862 0 0 1 3.263-2.144 9.575 9.575 0 0 1 4.033-.864c1.301 0 2.421.15 3.36.448.938.299 1.706.725 2.304 1.28a4.583 4.583 0 0 1 1.344 1.984c.298.768.448 1.643.448 2.624Z" fill="#1E212C"/></g><defs><clipPath id="a"><path fill="#fff" d="M0 0h148v148H0z"/></clipPath></defs></svg>