<svg width="32" height="20" fill="none" xmlns="http://www.w3.org/2000/svg"><path d="M.625.625h30.75v15H.625v-15Z" fill="#fff"/><path d="M5.813 9.375a1.25 1.25 0 1 0 0-2.5 1.25 1.25 0 0 0 0 2.5Zm20.375 0a1.25 1.25 0 1 0 0-2.5 1.25 1.25 0 0 0 0 2.5ZM.625 15.625v3.75h30.75v-3.75" fill="#fff"/><path d="M31.375 0H.625A.625.625 0 0 0 0 .625v18.75c0 .345.28.625.625.625h30.75c.345 0 .625-.28.625-.625V.625A.625.625 0 0 0 31.375 0ZM1.25 1.25h29.5V15H1.25V1.25Zm0 17.5v-2.5h29.5v2.5H1.25Z" fill="#4FAD50"/><path d="M5.813 6.25a1.877 1.877 0 0 0-1.875 1.875c0 1.034.84 1.875 1.874 1.875a1.877 1.877 0 0 0 1.875-1.875A1.877 1.877 0 0 0 5.813 6.25Zm0 2.5a.626.626 0 1 1 0-1.251.626.626 0 0 1 0 1.251Zm20.375-2.5a1.877 1.877 0 0 0-1.875 1.875c0 1.034.84 1.875 1.875 1.875a1.877 1.877 0 0 0 1.875-1.875 1.877 1.877 0 0 0-1.875-1.875Zm0 2.5a.626.626 0 1 1 .001-1.251.626.626 0 0 1-.002 1.251Z" fill="#53D0A6"/><path d="M15.813 9.861C17.75 9.861 19 8.815 19 6.95 19 5.412 18.163 4 15.812 4h-1.837c-.525 0-.975.416-.975.908v7.26c0 .454.412.832.875.832.475 0 .875-.39.875-.832V9.861h1.063Zm-1.063-4.26h1.063c1.175 0 1.437.68 1.437 1.336 0 .908-.5 1.324-1.438 1.324H14.75V5.6Z" fill="#168ECD"/></svg>