<svg width="40" height="40" fill="none" xmlns="http://www.w3.org/2000/svg"><path d="M28.588 33.75H16.48c-5.168 0-9.373-4.206-9.373-9.375v-9.61c0-4.805-2.394-9.253-6.406-11.898A1.563 1.563 0 0 1 2.422.258a17.365 17.365 0 0 1 5.476 5.795c.287.321 2.602 2.775 6.396 2.775h17.99c4.908-.091 8.75 4.835 7.466 9.573l-2.07 8.256a9.362 9.362 0 0 1-9.092 7.093ZM9.838 11.07c.26 1.2.395 2.438.395 3.696v9.61a6.257 6.257 0 0 0 6.248 6.25h12.107a6.24 6.24 0 0 0 6.06-4.73l2.072-8.255c.762-2.816-1.52-5.742-4.436-5.688h-17.99c-1.716 0-3.21-.37-4.455-.882ZM15.7 38.048a1.953 1.953 0 0 0-1.952-1.953c-2.591.103-2.59 3.804 0 3.906a1.953 1.953 0 0 0 1.952-1.953Zm15.544 0a1.953 1.953 0 0 0-1.952-1.953c-2.591.103-2.59 3.804 0 3.906a1.953 1.953 0 0 0 1.952-1.953Zm2.602-21.406c0-.863-.7-1.563-1.562-1.563H14.919c-2.072.083-2.07 3.044 0 3.125h17.365c.863 0 1.562-.7 1.562-1.562Z" fill="#333"/></svg>