<svg width="270" height="56" fill="none" xmlns="http://www.w3.org/2000/svg"><path d="m10.984 22.238 25.12-11.183" stroke="#82C2EB" stroke-width=".907" stroke-miterlimit="10"/><path d="M65.233 32.566h-3.469v-4.84h-3.607v4.84h-3.469V20.324h3.469v4.562h3.607v-4.562h3.469v12.242Zm1.094-6.029c0-1.086.166-2.037.501-2.851.334-.814.771-1.493 1.315-2.037a5.432 5.432 0 0 1 1.874-1.233 5.887 5.887 0 0 1 2.176-.42c1.738 0 3.11.532 4.12 1.596 1.009 1.063 1.514 2.626 1.514 4.689 0 .2-.008.423-.023.663-.016.241-.03.454-.047.64H69.89c.078.713.41 1.28 1 1.7.589.419 1.38.627 2.374.627.636 0 1.26-.057 1.874-.174.613-.116 1.112-.26 1.5-.431l.467 2.816a4.74 4.74 0 0 1-.744.28 9.904 9.904 0 0 1-1.037.243c-.38.07-.788.13-1.221.174-.434.047-.87.07-1.303.07-1.102 0-2.06-.164-2.873-.489-.814-.325-1.49-.773-2.025-1.337a5.303 5.303 0 0 1-1.186-2.013 7.868 7.868 0 0 1-.389-2.513Zm8.146-1.326a3.583 3.583 0 0 0-.151-.86 2.172 2.172 0 0 0-.395-.745 2.123 2.123 0 0 0-.675-.536c-.272-.139-.61-.21-1.012-.21-.389 0-.722.067-1 .198-.28.133-.512.307-.698.523a2.34 2.34 0 0 0-.431.757 5.1 5.1 0 0 0-.221.873h4.583Zm15.594-4.887v12.242h-3.491c0-.775.008-1.548.023-2.315.014-.77.03-1.479.047-2.13.016-.65.034-1.22.057-1.711.022-.489.035-.849.035-1.082-.45.636-.9 1.28-1.35 1.933-.45.65-.882 1.292-1.293 1.92-.41.628-.8 1.23-1.163 1.804a43.727 43.727 0 0 0-.966 1.583h-3.049V20.326h3.468a143.107 143.107 0 0 1-.092 5.644c-.016.428-.022.757-.022.99.93-1.366 1.79-2.591 2.573-3.677a49.914 49.914 0 0 1 2.292-2.955h2.931v-.004Zm-5.54-1.677c-.497 0-.974-.074-1.432-.221a4.066 4.066 0 0 1-1.245-.65 3.61 3.61 0 0 1-.919-1.048 3.323 3.323 0 0 1-.431-1.407l2.397-.628c.125.59.33 1.009.617 1.258.289.248.624.372 1.013.372.403 0 .748-.112 1.037-.337.286-.225.493-.648.617-1.268l2.375.628a3.33 3.33 0 0 1-.432 1.409 3.545 3.545 0 0 1-.908 1.035c-.364.28-.78.493-1.245.64a4.879 4.879 0 0 1-1.444.217Zm18.596 7.798c0 .947-.116 1.808-.35 2.583-.233.775-.574 1.444-1.024 2.002a4.609 4.609 0 0 1-1.675 1.303c-.667.31-1.436.464-2.305.464-.48 0-.93-.047-1.35-.14a6.497 6.497 0 0 1-1.21-.396v4.608H91.74v-16.13c.31-.092.667-.182 1.072-.268a17.1 17.1 0 0 1 1.268-.22 25.44 25.44 0 0 1 1.35-.152c.457-.04.895-.058 1.314-.058 1.009 0 1.909.152 2.7.454.791.303 1.458.73 2.002 1.28.542.55.957 1.222 1.246 2.013.288.794.431 1.68.431 2.657Zm-3.538.092c0-1.07-.241-1.929-.722-2.57-.48-.645-1.194-.966-2.141-.966-.31 0-.597.012-.861.035-.264.022-.48.05-.653.081v6.26c.217.14.502.256.851.35.35.094.702.14 1.06.14 1.644-.003 2.466-1.111 2.466-3.33Zm16.083-.117c0 .961-.139 1.843-.419 2.642-.281.8-.683 1.483-1.211 2.048a5.45 5.45 0 0 1-1.898 1.315c-.736.31-1.562.466-2.479.466-.899 0-1.718-.155-2.456-.466a5.469 5.469 0 0 1-1.898-1.315 6.023 6.023 0 0 1-1.233-2.048c-.294-.8-.442-1.679-.442-2.642 0-.961.152-1.839.454-2.63a5.958 5.958 0 0 1 1.258-2.025 5.64 5.64 0 0 1 1.908-1.302 6.133 6.133 0 0 1 2.409-.467c.884 0 1.696.156 2.432.467.736.31 1.37.744 1.898 1.302a5.89 5.89 0 0 1 1.233 2.025c.297.791.444 1.669.444 2.63Zm-3.538 0c0-1.072-.213-1.912-.64-2.526-.428-.613-1.035-.92-1.827-.92-.791 0-1.405.307-1.838.92-.434.614-.651 1.455-.651 2.526 0 1.072.217 1.92.651 2.548.433.628 1.047.943 1.838.943.792 0 1.401-.315 1.827-.943.427-.628.64-1.476.64-2.548Zm14.52-3.258h-3.91v9.404h-3.468v-9.404h-3.911v-2.838h11.287v2.838h.002Zm11.895 3.283c0 .947-.117 1.808-.35 2.583-.233.775-.575 1.444-1.024 2.002a4.617 4.617 0 0 1-1.675 1.303c-.667.31-1.436.464-2.305.464a6.28 6.28 0 0 1-1.35-.14 6.516 6.516 0 0 1-1.211-.396v4.608h-3.468v-16.13c.31-.092.666-.182 1.071-.268.403-.086.827-.16 1.268-.22.442-.062.892-.113 1.35-.152a15.1 15.1 0 0 1 1.315-.058c1.008 0 1.908.152 2.7.454.791.303 1.458.73 2.002 1.28.542.55.957 1.222 1.245 2.013.287.794.432 1.68.432 2.657Zm-3.538.092c0-1.07-.242-1.929-.722-2.57-.481-.645-1.195-.966-2.141-.966-.311 0-.598.012-.861.035a7.302 7.302 0 0 0-.653.081v6.26c.217.14.501.256.851.35.35.094.701.14 1.059.14 1.643-.003 2.467-1.111 2.467-3.33Zm4.049 0c0-1.086.166-2.037.501-2.851.334-.814.771-1.493 1.315-2.037a5.43 5.43 0 0 1 1.874-1.233 5.883 5.883 0 0 1 2.176-.42c1.738 0 3.11.532 4.121 1.596 1.008 1.063 1.513 2.626 1.513 4.689 0 .2-.008.423-.023.663-.016.241-.03.454-.047.64h-7.867c.078.713.411 1.28 1 1.7.589.419 1.38.627 2.374.627.636 0 1.26-.057 1.874-.174.613-.116 1.112-.26 1.501-.431l.466 2.816a4.761 4.761 0 0 1-.744.28 9.904 9.904 0 0 1-1.037.243c-.381.07-.788.13-1.221.174-.434.047-.869.07-1.303.07-1.102 0-2.059-.164-2.873-.489-.814-.325-1.489-.773-2.025-1.337a5.29 5.29 0 0 1-1.186-2.013 7.805 7.805 0 0 1-.389-2.513Zm8.146-1.326a3.612 3.612 0 0 0-.151-.86 2.172 2.172 0 0 0-.395-.745 2.124 2.124 0 0 0-.675-.536c-.272-.139-.609-.21-1.012-.21-.389 0-.722.067-1 .198a2.067 2.067 0 0 0-.698.523 2.31 2.31 0 0 0-.429.757 4.985 4.985 0 0 0-.221.873h4.581Zm14.989 7.355h-3.469v-4.84h-3.607v4.84h-3.469V20.324h3.469v4.562h3.607v-4.562h3.469v12.242Zm6.074-12.57c1.025 0 1.877.117 2.56.35.683.233 1.23.567 1.641 1 .411.436.701.961.873 1.583.17.62.256 1.311.256 2.072v7.215c-.497.108-1.187.237-2.072.384-.884.148-1.955.221-3.211.221-.792 0-1.509-.07-2.154-.21-.644-.14-1.198-.368-1.664-.687a3.131 3.131 0 0 1-1.072-1.246c-.247-.511-.372-1.141-.372-1.886 0-.713.143-1.319.431-1.816a3.305 3.305 0 0 1 1.152-1.186 5.222 5.222 0 0 1 1.652-.64 9.204 9.204 0 0 1 1.933-.198c.45 0 .851.02 1.198.057.35.039.632.09.851.151v-.325c0-.589-.178-1.063-.536-1.42-.358-.355-.977-.535-1.861-.535-.589 0-1.172.043-1.746.129a7.599 7.599 0 0 0-1.489.36l-.442-2.794a12.815 12.815 0 0 1 1.747-.384c.355-.056.732-.1 1.128-.14a13.91 13.91 0 0 1 1.197-.055Zm.28 10.148c.342 0 .667-.008.978-.022.311-.014.558-.04.744-.07v-2.63a6.493 6.493 0 0 0-.628-.092 6.843 6.843 0 0 0-1.687.012c-.288.04-.54.113-.757.221a1.294 1.294 0 0 0-.511.442c-.125.186-.186.42-.186.698 0 .544.182.918.546 1.128.364.209.863.313 1.501.313Zm5.213 2.422a38.692 38.692 0 0 1 2.403-3.475 44.926 44.926 0 0 1 2.636-3.078 49.557 49.557 0 0 1-2.671-2.961 57.738 57.738 0 0 1-2.135-2.728h4.058c.403.57.887 1.229 1.452 1.977.564.749 1.305 1.694 2.219 2.835v-4.812h3.374v4.828a55.523 55.523 0 0 0 2.258-2.843l1.444-1.985h4.002a29.186 29.186 0 0 1-2.02 2.728 39.315 39.315 0 0 1-2.716 2.939 43.526 43.526 0 0 1 1.497 1.667c.441.521.859 1.037 1.253 1.55.395.513.769 1.045 1.127 1.597.356.552.728 1.14 1.115 1.76h-3.857a73.788 73.788 0 0 0-4.103-5.556v5.557h-3.374V27.05a341.5 341.5 0 0 1-2.258 2.966 46.066 46.066 0 0 0-1.839 2.548h-3.865v.002Z" fill="#fff"/><path d="M192.424 26.537c0-1.086.165-2.037.501-2.851.333-.814.771-1.493 1.315-2.037a5.436 5.436 0 0 1 1.873-1.233 5.891 5.891 0 0 1 2.176-.42c1.739 0 3.111.532 4.121 1.596 1.008 1.063 1.514 2.626 1.514 4.689 0 .2-.009.423-.023.663a33.83 33.83 0 0 1-.047.64h-7.865c.077.713.411 1.28 1 1.7.589.419 1.38.627 2.374.627.636 0 1.26-.057 1.873-.174.614-.116 1.113-.26 1.501-.431l.467 2.816a4.74 4.74 0 0 1-.745.28 9.941 9.941 0 0 1-1.037.243c-.38.07-.787.13-1.221.174-.433.047-.869.07-1.302.07-1.103 0-2.06-.164-2.874-.489-.814-.325-1.489-.773-2.024-1.337a5.306 5.306 0 0 1-1.187-2.013 7.778 7.778 0 0 1-.39-2.513Zm8.146-1.326a3.613 3.613 0 0 0-.152-.86 2.187 2.187 0 0 0-.394-.745 2.124 2.124 0 0 0-.675-.536c-.272-.139-.61-.21-1.013-.21-.388 0-.722.067-1 .198-.28.133-.511.307-.697.523a2.37 2.37 0 0 0-.432.757 5.1 5.1 0 0 0-.221.873h4.584Zm15.827 1.234c0 .947-.117 1.808-.35 2.583-.233.775-.575 1.444-1.024 2.002a4.617 4.617 0 0 1-1.675 1.303c-.667.31-1.436.464-2.305.464a6.28 6.28 0 0 1-1.35-.14 6.516 6.516 0 0 1-1.211-.396v4.608h-3.468v-16.13a14.14 14.14 0 0 1 1.071-.268c.403-.086.827-.16 1.268-.22.442-.062.892-.113 1.35-.152a15.1 15.1 0 0 1 1.315-.058c1.008 0 1.908.152 2.7.454.791.303 1.458.73 2.002 1.28.542.55.957 1.222 1.245 2.013.287.794.432 1.68.432 2.657Zm-3.538.092c0-1.07-.242-1.929-.722-2.57-.481-.645-1.194-.966-2.141-.966-.311 0-.598.012-.861.035a7.302 7.302 0 0 0-.653.081v6.26c.217.14.501.256.851.35.35.094.701.14 1.059.14 1.643-.003 2.467-1.111 2.467-3.33Zm8.099-1.861a5.34 5.34 0 0 1 .85-.152c.35-.038.749-.057 1.199-.057.714 0 1.384.086 2.012.256a4.832 4.832 0 0 1 1.64.779c.467.35.835.792 1.107 1.327.272.536.407 1.16.407 1.874 0 .713-.125 1.331-.372 1.85a3.29 3.29 0 0 1-1.072 1.28c-.464.334-1.02.582-1.665.745a8.755 8.755 0 0 1-2.153.243c-1.025 0-1.964-.05-2.816-.15a21.676 21.676 0 0 1-2.608-.477v-11.87h3.469v4.352h.002Zm1.722 5.469c.636 0 1.137-.121 1.501-.363.364-.239.546-.631.546-1.175 0-.279-.062-.516-.186-.71a1.36 1.36 0 0 0-.512-.466 2.343 2.343 0 0 0-.756-.244 5.69 5.69 0 0 0-.919-.07c-.233 0-.488.017-.768.048a6.31 6.31 0 0 0-.628.094v2.793c.186.031.433.056.744.07.311.014.636.023.978.023Zm10.728 2.42h-3.468v-12.24h3.468v12.242Z" fill="#fff"/><path d="M253.103 26.142c0 .947-.117 1.808-.35 2.583-.233.775-.574 1.444-1.024 2.002a4.616 4.616 0 0 1-1.675 1.303c-.667.31-1.436.464-2.305.464-.481 0-.931-.047-1.35-.139a6.524 6.524 0 0 1-1.211-.397v4.608h-3.468v-16.13a14.14 14.14 0 0 1 1.071-.268c.403-.086.827-.16 1.268-.22.442-.062.892-.113 1.35-.152.458-.039.896-.057 1.315-.057 1.008 0 1.908.151 2.7.454.791.302 1.458.73 2.002 1.28.542.55.957 1.221 1.245 2.012.287.796.432 1.68.432 2.657Zm-3.538.094c0-1.07-.241-1.928-.722-2.57-.481-.645-1.194-.966-2.141-.966-.311 0-.598.012-.861.035a7.302 7.302 0 0 0-.653.082v6.26c.217.139.501.255.851.35.35.094.702.139 1.059.139 1.643-.002 2.467-1.11 2.467-3.33Z" fill="url(#a)"/><path d="M239.585 30.425a2.129 2.129 0 1 1-4.258 0 2.129 2.129 0 0 1 4.258 0Z" fill="#76C591"/><path d="M268.055 21.837a6.755 6.755 0 0 0-2.082-1.164 10.231 10.231 0 0 0-2.491-.535V16.91h-3.374v3.228c-1.117.124-2.086.36-2.909.71-.822.349-1.497.79-2.024 1.325a5.19 5.19 0 0 0-1.176 1.826 6.188 6.188 0 0 0-.385 2.188c0 .806.135 1.569.407 2.28a5.334 5.334 0 0 0 1.221 1.886c.542.542 1.223.986 2.037 1.325.814.342 1.757.552 2.829.628v4.26h3.374v-4.26a10.542 10.542 0 0 0 2.513-.523 6.416 6.416 0 0 0 2.072-1.152 5.444 5.444 0 0 0 1.409-1.838c.35-.728.524-1.591.524-2.583 0-.978-.174-1.827-.524-2.549a5.42 5.42 0 0 0-1.421-1.824Zm-7.947 7.54c-.978-.108-1.722-.402-2.234-.883-.511-.48-.769-1.233-.769-2.258 0-1.07.268-1.855.804-2.35.536-.497 1.268-.783 2.199-.86v6.352Zm6.108-1.652a2.607 2.607 0 0 1-.697.965 2.72 2.72 0 0 1-.965.524 3.667 3.667 0 0 1-1.072.164v-6.355c.356.017.714.078 1.072.186.356.109.679.283.965.524.286.241.519.562.697.965.178.403.268.908.268 1.514 0 .605-.09 1.11-.268 1.513Z" fill="url(#b)"/><path d="M55.3 44.569v-5.035H57c.395 0 .718.071.97.212.251.142.44.334.56.575.12.24.182.51.182.806 0 .296-.06.566-.182.81a1.37 1.37 0 0 1-.556.579c-.25.143-.573.214-.965.214h-1.22v-.54h1.2c.271 0 .488-.047.651-.14a.845.845 0 0 0 .358-.381c.074-.16.113-.34.113-.542a1.24 1.24 0 0 0-.113-.542.816.816 0 0 0-.36-.374c-.165-.092-.386-.137-.658-.137h-1.072v4.495h-.61Zm5.43.09a1.5 1.5 0 0 1-.65-.137 1.086 1.086 0 0 1-.465-.397 1.108 1.108 0 0 1-.172-.628c0-.217.043-.393.13-.528a.9.9 0 0 1 .34-.319 1.86 1.86 0 0 1 .475-.172c.172-.038.346-.069.522-.092.229-.03.415-.053.558-.067a.858.858 0 0 0 .315-.08c.067-.037.1-.104.1-.196v-.02c0-.242-.065-.432-.198-.567-.131-.133-.332-.2-.597-.2-.279 0-.495.059-.653.181a1.085 1.085 0 0 0-.331.39l-.55-.197c.098-.23.229-.41.395-.538.163-.129.345-.219.541-.272a2.29 2.29 0 0 1 .58-.078c.12 0 .259.015.419.043.157.029.31.088.46.176.149.088.272.22.37.4.098.18.147.418.147.719v2.489h-.579v-.512h-.03c-.04.082-.105.17-.197.264a1.133 1.133 0 0 1-.366.237c-.16.066-.345.1-.564.1Zm.088-.522c.229 0 .423-.045.58-.135a.914.914 0 0 0 .483-.798v-.531c-.024.03-.078.057-.161.08a2.47 2.47 0 0 1-.287.06c-.106.02-.21.034-.313.046l-.243.03a2.344 2.344 0 0 0-.421.095.743.743 0 0 0-.315.194.493.493 0 0 0-.119.35c0 .202.076.354.225.456.15.1.34.153.57.153Zm2.468-.532h.62c.014.17.092.301.233.389.141.088.325.133.554.133.233 0 .432-.047.597-.143.166-.096.248-.252.248-.467a.578.578 0 0 0-.358-.55.928.928 0 0 0-.4-.077h-.65v-.522h.65c.23 0 .402-.053.512-.157a.525.525 0 0 0 .166-.395.508.508 0 0 0-.18-.407c-.119-.102-.288-.154-.507-.154a.98.98 0 0 0-.554.148.48.48 0 0 0-.233.382h-.61a.916.916 0 0 1 .186-.54c.119-.155.28-.28.483-.368a1.71 1.71 0 0 1 .697-.135c.266 0 .497.047.692.14.196.091.347.216.456.376a.94.94 0 0 1 .16.537c0 .213-.06.387-.18.516a.998.998 0 0 1-.45.28v.039a.66.66 0 0 1 .371.137.828.828 0 0 1 .248.317c.06.129.088.274.088.431 0 .23-.062.43-.184.6-.123.17-.293.3-.505.392-.215.092-.46.14-.737.14a1.85 1.85 0 0 1-.718-.131 1.246 1.246 0 0 1-.503-.367.911.911 0 0 1-.192-.544Zm3.659.964V40.79h1.544c.407 0 .73.092.97.276.239.184.36.426.36.728 0 .23-.068.407-.205.534-.137.125-.311.21-.524.254.14.02.274.067.407.147a.925.925 0 0 1 .458.826.931.931 0 0 1-.147.518c-.098.153-.24.274-.421.362a1.513 1.513 0 0 1-.659.133h-1.783Zm.552-2.193h.994c.155 0 .288-.022.4-.065a.544.544 0 0 0 .256-.186.48.48 0 0 0 .09-.29.43.43 0 0 0-.198-.375c-.133-.092-.315-.137-.548-.137h-.994v1.053Zm0 1.663h1.23c.2 0 .355-.047.47-.143a.485.485 0 0 0 .17-.389.622.622 0 0 0-.17-.46c-.115-.112-.27-.168-.47-.168h-1.23v1.16Zm3.913-.325 1.82-2.92h.668v3.777h-.58v-2.92l-1.81 2.92h-.68v-3.777h.581v2.92Zm3.552.855V40.79h1.544c.407 0 .73.092.97.276.238.184.36.426.36.728 0 .23-.068.407-.205.534-.137.125-.311.21-.524.254.14.02.274.067.407.147.13.078.241.188.327.323a.93.93 0 0 1 .131.503.931.931 0 0 1-.147.518c-.098.153-.24.274-.421.362a1.514 1.514 0 0 1-.659.133h-1.783Zm.55-2.193h.994c.155 0 .288-.022.4-.065a.544.544 0 0 0 .256-.186.48.48 0 0 0 .09-.29.43.43 0 0 0-.198-.375c-.133-.092-.315-.137-.548-.137h-.994v1.053Zm0 1.663h1.229c.2 0 .356-.047.47-.143a.485.485 0 0 0 .17-.389.622.622 0 0 0-.17-.46c-.114-.112-.27-.168-.47-.168h-1.23v1.16Zm4.444.62a1.5 1.5 0 0 1-.65-.137 1.087 1.087 0 0 1-.465-.397 1.108 1.108 0 0 1-.171-.628c0-.217.043-.393.129-.528a.9.9 0 0 1 .341-.319c.143-.075.3-.135.475-.172.171-.038.345-.069.521-.092.23-.03.415-.053.558-.067a.858.858 0 0 0 .315-.08c.068-.037.1-.104.1-.196v-.02c0-.242-.065-.432-.198-.567-.13-.133-.331-.2-.597-.2-.278 0-.495.059-.652.181a1.084 1.084 0 0 0-.332.39l-.55-.197c.098-.23.23-.41.395-.538.163-.129.346-.219.542-.272a2.29 2.29 0 0 1 .579-.078c.12 0 .26.015.419.043.157.029.31.088.46.176a1 1 0 0 1 .37.4c.098.18.147.418.147.719v2.489h-.578v-.512h-.031c-.039.082-.104.17-.196.264a1.133 1.133 0 0 1-.367.237c-.157.066-.343.1-.564.1Zm.09-.522c.23 0 .423-.045.58-.135a.913.913 0 0 0 .483-.798v-.531c-.024.03-.077.057-.161.08a3.12 3.12 0 0 1-.286.06c-.107.02-.211.034-.313.046l-.244.03a2.332 2.332 0 0 0-.42.095.743.743 0 0 0-.316.194.494.494 0 0 0-.118.35c0 .202.075.354.224.456.148.1.34.153.571.153Zm3.008-3.346v3.778h-.58V40.79h.58Zm1.506 1.653v.542h-1.996v-.542h1.996Zm1.161 2.205c-.341 0-.64-.08-.895-.244a1.65 1.65 0 0 1-.6-.68 2.303 2.303 0 0 1-.214-1.023c0-.393.071-.737.214-1.031a1.64 1.64 0 0 1 .6-.683c.255-.162.554-.244.895-.244.342 0 .64.082.896.244.256.161.456.39.6.683.142.294.214.638.214 1.03 0 .391-.072.733-.215 1.023a1.65 1.65 0 0 1-.599.681 1.625 1.625 0 0 1-.896.244Zm0-.522c.258 0 .473-.065.64-.198a1.19 1.19 0 0 0 .373-.524c.08-.217.12-.452.12-.703 0-.252-.04-.487-.12-.706a1.185 1.185 0 0 0-.373-.53c-.167-.135-.38-.202-.64-.202-.257 0-.472.067-.64.202-.166.135-.29.311-.372.53a2.04 2.04 0 0 0-.12.706c0 .251.04.486.12.703.08.217.204.39.372.524.168.13.38.198.64.198Zm2.655-3.336h.58v3.236h1.426V40.79h.58v3.236h1.428V40.79h.58v3.778h-4.594V40.79Zm5.153 3.238-.067 1.623h-.6v-1.081h-.49v-.542h1.157Zm1.428-.315 1.82-2.92h.669v3.777h-.58v-2.92l-1.81 2.92h-.68v-3.777h.581v2.92Zm5.133.934c-.364 0-.677-.08-.94-.24a1.593 1.593 0 0 1-.608-.68 2.303 2.303 0 0 1-.213-1.016c0-.387.072-.728.213-1.023a1.65 1.65 0 0 1 .595-.693 1.6 1.6 0 0 1 .894-.25 1.8 1.8 0 0 1 .583.098c.192.066.366.172.523.32.158.147.283.339.377.58.094.242.139.538.139.89v.245H98.74v-.5h2.322c0-.213-.043-.404-.127-.571a.982.982 0 0 0-.36-.397 1.013 1.013 0 0 0-.546-.145c-.231 0-.432.057-.6.17a1.127 1.127 0 0 0-.386.443c-.09.182-.135.379-.135.585v.334c0 .286.05.527.15.724.1.196.237.347.412.45.176.102.383.153.618.153.151 0 .291-.023.413-.066a.844.844 0 0 0 .53-.523l.56.157c-.059.19-.157.358-.296.501a1.428 1.428 0 0 1-.516.334c-.204.08-.433.12-.689.12Zm4.978-.934 1.82-2.92h.669v3.777h-.581v-2.92l-1.81 2.92h-.679v-3.777h.581v2.92Zm5.88-2.923v.542h-1.751v3.236h-.581V40.79h2.332Zm.847 5.195v-5.193h.56v.6h.07a5.49 5.49 0 0 1 .178-.252c.075-.102.186-.194.329-.276.143-.082.337-.123.585-.123.317 0 .597.08.84.24.242.157.432.384.569.674.135.293.204.636.204 1.033 0 .401-.067.747-.204 1.04a1.6 1.6 0 0 1-.567.678c-.241.16-.517.24-.834.24-.241 0-.438-.042-.583-.123a.996.996 0 0 1-.335-.279 3.203 3.203 0 0 1-.182-.26h-.049v1.997h-.581v.004Zm.57-3.305c0 .286.041.536.125.753.084.216.207.386.366.509a.94.94 0 0 0 .589.184.946.946 0 0 0 .608-.192 1.19 1.19 0 0 0 .37-.522 2.07 2.07 0 0 0 .124-.732c0-.266-.04-.505-.122-.72a1.115 1.115 0 0 0-.366-.51.98.98 0 0 0-.614-.187.979.979 0 0 0-.595.178c-.16.118-.282.284-.364.497-.08.212-.121.46-.121.742Zm3.886 3.295c-.1 0-.186-.008-.264-.023a.796.796 0 0 1-.159-.045l.147-.511c.213.055.389.053.53-.004.141-.057.263-.225.366-.507l.108-.295-1.397-3.796h.63l1.041 3.01h.039l1.043-3.01.634.01-1.607 4.318a1.633 1.633 0 0 1-.268.479c-.107.126-.231.22-.371.284a1.13 1.13 0 0 1-.472.09Zm3.485-5.185h.581v3.236h1.425V40.79h.581v3.236h1.427V40.79h.579v3.778h-4.593V40.79Zm5.655 3.778V40.79h.58v1.643h.385l1.358-1.643h.746l-1.523 1.818 1.544 1.958h-.747l-1.239-1.594h-.522v1.594h-.582v.002Zm4.298-.855 1.821-2.92h.668v3.777h-.58v-2.92l-1.81 2.92h-.679v-3.777h.58v2.92Zm5.097 1.936v-1.623h.315c.076-.08.143-.166.198-.26.055-.094.105-.205.147-.333.041-.13.078-.287.107-.473.03-.186.055-.41.078-.675l.128-1.495h2.399v3.236h.581v1.623h-.581v-1.08h-2.793v1.081h-.579Zm.973-1.621h1.819v-2.694h-1.279l-.098.953c-.041.395-.092.74-.151 1.035-.06.295-.158.53-.291.706Zm3.412.54v-.542h.137a.535.535 0 0 0 .282-.068.473.473 0 0 0 .184-.24 1.93 1.93 0 0 0 .108-.476 9.2 9.2 0 0 0 .056-.779l.067-1.673h2.518v3.778h-.581v-3.236h-1.387l-.059 1.348a6.205 6.205 0 0 1-.082.818 2.068 2.068 0 0 1-.19.591.89.89 0 0 1-.336.36c-.139.08-.312.12-.523.12h-.194v-.001Zm4.17 0 1.071-1.88h.63l-1.071 1.88h-.63Zm2.517 0v-3.246h-1.002c-.227 0-.405.053-.534.157a.532.532 0 0 0-.194.432c0 .182.06.323.176.425.117.103.278.154.483.154h1.219v.542h-1.219c-.256 0-.477-.045-.661-.135a.98.98 0 0 1-.427-.387 1.15 1.15 0 0 1-.15-.599c0-.231.054-.431.158-.6.106-.167.256-.296.452-.386.196-.092.429-.135.701-.135h1.553v3.778h-.555Zm3.158 1.081v-1.623h.315c.076-.08.143-.166.198-.26.056-.094.105-.205.148-.333.041-.13.077-.287.106-.473a9.06 9.06 0 0 0 .078-.675l.129-1.495h2.399v3.236h.58v1.623h-.58v-1.08h-2.794v1.081h-.579Zm.974-1.621h1.818v-2.694h-1.278l-.099.953c-.041.395-.092.74-.151 1.035-.061.295-.157.53-.29.706Zm5.331.619a1.78 1.78 0 0 1-.941-.24 1.596 1.596 0 0 1-.607-.68 2.304 2.304 0 0 1-.213-1.016c0-.387.072-.728.213-1.023.141-.296.339-.528.595-.693a1.6 1.6 0 0 1 .894-.25c.196 0 .39.033.583.098.192.066.366.172.523.32.158.147.282.339.377.58.094.242.139.538.139.89v.245h-2.913v-.5h2.322c0-.213-.043-.404-.127-.571a.982.982 0 0 0-.36-.397 1.015 1.015 0 0 0-.546-.145 1.05 1.05 0 0 0-.599.17 1.126 1.126 0 0 0-.387.443c-.09.182-.135.379-.135.585v.334c0 .286.049.527.149.724.101.196.238.347.413.45.176.102.383.153.618.153.151 0 .291-.023.413-.066a.844.844 0 0 0 .53-.523l.56.157c-.059.19-.157.358-.296.501a1.428 1.428 0 0 1-.516.334c-.204.08-.433.12-.689.12Zm2.095-3.315v-.542h3.069v.542h-1.239v3.236h-.581v-3.236h-1.249Zm5.3 3.315c-.364 0-.677-.08-.94-.24a1.592 1.592 0 0 1-.608-.68 2.304 2.304 0 0 1-.212-1.016c0-.387.071-.728.212-1.023a1.65 1.65 0 0 1 .595-.693 1.6 1.6 0 0 1 .894-.25 1.8 1.8 0 0 1 .583.098c.192.066.366.172.524.32.157.147.282.339.376.58.094.242.139.538.139.89v.245h-2.912v-.5h2.321c0-.213-.043-.404-.127-.571a.975.975 0 0 0-.36-.397 1.01 1.01 0 0 0-.546-.145c-.231 0-.431.057-.599.17a1.126 1.126 0 0 0-.387.443c-.09.182-.135.379-.135.585v.334c0 .286.049.527.15.724.1.196.237.347.413.45.176.102.382.153.617.153.152 0 .291-.023.413-.066a.848.848 0 0 0 .53-.523l.561.157c-.06.19-.158.358-.297.501a1.433 1.433 0 0 1-.515.334c-.205.08-.434.12-.69.12Zm3.031-.934 1.82-2.92h.669v3.777h-.581v-2.92l-1.81 2.92h-.678v-3.777h.58v2.92Zm1.436-4.18h.542a.847.847 0 0 1-.276.652c-.184.168-.434.254-.749.254-.308 0-.556-.084-.738-.254a.842.842 0 0 1-.274-.652h.542c0 .129.035.239.106.337.072.096.195.145.366.145.172 0 .297-.049.371-.145a.547.547 0 0 0 .11-.337Zm4.64 4.18 1.82-2.92h.669v3.777h-.581v-2.92l-1.81 2.92h-.679v-3.777h.581v2.92Zm5.5.855V40.79h1.544c.407 0 .73.092.969.276.24.184.36.426.36.728 0 .23-.067.407-.204.534-.137.125-.311.21-.524.254.139.02.274.067.407.147a.929.929 0 0 1 .458.826.93.93 0 0 1-.147.518 1.003 1.003 0 0 1-.421.362 1.514 1.514 0 0 1-.659.133h-1.783Zm.55-2.193h.994c.155 0 .288-.022.401-.065a.544.544 0 0 0 .255-.186.476.476 0 0 0 .09-.29.429.429 0 0 0-.198-.375c-.133-.092-.315-.137-.548-.137h-.994v1.053Zm0 1.663h1.229c.2 0 .356-.047.47-.143a.483.483 0 0 0 .17-.389.62.62 0 0 0-.17-.46c-.114-.112-.27-.168-.47-.168h-1.229v1.16Zm3.098-.434h.62c.014.17.092.301.233.389.141.088.325.133.554.133.233 0 .432-.047.597-.143.166-.096.248-.252.248-.467a.581.581 0 0 0-.358-.55.926.926 0 0 0-.401-.077h-.648v-.522h.648c.231 0 .403-.053.513-.157a.523.523 0 0 0 .166-.395.507.507 0 0 0-.18-.407c-.118-.102-.288-.154-.507-.154a.98.98 0 0 0-.554.148.478.478 0 0 0-.233.382h-.61a.92.92 0 0 1 .186-.54c.119-.155.28-.28.483-.368.204-.09.438-.135.697-.135.266 0 .497.047.692.14.196.091.347.216.456.376a.942.942 0 0 1 .159.537c0 .213-.059.387-.18.516a1 1 0 0 1-.45.28v.039c.143.01.268.055.372.137a.82.82 0 0 1 .248.317c.059.13.088.274.088.431 0 .23-.061.43-.184.6-.123.17-.293.3-.505.392a1.86 1.86 0 0 1-.737.14 1.86 1.86 0 0 1-.717-.131 1.25 1.25 0 0 1-.504-.367.914.914 0 0 1-.192-.544Zm3.659 2.381v-5.193h.56v.6h.07a5.49 5.49 0 0 1 .178-.252c.075-.102.186-.194.329-.276.143-.082.337-.123.585-.123.317 0 .597.08.84.24.242.157.432.384.569.674.135.293.205.636.205 1.033 0 .401-.068.747-.205 1.04a1.6 1.6 0 0 1-.567.678c-.241.16-.517.24-.834.24-.241 0-.438-.042-.583-.123a1.006 1.006 0 0 1-.335-.279 3.203 3.203 0 0 1-.182-.26h-.049v1.997h-.581v.004Zm.57-3.305c0 .286.041.536.125.753.084.216.207.386.366.509a.94.94 0 0 0 .589.184.944.944 0 0 0 .608-.192 1.19 1.19 0 0 0 .37-.522 2.07 2.07 0 0 0 .125-.732c0-.266-.041-.505-.123-.72a1.115 1.115 0 0 0-.366-.51.98.98 0 0 0-.614-.187.979.979 0 0 0-.595.178 1.096 1.096 0 0 0-.364.497c-.08.212-.121.46-.121.742Zm5.183 1.968c-.339 0-.64-.08-.896-.244a1.652 1.652 0 0 1-.599-.68 2.304 2.304 0 0 1-.215-1.023c0-.393.072-.737.215-1.031.143-.293.344-.522.599-.683.256-.162.557-.244.896-.244.342 0 .64.082.896.244.255.161.458.39.599.683.143.294.215.638.215 1.03 0 .391-.072.733-.215 1.023a1.652 1.652 0 0 1-.599.681 1.643 1.643 0 0 1-.896.244Zm0-.522c.26 0 .472-.065.64-.198.168-.133.291-.307.372-.524a2.02 2.02 0 0 0 .121-.703c0-.252-.039-.487-.121-.706a1.192 1.192 0 0 0-.372-.53c-.168-.135-.38-.202-.64-.202-.258 0-.472.067-.64.202-.166.135-.29.311-.372.53a2.04 2.04 0 0 0-.121.706c0 .251.041.486.121.703.079.217.204.39.372.524.168.13.382.198.64.198Zm4.131.522c-.354 0-.658-.084-.914-.25a1.635 1.635 0 0 1-.589-.691 2.36 2.36 0 0 1-.207-1.006c0-.385.072-.722.213-1.017a1.67 1.67 0 0 1 .595-.691 1.6 1.6 0 0 1 .894-.25c.266 0 .505.05.718.148a1.31 1.31 0 0 1 .777 1.033h-.581a.916.916 0 0 0-.294-.459c-.152-.133-.356-.2-.612-.2-.225 0-.423.06-.593.176-.17.116-.301.282-.395.495-.094.212-.141.46-.141.746 0 .293.047.546.139.763.094.217.225.385.395.503.17.119.368.18.597.18.152 0 .289-.026.411-.078a.84.84 0 0 0 .495-.58h.581a1.344 1.344 0 0 1-.751 1.024c-.214.1-.458.154-.738.154Zm1.996-.08v-.542h.137a.53.53 0 0 0 .282-.068.474.474 0 0 0 .185-.24c.047-.114.081-.271.108-.476a8.83 8.83 0 0 0 .055-.779l.068-1.673h2.517v3.778h-.581v-3.236h-1.386l-.06 1.348c-.012.309-.04.583-.081.818a2.067 2.067 0 0 1-.191.591.888.888 0 0 1-.335.36c-.139.08-.313.12-.523.12h-.195v-.001Zm4.919-2.409h1.082c.441 0 .781.112 1.014.337.235.225.352.51.352.853 0 .227-.054.431-.158.617a1.113 1.113 0 0 1-.462.44 1.565 1.565 0 0 1-.746.164h-1.585v-3.778h.58v3.236h1.005c.229 0 .417-.06.564-.182a.576.576 0 0 0 .221-.467.61.61 0 0 0-.221-.488.833.833 0 0 0-.564-.19h-1.082v-.542Zm3.049 2.409V40.79h.581v3.778h-.581Zm2.076-3.778.904 1.544.906-1.544h.668l-1.218 1.888 1.218 1.888h-.668l-.906-1.465-.904 1.465h-.669l1.201-1.888-1.201-1.888h.669Z" fill="#fff"/><path d="M35.652 22.1c-6.09-.249-10.843-5.406-10.594-11.497C25.308 4.513 30.466-.24 36.556.01 42.646.26 47.4 5.417 47.15 11.507c-.247 6.09-5.405 10.843-11.498 10.594Zm.645-15.75a4.716 4.716 0 0 0-4.9 4.513 4.713 4.713 0 0 0 4.513 4.898 4.71 4.71 0 0 0 .387-9.412Z" fill="url(#c)"/><path d="M10.712 10.673.134 27.375a.862.862 0 0 0 .694 1.322l19.754.807a.86.86 0 0 0 .797-1.26l-9.176-17.512a.862.862 0 0 0-1.491-.06Zm27 .447a1.61 1.61 0 1 1-3.22-.134 1.61 1.61 0 0 1 3.22.135Z" fill="#76C591"/><path d="M19.322 53.993 8.5 42.25a5.599 5.599 0 0 1 .323-7.91l11.743-10.82a5.599 5.599 0 0 1 7.91.323l10.82 11.744a5.599 5.599 0 0 1-.323 7.91L27.23 54.318a5.6 5.6 0 0 1-7.908-.325Zm-4.86-14.637 8.23 8.933a1.164 1.164 0 0 0 1.645.067l8.933-8.23a1.164 1.164 0 0 0 .067-1.643l-8.23-8.934a1.164 1.164 0 0 0-1.644-.067l-8.933 8.23a1.164 1.164 0 0 0-.067 1.644Z" fill="url(#d)"/><path d="M36.104 11.055 23.901 38.918" stroke="#76C591" stroke-width=".907" stroke-miterlimit="10"/><path d="M23.9 40.454a1.536 1.536 0 1 0 0-3.072 1.536 1.536 0 0 0 0 3.072Z" fill="#82C2EB"/><defs><linearGradient id="a" x1="247.412" y1="1.083" x2="247.412" y2="25.113" gradientUnits="userSpaceOnUse"><stop offset="0" stop-color="#FEEB8A"/><stop offset=".268" stop-color="#F8C3A8"/><stop offset=".539" stop-color="#F59BB6"/><stop offset=".684" stop-color="#F497B5"/><stop offset=".864" stop-color="#F28BB1"/><stop offset=".999" stop-color="#EF7FAD"/></linearGradient><linearGradient id="b" x1="261.806" y1="1.084" x2="261.806" y2="25.113" gradientUnits="userSpaceOnUse"><stop offset="0" stop-color="#FEEB8A"/><stop offset=".268" stop-color="#F8C3A8"/><stop offset=".539" stop-color="#F59BB6"/><stop offset=".684" stop-color="#F497B5"/><stop offset=".864" stop-color="#F28BB1"/><stop offset=".999" stop-color="#EF7FAD"/></linearGradient><linearGradient id="c" x1="25.105" y1="14.261" x2="46.342" y2="8.097" gradientUnits="userSpaceOnUse"><stop stop-color="#B1DCF5"/><stop offset=".999" stop-color="#82C2EB"/></linearGradient><linearGradient id="d" x1="27.849" y1="54.757" x2="17.016" y2="11.335" gradientUnits="userSpaceOnUse"><stop offset="0" stop-color="#FEEB8A"/><stop offset=".268" stop-color="#F8C3A8"/><stop offset=".539" stop-color="#F59BB6"/><stop offset=".684" stop-color="#F497B5"/><stop offset=".864" stop-color="#F28BB1"/><stop offset=".999" stop-color="#EF7FAD"/></linearGradient></defs></svg>