<svg width="141" height="20" fill="none" xmlns="http://www.w3.org/2000/svg"><path d="M34.865 4h-7.481c.436 2.47 2.833 4.794 5.447 4.794h5.957c.072-.218.072-.581.072-.799C38.86 5.815 37.044 4 34.865 4Z" fill="url(#a)"/><path d="M28.038 9.23v6.029h3.631v-3.196h3.196c1.744 0 3.269-1.235 3.777-2.833H28.038ZM15.253 4v11.186h3.196s.8 0 1.235-.8a1155.1 1155.1 0 0 0 2.833-5.592h.436v6.392h3.632V4h-3.196s-.8.073-1.235.799c-1.816 3.704-2.833 5.593-2.833 5.593h-.436V4h-3.632ZM0 15.26V4.072h3.632s1.017 0 1.598 1.598c1.453 4.213 1.598 4.794 1.598 4.794s.29-1.017 1.598-4.794c.58-1.598 1.598-1.598 1.598-1.598h3.632V15.26h-3.632V9.23h-.436l-2.034 6.03H5.956L3.922 9.23h-.435v6.03H0Z" fill="#4FAD50"/><path d="M82.333 10c0 5.487-4.461 10-10 10-5.487 0-10-4.513-10-10s4.462-10 9.95-10c5.589 0 10.05 4.513 10.05 10Z" fill="#F9B50B"/><path d="M68.948 10.051c0-.718-.102-1.436-.205-2.102H62.59c.05-.36.153-.667.256-1.077h5.487a9.242 9.242 0 0 0-.41-1.077h-4.667c.154-.36.36-.667.564-1.077h3.539a7 7 0 0 0-.77-1.077h-1.948a9.675 9.675 0 0 1 1.025-1.026C63.923.975 61.564 0 58.95 0 53.513.154 49 4.513 49 10s4.462 10 10 10c2.615 0 4.923-1.026 6.718-2.616.359-.307.666-.666 1.025-1.076h-2.05a7.335 7.335 0 0 1-.719-1.026h3.487c.206-.308.41-.667.564-1.077H63.36a5.246 5.246 0 0 1-.41-1.077h5.487a9.668 9.668 0 0 0 .512-3.077Z" fill="#C8191C"/><path d="m62.538 12.564.154-.923c-.051 0-.154.051-.256.051-.36 0-.41-.205-.36-.307l.309-1.847h.564l.154-1.025h-.513l.102-.616h-1.077S61 11.385 61 11.795c0 .615.359.923.872.923.307 0 .564-.103.666-.154Zm.36-1.692c0 1.487 1.025 1.846 1.846 1.846.769 0 1.128-.154 1.128-.154l.205-1.025s-.564.256-1.128.256c-1.18 0-.975-.872-.975-.872h2.154s.154-.667.154-.974c0-.667-.359-1.539-1.538-1.539-1.026-.051-1.846 1.129-1.846 2.462Zm1.846-1.539c.564 0 .461.667.461.718h-1.18c.052-.051.154-.718.719-.718Zm6.718 3.231.205-1.18s-.513.257-.923.257c-.718 0-1.077-.564-1.077-1.23 0-1.283.615-1.95 1.384-1.95.513 0 .975.308.975.308l.154-1.128s-.616-.256-1.231-.256c-1.23 0-2.41 1.077-2.41 3.077 0 1.333.615 2.205 1.897 2.205.461.051 1.026-.103 1.026-.103ZM56.744 8.359c-.718 0-1.282.205-1.282.205l-.154.923s.462-.205 1.18-.205c.359 0 .666.051.666.359 0 .205-.05.256-.05.256h-.462c-.924 0-1.898.36-1.898 1.59 0 .974.615 1.18 1.026 1.18.718 0 1.077-.462 1.128-.462l-.051.41h.871l.41-2.923c0-1.282-1.025-1.333-1.384-1.333Zm.205 2.359c0 .154-.102 1.025-.718 1.025-.307 0-.41-.256-.41-.41 0-.256.154-.615.974-.615h.154Zm2.205 1.949c.256 0 1.59.05 1.59-1.385 0-1.333-1.282-1.077-1.282-1.59 0-.256.205-.359.564-.359.154 0 .718.052.718.052l.154-.975s-.36-.102-1.026-.102c-.77 0-1.59.307-1.59 1.384 0 1.231 1.334 1.128 1.334 1.59 0 .308-.36.359-.616.359-.461 0-.974-.154-.974-.154l-.154.974c.103.103.41.206 1.282.206Zm21.128-5.128-.205 1.435s-.41-.512-1.026-.512c-.974 0-1.795 1.18-1.795 2.564 0 .872.41 1.743 1.334 1.743a1.57 1.57 0 0 0 1.025-.41l-.051.359h1.077l.77-5.077-1.129-.102Zm-.513 2.769c0 .564-.256 1.333-.872 1.333-.359 0-.564-.308-.564-.872 0-.871.36-1.384.872-1.384.359.051.564.307.564.923Zm-28.82 2.308.615-3.795.103 3.795h.718L53.77 8.82l-.565 3.795h1.129l.871-5.077h-1.743l-1.077 3.128-.051-3.128h-1.539l-.872 5.077h1.026Z" fill="#fff"/><path d="M67.359 12.615c.307-1.743.359-3.18 1.128-2.923.102-.666.256-.974.359-1.23h-.205c-.462 0-.872.615-.872.615l.102-.564h-1.025l-.667 4.102h1.18Zm6.564-4.256c-.718 0-1.282.205-1.282.205l-.154.923s.462-.205 1.18-.205c.359 0 .667.051.667.359 0 .205-.052.256-.052.256h-.461c-.923 0-1.898.36-1.898 1.59 0 .974.616 1.18 1.026 1.18.718 0 1.077-.462 1.128-.462l-.051.41H75l.41-2.923c0-1.282-1.128-1.333-1.487-1.333Zm.257 2.359c0 .154-.103 1.025-.718 1.025-.308 0-.41-.256-.41-.41 0-.256.153-.615.974-.615h.154Zm2.05 1.897c.308-1.743.36-3.18 1.129-2.923.102-.666.256-.974.358-1.23h-.205c-.461 0-.871.615-.871.615l.102-.564h-1.026l-.666 4.102h1.18Z" fill="#fff"/><path d="M137.342 2.218h-3.124c-.944 0-1.67.29-2.106 1.235l-5.956 13.582h4.213s.726-1.815.871-2.251h5.157c.146.508.509 2.179.509 2.179h3.777l-3.341-14.745Zm-4.94 9.515c.364-.872 1.598-4.14 1.598-4.14 0 .072.364-.872.509-1.38l.29 1.307s.799 3.56.945 4.286h-3.342v-.073Zm-5.955.436c0 3.05-2.761 5.084-7.046 5.084-1.816 0-3.559-.363-4.504-.799l.582-3.34.508.217c1.307.581 2.179.8 3.777.8 1.162 0 2.397-.437 2.397-1.454 0-.653-.508-1.09-2.106-1.815-1.526-.727-3.56-1.889-3.56-3.995 0-2.906 2.833-4.867 6.828-4.867 1.526 0 2.833.29 3.632.654l-.581 3.196-.291-.29c-.726-.291-1.67-.582-3.05-.582-1.526.073-2.252.726-2.252 1.308 0 .653.872 1.162 2.252 1.815 2.324 1.09 3.414 2.325 3.414 4.068Z" fill="#3362AB"/><path d="m91 2.364.073-.29h6.246c.872 0 1.526.29 1.744 1.234l1.38 6.537C99.063 6.36 95.867 3.526 91 2.364Z" fill="#F9B50B"/><path d="m109.232 2.218-6.32 14.745h-4.285L94.995 4.615c2.615 1.67 4.794 4.286 5.593 6.101l.436 1.526 3.922-10.096h4.286v.072Zm1.67-.072h3.995l-2.542 14.817h-3.995l2.542-14.817Z" fill="#3362AB"/><defs><linearGradient id="a" x1="27.371" y1="6.431" x2="38.834" y2="6.431" gradientUnits="userSpaceOnUse"><stop stop-color="#27B1E6"/><stop offset="1" stop-color="#148ACA"/></linearGradient></defs></svg>