<svg width="50" height="16" fill="none" xmlns="http://www.w3.org/2000/svg"><path d="M46.66.755h-3.124c-.944 0-1.67.29-2.107 1.235l-5.956 13.583h4.213s.726-1.816.872-2.252h5.157c.145.509.508 2.18.508 2.18H50L46.66.754Zm-4.94 9.515c.363-.871 1.598-4.14 1.598-4.14 0 .073.363-.871.508-1.38l.29 1.308s.8 3.559.945 4.285H41.72v-.073Zm-5.956.436c0 3.051-2.76 5.085-7.046 5.085-1.816 0-3.56-.363-4.504-.8l.581-3.34.509.218c1.307.58 2.179.799 3.777.799 1.162 0 2.397-.436 2.397-1.453 0-.654-.509-1.09-2.107-1.816-1.525-.726-3.559-1.889-3.559-3.995 0-2.905 2.833-4.867 6.828-4.867 1.526 0 2.833.29 3.632.654l-.581 3.196-.29-.29c-.727-.291-1.671-.582-3.051-.582-1.526.073-2.252.727-2.252 1.308 0 .654.872 1.162 2.252 1.816 2.324 1.09 3.413 2.324 3.413 4.067Z" fill="#3362AB"/><path d="M.317.9.39.61h6.246c.872 0 1.526.29 1.744 1.235l1.38 6.537C8.38 4.896 5.184 2.063.317.901Z" fill="#F9B50B"/><path d="M18.549.755 12.229 15.5H7.945L4.312 3.152c2.615 1.67 4.794 4.286 5.593 6.102l.436 1.525L14.263.683h4.286v.072ZM20.22.683h3.995L21.672 15.5h-3.995L20.22.683Z" fill="#3362AB"/></svg>