<svg width="39" height="12" fill="none" xmlns="http://www.w3.org/2000/svg"><path d="M34.865.535h-7.481c.436 2.47 2.833 4.794 5.447 4.794h5.957c.072-.218.072-.581.072-.8 0-2.178-1.816-3.994-3.995-3.994Z" fill="url(#a)"/><path d="M28.038 5.765v6.028h3.631V8.597h3.196c1.744 0 3.269-1.234 3.777-2.832H28.038ZM15.253.535V11.72h3.196s.8 0 1.235-.8a1074.09 1074.09 0 0 0 2.833-5.592h.436v6.392h3.632V.535h-3.196s-.8.072-1.235.799c-1.816 3.704-2.833 5.593-2.833 5.593h-.436V.535h-3.632ZM0 11.794V.608h3.632s1.017 0 1.598 1.598C6.683 6.419 6.828 7 6.828 7s.29-1.017 1.598-4.794C9.006.608 10.024.608 10.024.608h3.632v11.186h-3.632v-6.03h-.436l-2.034 6.03H5.956l-2.034-6.03h-.435v6.03H0Z" fill="#4FAD50"/><defs><linearGradient id="a" x1="27.371" y1="2.966" x2="38.834" y2="2.966" gradientUnits="userSpaceOnUse"><stop stop-color="#27B1E6"/><stop offset="1" stop-color="#148ACA"/></linearGradient></defs></svg>