<svg width="48" height="29" fill="none" xmlns="http://www.w3.org/2000/svg"><path d="M47.696 14.164c0 7.772-6.32 14.164-14.164 14.164-7.772 0-14.164-6.392-14.164-14.164C19.368 6.392 25.687 0 33.459 0c7.917 0 14.237 6.392 14.237 14.164Z" fill="#F9B50B"/><path d="M28.738 14.237c0-1.017-.146-2.034-.291-2.978h-8.716c.072-.509.218-.944.363-1.526h7.772c-.145-.508-.363-1.016-.581-1.525h-6.61c.218-.508.508-.944.799-1.525h5.012a9.917 9.917 0 0 0-1.09-1.526h-2.76c.436-.508.872-.944 1.453-1.452C21.619 1.38 18.278 0 14.574 0 6.873.218.481 6.392.481 14.164c0 7.772 6.32 14.164 14.164 14.164 3.705 0 6.973-1.453 9.515-3.704.509-.436.945-.944 1.453-1.525H22.71a10.377 10.377 0 0 1-1.017-1.453h4.94c.29-.436.58-.945.798-1.526h-6.61a7.432 7.432 0 0 1-.58-1.525h7.771c.436-1.307.727-2.76.727-4.358Z" fill="#C8191C"/><path d="m19.658 17.796.218-1.308c-.073 0-.218.073-.363.073-.509 0-.581-.29-.509-.436l.436-2.615h.8l.217-1.452h-.726l.145-.872h-1.525s-.872 4.94-.872 5.52c0 .872.509 1.308 1.235 1.308.436 0 .799-.145.944-.218Zm.508-2.397c0 2.106 1.453 2.615 2.615 2.615 1.09 0 1.598-.218 1.598-.218l.29-1.453s-.798.363-1.597.363c-1.67 0-1.38-1.234-1.38-1.234h3.05s.218-.945.218-1.38c0-.945-.508-2.18-2.179-2.18-1.452-.072-2.614 1.598-2.614 3.487Zm2.615-2.18c.8 0 .654.945.654 1.018h-1.67c.072-.073.217-1.017 1.016-1.017Zm9.516 4.577.29-1.67s-.726.362-1.307.362c-1.017 0-1.526-.799-1.526-1.743 0-1.816.872-2.76 1.962-2.76.726 0 1.38.436 1.38.436l.218-1.598s-.872-.364-1.744-.364c-1.743 0-3.413 1.526-3.413 4.359 0 1.888.871 3.123 2.687 3.123.654.073 1.453-.145 1.453-.145ZM11.45 11.84a5.89 5.89 0 0 0-1.815.29l-.218 1.308s.653-.291 1.67-.291c.509 0 .945.073.945.508 0 .291-.073.364-.073.364h-.654c-1.307 0-2.687.508-2.687 2.251 0 1.38.871 1.671 1.452 1.671 1.017 0 1.526-.654 1.598-.654l-.072.581h1.235l.58-4.14c0-1.816-1.452-1.888-1.96-1.888Zm.291 3.34c0 .219-.145 1.454-1.017 1.454-.436 0-.581-.364-.581-.582 0-.363.218-.871 1.38-.871h.218Zm3.123 2.761c.363 0 2.252.073 2.252-1.96 0-1.89-1.816-1.526-1.816-2.252 0-.364.29-.509.799-.509.218 0 1.017.073 1.017.073l.218-1.38s-.509-.146-1.453-.146c-1.09 0-2.252.436-2.252 1.962 0 1.743 1.889 1.598 1.889 2.251 0 .436-.509.509-.872.509-.654 0-1.38-.218-1.38-.218l-.218 1.38c.145.145.581.29 1.816.29Zm29.926-7.263-.29 2.033s-.581-.726-1.453-.726c-1.38 0-2.542 1.67-2.542 3.632 0 1.235.58 2.47 1.888 2.47.872 0 1.453-.581 1.453-.581l-.073.508H45.3l1.09-7.191-1.599-.145Zm-.726 3.922c0 .8-.363 1.889-1.235 1.889-.508 0-.799-.436-.799-1.235 0-1.235.508-1.961 1.235-1.961.508.072.799.435.799 1.307ZM3.242 17.869l.872-5.375.145 5.375h1.017l1.961-5.375-.799 5.375h1.598l1.235-7.191h-2.47l-1.525 4.43-.073-4.43H3.024l-1.234 7.19h1.452Z" fill="#fff"/><path d="M26.486 17.868c.436-2.47.508-4.503 1.598-4.14.145-.944.363-1.38.508-1.743h-.29c-.654 0-1.235.872-1.235.872l.145-.8H25.76l-.944 5.811h1.67Zm9.297-6.028a5.89 5.89 0 0 0-1.815.29l-.218 1.308s.653-.291 1.67-.291c.509 0 .945.073.945.508 0 .291-.073.364-.073.364h-.654c-1.307 0-2.687.508-2.687 2.251 0 1.38.871 1.671 1.452 1.671 1.017 0 1.526-.654 1.598-.654l-.072.581h1.38l.58-4.14c0-1.816-1.597-1.888-2.106-1.888Zm.364 3.34c0 .219-.146 1.454-1.017 1.454-.436 0-.581-.364-.581-.582 0-.363.218-.871 1.38-.871h.218Zm2.905 2.688c.435-2.47.508-4.503 1.598-4.14.145-.944.363-1.38.508-1.743h-.29c-.654 0-1.235.872-1.235.872l.145-.8h-1.453l-.944 5.811h1.67Z" fill="#fff"/></svg>