<svg width="31" height="40" fill="none" xmlns="http://www.w3.org/2000/svg"><path d="M29.219 40c-.863 0-1.563-.7-1.563-1.563 0-6.117-4.976-11.093-11.093-11.093h-2.344c-6.117 0-11.094 4.976-11.094 11.093a1.562 1.562 0 1 1-3.125 0c0-7.84 6.379-14.218 14.219-14.218h2.344c7.84 0 14.218 6.378 14.218 14.218 0 .864-.7 1.563-1.562 1.563ZM25.78 10.547C25.781 4.73 21.05 0 15.234 0 9.42 0 4.688 4.731 4.688 10.547c0 5.815 4.73 10.547 10.546 10.547 5.816 0 10.547-4.732 10.547-10.547Zm-3.125 0c0 4.092-3.33 7.422-7.422 7.422s-7.421-3.33-7.421-7.422c0-4.093 3.329-7.422 7.421-7.422 4.093 0 7.422 3.33 7.422 7.422Zm-6.574 29.25 6.485-3.672a1.562 1.562 0 0 0 .55-2.195l-2.422-3.828a1.562 1.562 0 1 0-2.64 1.67l1.544 2.443-4.277 2.421-4.17-2.419 1.509-2.464a1.563 1.563 0 0 0-2.665-1.631L7.652 33.95a1.562 1.562 0 0 0 .548 2.167l6.328 3.672a1.562 1.562 0 0 0 1.554.008Z" fill="#333"/></svg>