<svg width="50" height="40" fill="none" xmlns="http://www.w3.org/2000/svg"><path d="M25 39.063a162.35 162.35 0 0 1-15.509-.765 9.762 9.762 0 0 1-8.74-8.366C-.25 22.829-.25 16.233.75 9.13A9.763 9.763 0 0 1 9.49.765C13.055.415 18.638 0 25 0s11.945.416 15.509.765a9.763 9.763 0 0 1 8.74 8.366c1.001 7.102 1.001 13.698 0 20.8a9.763 9.763 0 0 1-8.74 8.367c-3.564.349-9.147.764-15.509.764Zm0-35.157c-6.204 0-11.651.406-15.128.746a5.866 5.866 0 0 0-5.254 5.026 70.553 70.553 0 0 0-.712 9.853c0 3.198.24 6.513.712 9.853a5.866 5.866 0 0 0 5.254 5.026c3.477.34 8.924.746 15.128.746 6.204 0 11.651-.405 15.128-.746a5.866 5.866 0 0 0 5.254-5.026c.473-3.34.712-6.655.712-9.853 0-3.197-.24-6.512-.712-9.853a5.866 5.866 0 0 0-5.254-5.026A158.37 158.37 0 0 0 25 3.906ZM22.466 28.79c-2.611.035-4.95-2.23-4.888-4.872v-8.82c0-1.767.92-3.345 2.462-4.222a4.852 4.852 0 0 1 4.933.048l7.414 4.41c3.155 1.81 3.154 6.538 0 8.347l-7.414 4.41a4.892 4.892 0 0 1-2.507.699Zm.005-14.653c-.228 0-.41.083-.5.135a.923.923 0 0 0-.487.825v8.822c0 .477.305.722.487.825a.98.98 0 0 0 1.005-.01l7.414-4.41a.94.94 0 0 0 0-1.632l-7.414-4.41a.975.975 0 0 0-.505-.145Z" fill="#FA91B4"/></svg>