<?xml version="1.0" encoding="utf-8"?><svg viewbox="0 0 101 101" xmlns="http://www.w3.org/2000/svg" xmlns:xlink="http://www.w3.org/1999/xlink"><style>:root>svg{display:none}:root>svg:target{display:block}</style><svg viewbox="0 0 100 101" id="cloud-base-card-1" xmlns="http://www.w3.org/2000/svg"><path fill-rule="evenodd" clip-rule="evenodd" d="M55.86 80.018a.954.954 0 0 1-.954-.951V58.122a.954.954 0 0 1 1.907 0v20.945a.952.952 0 0 1-.952.951Z"/><path fill-rule="evenodd" clip-rule="evenodd" d="M62.047 80.018H49.665a.953.953 0 0 1-.952-.951v-3.29a19.049 19.049 0 1 1 14.287 0v3.29a.957.957 0 0 1-.954.951h.002Zm-11.429-1.906h10.475v-2.99a.958.958 0 0 1 .628-.896 17.143 17.143 0 1 0-11.728 0 .956.956 0 0 1 .625.896v2.99Z"/><path fill-rule="evenodd" clip-rule="evenodd" d="m80.137 60.018-6.186-.021a.952.952 0 0 1 0-1.904l6.183.021a12.296 12.296 0 0 0 0-24.59c-.217 0-.448 0-.705.021a.95.95 0 0 1-.907-.53 14.95 14.95 0 0 0-21.475-5.957.953.953 0 0 1-1.402-.453A21.13 21.13 0 0 0 15.142 37.83a.955.955 0 0 1-.729 1.084 9.642 9.642 0 0 0 2.14 19.046l19.987.053a.952.952 0 0 1 0 1.904l-19.987-.05a11.549 11.549 0 0 1-3.412-22.583 23.032 23.032 0 0 1 35.348-22.281 23.034 23.034 0 0 1 8.5 9.886 16.864 16.864 0 0 1 22.962 6.74h.188a14.2 14.2 0 1 1 0 28.4l-.002-.011Z"/><path fill-rule="evenodd" clip-rule="evenodd" d="M22.524 34.304a.952.952 0 0 1-.952-.952A15.255 15.255 0 0 1 36.81 18.113a.955.955 0 1 1 0 1.906 13.35 13.35 0 0 0-13.333 13.333.948.948 0 0 1-.952.952ZM84.43 21.923a5.713 5.713 0 1 1 5.716-5.713 5.721 5.721 0 0 1-5.716 5.713Zm0-9.523a3.81 3.81 0 1 0 0 7.62 3.81 3.81 0 0 0 0-7.62ZM16.812 90.496a7.62 7.62 0 1 1 7.617-7.62 7.63 7.63 0 0 1-7.617 7.62Zm0-13.335a5.717 5.717 0 1 0 5.713 5.716 5.721 5.721 0 0 0-5.713-5.716ZM62.97 84.78H48.749a3.333 3.333 0 0 1 0-6.665h14.22a3.333 3.333 0 0 1 0 6.665Zm-14.224-4.772a1.43 1.43 0 0 0 0 2.858H62.97a1.43 1.43 0 0 0 0-2.858H48.746Z"/><path fill-rule="evenodd" clip-rule="evenodd" d="M62.969 89.544H48.748a3.337 3.337 0 0 1-3.167-4.632 3.334 3.334 0 0 1 3.167-2.036h14.22a3.336 3.336 0 1 1 0 6.668ZM48.745 84.77a1.429 1.429 0 1 0 0 2.856h14.224a1.43 1.43 0 1 0 0-2.856H48.745ZM58.716 61.92a3.81 3.81 0 1 1 0-7.62 3.81 3.81 0 0 1 0 7.62Z"/><path fill-rule="evenodd" clip-rule="evenodd" d="M53.001 61.92a3.81 3.81 0 1 1 0-7.62 3.81 3.81 0 0 1 0 7.62Z"/></svg><svg viewbox="0 0 100 101" id="cloud-base-card-2" xmlns="http://www.w3.org/2000/svg"><path fill-rule="evenodd" clip-rule="evenodd" d="M51.5 93.496H21.85a.986.986 0 0 1-.99-.989V64.832a.99.99 0 1 1 1.976 0v26.686H50.51V47.041a.989.989 0 0 1 1.977 0v45.466a.991.991 0 0 1-.989.989Z"/><path fill-rule="evenodd" clip-rule="evenodd" d="M43.592 65.822H11.96a.988.988 0 0 1-.865-1.468l9.883-17.792a.995.995 0 0 1 .865-.504h29.65a.986.986 0 0 1 .9 1.39l-7.892 17.786a.987.987 0 0 1-.904.588h-.005Zm-29.947-1.976h29.307l7.028-15.813H22.43l-8.785 15.813ZM51.5 85.587H21.85a.989.989 0 0 1 0-1.978H51.5a.99.99 0 0 1 0 1.978Z"/><path fill-rule="evenodd" clip-rule="evenodd" d="M81.154 93.496h-29.65a.989.989 0 0 1-.988-.989V47.041a.99.99 0 0 1 1.977 0v44.477h27.672V64.832a.989.989 0 0 1 1.978 0v27.675a.991.991 0 0 1-.989.99Z"/><path fill-rule="evenodd" clip-rule="evenodd" d="M91.036 65.82H59.41a.987.987 0 0 1-.903-.588L50.6 47.443a.986.986 0 0 1 .903-1.39h29.65a.99.99 0 0 1 .863.505L91.9 64.349a.992.992 0 0 1-.865 1.468v.003Zm-30.984-1.975h29.304l-8.78-15.814H53.021l7.03 15.814ZM81.154 85.587h-29.65a.989.989 0 0 1 0-1.978h29.65a.99.99 0 0 1 0 1.978Z"/><path fill-rule="evenodd" clip-rule="evenodd" d="M30.97 47.663a.99.99 0 0 1-.698-1.687l3.84-3.842a19.336 19.336 0 0 1-1.212-2.903h-5.423a.991.991 0 0 1-.989-.99v-9.857a.988.988 0 0 1 .99-.99h5.42c.322-.998.726-1.968 1.208-2.9l-3.844-3.844a.992.992 0 0 1 0-1.4l6.972-6.97a.98.98 0 0 1 1.395 0l3.845 3.844c.933-.48 1.903-.885 2.9-1.21v-5.43a.992.992 0 0 1 .99-.988h9.858a.992.992 0 0 1 .988.989v5.423c1 .324 1.97.729 2.904 1.211l3.839-3.84a.991.991 0 0 1 1.4 0l6.97 6.97a.986.986 0 0 1 0 1.398l-3.842 3.845c.48.932.884 1.903 1.208 2.9h5.429a.988.988 0 0 1 .989.99v9.857a.985.985 0 0 1-.99.99h-5.42c-.324 1-.73 1.971-1.21 2.905l3.838 3.84a.99.99 0 0 1-.322 1.612.987.987 0 0 1-1.078-.215l-4.359-4.359a.99.99 0 0 1-.161-1.188 17.09 17.09 0 0 0 1.604-3.852.989.989 0 0 1 .954-.719h5.166V29.37H68.97a.986.986 0 0 1-.95-.721 17.338 17.338 0 0 0-1.605-3.847.99.99 0 0 1 .159-1.186l3.658-3.665-5.573-5.575-3.665 3.665a.99.99 0 0 1-1.185.16 17.242 17.242 0 0 0-3.85-1.608.987.987 0 0 1-.721-.95v-5.17h-7.883v5.175a.986.986 0 0 1-.722.95 17.388 17.388 0 0 0-3.844 1.605.99.99 0 0 1-1.188-.16l-3.658-3.667-5.572 5.572 3.668 3.668a.989.989 0 0 1 .159 1.186 17.333 17.333 0 0 0-1.605 3.847.987.987 0 0 1-.95.721h-5.175v7.883h5.167a.988.988 0 0 1 .953.719 17.08 17.08 0 0 0 1.607 3.85 1.008 1.008 0 0 1-.161 1.188l-4.362 4.36a.977.977 0 0 1-.701.294Z"/><path fill-rule="evenodd" clip-rule="evenodd" d="M51.313 29.104a4.21 4.21 0 1 0 4.205 4.215 4.22 4.22 0 0 0-4.205-4.216Z"/><path fill-rule="evenodd" clip-rule="evenodd" d="M51.31 44.465a11.155 11.155 0 1 1 11.14-11.143 11.168 11.168 0 0 1-11.14 11.143Zm0-4.967a6.187 6.187 0 1 0-.01-12.375 6.187 6.187 0 0 0 .01 12.375ZM85.112 20.357a5.93 5.93 0 1 1 5.93-5.93 5.938 5.938 0 0 1-5.93 5.93Zm0-1.826a4.104 4.104 0 1 0 0-8.208 4.104 4.104 0 0 0 0 8.208ZM15.918 33.207a7.908 7.908 0 1 1 7.898-7.908 7.918 7.918 0 0 1-7.908 7.908h.01Zm0-1.826a6.082 6.082 0 1 0-6.08-6.082 6.09 6.09 0 0 0 6.08 6.082Z"/></svg><svg viewbox="0 0 100 101" id="cloud-base-card-3" xmlns="http://www.w3.org/2000/svg"><path d="M33.221 19.703h20.548a.936.936 0 0 1 .936.936v16.812a.936.936 0 0 1-.936.936H33.221a.936.936 0 0 1-.936-.936V20.64a.932.932 0 0 1 .936-.936Z"/><path fill-rule="evenodd" clip-rule="evenodd" d="M73.387 43.055H33.221a.936.936 0 0 1 0-1.87h40.166a.936.936 0 0 1 0 1.87ZM73.387 47.723H33.221a.936.936 0 0 1 0-1.869h40.166a.935.935 0 0 1 0 1.87ZM55.64 52.395H33.222a.933.933 0 1 1 0-1.866H55.64a.933.933 0 1 1 0 1.866ZM55.639 57.057H33.22a.936.936 0 0 1 0-1.869H55.64a.936.936 0 0 1 0 1.87ZM55.64 61.735H33.222a.933.933 0 1 1 0-1.867H55.64a.933.933 0 1 1 0 1.867ZM55.639 66.407H33.22a.936.936 0 0 1 0-1.869H55.64a.936.936 0 0 1 0 1.87Z"/><path fill-rule="evenodd" clip-rule="evenodd" d="M65.82 93.494H19.212a.798.798 0 0 1-.114 0h-.353a8.885 8.885 0 0 1-8.874-8.874V45.857a.933.933 0 0 1 .933-.931h14.941V9.429a.933.933 0 0 1 .936-.933h54.173a.933.933 0 0 1 .936.933v68.093a15.995 15.995 0 0 1-15.975 15.972h.005Zm-41.636-1.867H65.82a14.126 14.126 0 0 0 14.106-14.105V10.365h-52.31V84.62a8.866 8.866 0 0 1-3.432 7.007ZM11.738 46.793V84.63a7.006 7.006 0 1 0 14.012 0V46.793H11.738ZM86.461 93.495a4.672 4.672 0 1 1-.005-9.343 4.672 4.672 0 0 1 .005 9.343Zm0-7.474a2.803 2.803 0 1 0-.005 5.606 2.803 2.803 0 0 0 .005-5.606Z"/><path fill-rule="evenodd" clip-rule="evenodd" d="M14.538 31.847a6.538 6.538 0 1 1 6.539-6.538 6.558 6.558 0 0 1-6.539 6.538Zm0-11.207a4.672 4.672 0 1 0 0 9.344 4.672 4.672 0 0 0 0-9.344Z"/></svg><svg viewbox="0 0 100 101" id="cloud-base-card-4" xmlns="http://www.w3.org/2000/svg"><path fill-rule="evenodd" clip-rule="evenodd" d="M79.088 93.42H23.78a.99.99 0 0 1-1.002-.976V9.484a.989.989 0 0 1 .99-.988h55.305a.989.989 0 0 1 .987.989v82.96a.986.986 0 0 1-.987.985l.014-.01Zm-54.323-1.975h53.334V10.453H24.765v80.992Z"/><path fill-rule="evenodd" clip-rule="evenodd" d="M47.228 40.55a.98.98 0 0 1-.707-.281l-5.935-5.938a3.455 3.455 0 1 1 4.886-4.886l1.746 1.743 10.826-10.824a3.458 3.458 0 0 1 4.892 4.889L47.927 40.269a.987.987 0 0 1-.699.282ZM40.568 57.862h-7.902a.989.989 0 0 1-.988-.989v-7.9a.989.989 0 0 1 .988-.988h7.902a.989.989 0 0 1 .986.989v7.899a.986.986 0 0 1-.986.989Zm-6.915-1.975h5.927V49.96h-5.927v5.927ZM64.272 51.937H45.504a.989.989 0 1 1 0-1.977h18.768a.988.988 0 1 1 0 1.975v.002ZM72.174 56.873h-26.67a.988.988 0 0 1 0-1.975h26.67a.99.99 0 0 1 0 1.975ZM40.568 70.703h-7.902a.985.985 0 0 1-.988-.986v-7.902a.987.987 0 0 1 .988-.986h7.902a.986.986 0 0 1 .986.986v7.902a.986.986 0 0 1-.986.986ZM64.272 64.776H45.505a.988.988 0 0 1 0-1.975h18.767a.989.989 0 1 1 0 1.975ZM72.174 69.715h-26.67a.988.988 0 0 1 0-1.975h26.67a.989.989 0 0 1 0 1.975ZM40.568 83.543h-7.902a.985.985 0 0 1-.988-.988v-7.9a.989.989 0 0 1 .988-.989h7.902a.99.99 0 0 1 .986.99v7.899a.985.985 0 0 1-.986.988ZM55.389 77.616h-9.877a.989.989 0 1 1 0-1.975h9.877a.989.989 0 1 1 0 1.975ZM62.297 82.555H45.505a.989.989 0 0 1 0-1.975h16.792a.99.99 0 0 1 .96 1.377.989.989 0 0 1-.96.598ZM88.963 27.243a4.939 4.939 0 1 1 0-9.877 4.939 4.939 0 0 1 0 9.877Zm0-7.899a2.964 2.964 0 1 0 0 5.927 2.964 2.964 0 0 0 0-5.927ZM12.913 82.554a6.913 6.913 0 1 1 6.913-6.913 6.921 6.921 0 0 1-6.913 6.913Zm0-11.852a4.941 4.941 0 1 0 4.939 4.939 4.957 4.957 0 0 0-4.939-4.939Z"/></svg><svg viewbox="0 0 100 98" id="sci_1" xmlns="http://www.w3.org/2000/svg"><path fill-rule="evenodd" clip-rule="evenodd" d="M93.109 97.495H6.89A6.896 6.896 0 0 1 0 90.607v-4a6.897 6.897 0 0 1 6.891-6.888h31.998a1.11 1.11 0 0 1 1.11 1.11v3.332H60v-3.326a1.11 1.11 0 0 1 1.11-1.11H93.11A6.897 6.897 0 0 1 100 86.613v4a6.903 6.903 0 0 1-6.891 6.888v-.006ZM6.888 81.94a4.671 4.671 0 0 0-4.665 4.668v4a4.671 4.671 0 0 0 4.665 4.668h86.218a4.674 4.674 0 0 0 4.668-4.668v-4a4.674 4.674 0 0 0-4.668-4.668H62.221v3.347a1.106 1.106 0 0 1-1.11 1.11H38.886a1.11 1.11 0 0 1-1.11-1.11V81.94H6.888ZM23.886 16.109a8.054 8.054 0 1 1 8.049-8.055 8.063 8.063 0 0 1-8.057 8.055h.008Zm0-13.89a5.834 5.834 0 1 0 0 11.67 5.834 5.834 0 0 0 0-11.67Z"/><path fill-rule="evenodd" clip-rule="evenodd" d="M91.11 81.939H7.778a1.11 1.11 0 0 1-1.113-1.11V33.663a11.458 11.458 0 0 1 11.446-11.444H80.78a11.459 11.459 0 0 1 11.443 11.444v47.172a1.112 1.112 0 0 1-1.113 1.11v-.006Zm-82.221-2.22h81.107V33.663a9.23 9.23 0 0 0-9.217-9.215H18.112a9.232 9.232 0 0 0-9.223 9.22v46.05ZM76.666 16.388a5.559 5.559 0 1 1 5.559-5.559 5.565 5.565 0 0 1-5.559 5.559Zm0-8.889a3.333 3.333 0 1 0 .03 6.666 3.333 3.333 0 0 0-.03-6.666Z"/><path fill-rule="evenodd" clip-rule="evenodd" d="M91.108 76.383H7.778a1.114 1.114 0 1 1 0-2.223h83.33a1.113 1.113 0 0 1 0 2.223ZM28.906 46.011a4.179 4.179 0 0 0 4.122-4.053v-5.17H24.68v5.045a4.178 4.178 0 0 0 4.119 4.175h.11l-.003.003ZM26.244 34.556h7.286l6.502-10.117-3.671.003-10.117 10.114ZM42.672 24.442 36.17 34.556h7.642l2.17-10.117-3.31.003ZM43.601 36.779H35.25v5.178a4.174 4.174 0 0 0 7.143 2.918 4.175 4.175 0 0 0 1.208-2.96V36.78ZM48.252 24.442l-2.166 10.114h7.826L51.745 24.44l-3.493.003ZM56.185 34.556h7.639l-6.5-10.117-3.308.003 2.169 10.114ZM64.75 36.779h-8.351v5.045a4.175 4.175 0 1 0 8.35.077v-5.134.012ZM59.965 24.442l6.5 10.114h7.288L63.636 24.439l-3.671.003Z"/><path fill-rule="evenodd" clip-rule="evenodd" d="M60.575 48.234a6.392 6.392 0 0 0-10.574 0 6.396 6.396 0 0 0-10.577 0 5.421 5.421 0 0 0-9.461-.095v16.302h40.064V48.139a5.422 5.422 0 0 0-9.464.095h.012ZM28.796 46.011c2.238-.027 4.155-1.822 4.232-4.05v-5.17H24.68v5.045a4.178 4.178 0 0 0 4.119 4.175h-.003Zm42.299 0a4.27 4.27 0 0 0 4.229-4.175V36.79h-8.355v5.045a4.178 4.178 0 0 0 4.14 4.176h-.014Z"/><path fill-rule="evenodd" clip-rule="evenodd" d="M54.173 36.779h-8.35v5.178a4.176 4.176 0 1 0 8.35-.118v-5.06Z"/></svg><svg viewbox="0 0 101 98" id="sci_2" xmlns="http://www.w3.org/2000/svg"><path fill-rule="evenodd" clip-rule="evenodd" d="M93.612 97.507H7.391A6.896 6.896 0 0 1 .5 90.619v-4a6.897 6.897 0 0 1 6.891-6.888h31.998a1.113 1.113 0 0 1 1.113 1.112v3.333h20V80.84a1.112 1.112 0 0 1 1.112-1.11h31.998a6.894 6.894 0 0 1 6.888 6.888v4.001a6.896 6.896 0 0 1-6.888 6.888ZM7.391 81.953a4.674 4.674 0 0 0-4.668 4.668v4.001a4.671 4.671 0 0 0 4.668 4.665h86.221a4.671 4.671 0 0 0 4.668-4.665v-4a4.674 4.674 0 0 0-4.668-4.669H62.724v3.333a1.113 1.113 0 0 1-1.11 1.113H39.39a1.109 1.109 0 0 1-1.11-1.113v-3.333H7.391ZM24.39 16.115a8.058 8.058 0 1 1 8.055-8.055 8.067 8.067 0 0 1-8.055 8.055Zm0-13.89a5.834 5.834 0 1 0 5.835 5.835 5.837 5.837 0 0 0-5.835-5.828v-.006Z"/><path fill-rule="evenodd" clip-rule="evenodd" d="M91.611 81.953H8.278a1.11 1.11 0 0 1-1.11-1.112V33.675A11.458 11.458 0 0 1 18.615 22.23H81.28a11.458 11.458 0 0 1 11.443 11.447v47.166a1.113 1.113 0 0 1-1.113 1.11ZM9.388 79.731h81.113V33.678a9.232 9.232 0 0 0-9.223-9.224H18.612a9.233 9.233 0 0 0-9.224 9.224V79.73ZM77.165 16.412a5.558 5.558 0 1 1-.006-11.117 5.558 5.558 0 0 1 .006 11.117Zm0-8.889a3.333 3.333 0 1 0 3.333 3.333 3.332 3.332 0 0 0-3.333-3.348v.015Z"/><path fill-rule="evenodd" clip-rule="evenodd" d="M91.611 73.341H8.278a1.112 1.112 0 0 1 0-2.223h83.333a1.113 1.113 0 1 1 0 2.223Z"/><path d="M36.056 47.786h-6.665v16.667h6.665V47.786Z"/><path fill-rule="evenodd" clip-rule="evenodd" d="M38.28 46.676v17.776h6.665V44.454h-6.666v2.223ZM56.059 40.008v24.445h6.668V37.78H56.06v2.158a.447.447 0 0 1 0 .071ZM64.945 36.675v27.778h6.666V34.455h-6.666v2.22ZM47.168 43.711v20.742h6.666V41.12h-6.666v2.59Z"/></svg><svg viewbox="0 0 100 101" id="sci_3" xmlns="http://www.w3.org/2000/svg"><path fill-rule="evenodd" clip-rule="evenodd" d="M60.095 85.75a1.11 1.11 0 0 1-.653-.212l-9-6.542-9.002 6.542a1.11 1.11 0 0 1-1.706-1.255l3.437-10.582-9-6.539a1.11 1.11 0 0 1 .652-2.01H45.95l3.437-10.58a1.11 1.11 0 0 1 2.111 0l3.44 10.58h11.124a1.11 1.11 0 0 1 .653 2.01l-9 6.54 3.437 10.581a1.11 1.11 0 0 1-.405 1.243 1.095 1.095 0 0 1-.652.225ZM80.005 30.892H21.11a1.117 1.117 0 0 1-1.083-.866 1.105 1.105 0 0 1 .002-.497L26.698.862a1.11 1.11 0 0 1 1.08-.86h45.559a1.108 1.108 0 0 1 1.084.86l6.668 28.667a1.107 1.107 0 0 1-1.084 1.363Zm-57.49-2.225H78.61L72.46 2.222H28.655l-6.141 26.445Z"/><path fill-rule="evenodd" clip-rule="evenodd" d="M71.974 30.892H29.155a1.114 1.114 0 0 1-1.092-1.311L33.249.913A1.11 1.11 0 0 1 34.345 0h32.452a1.114 1.114 0 0 1 1.096.913l5.186 28.67a1.113 1.113 0 0 1-1.093 1.309h-.012Zm-41.501-2.225h40.171l-4.79-26.445H35.26l-4.788 26.445Z"/><path fill-rule="evenodd" clip-rule="evenodd" d="M63.481 30.892H37.637a1.107 1.107 0 0 1-1.104-1.234L39.662.991A1.113 1.113 0 0 1 40.766 0h19.586a1.114 1.114 0 0 1 1.105.991l3.129 28.667a1.11 1.11 0 0 1-1.105 1.234Zm-24.607-2.225h23.355L59.34 2.222H41.749l-2.875 26.445Z"/><path fill-rule="evenodd" clip-rule="evenodd" d="M55.16 30.892h-9.2a1.112 1.112 0 0 1-1.112-1.156L45.962 1.07A1.11 1.11 0 0 1 47.07 0h6.974a1.11 1.11 0 0 1 1.11 1.069l1.115 28.667a1.114 1.114 0 0 1-1.108 1.156Zm-8.048-2.225H54L52.972 2.222h-4.836l-1.024 26.445Z"/><path fill-rule="evenodd" clip-rule="evenodd" d="M65.718 45.058a1.111 1.111 0 0 1-.782-1.901l12.37-12.277H23.81l12.277 12.193a1.112 1.112 0 0 1-1.566 1.578L20.319 30.557a1.112 1.112 0 0 1 .781-1.902h58.892a1.11 1.11 0 0 1 .781 1.902L66.5 44.758c-.21.2-.491.307-.781.3Z"/><path fill-rule="evenodd" clip-rule="evenodd" d="M50.449 100.895a31.11 31.11 0 0 1-30.52-37.181 31.113 31.113 0 0 1 61.63 6.068 31.14 31.14 0 0 1-31.11 31.113Zm0-60.002a28.892 28.892 0 1 0 28.889 28.889 28.922 28.922 0 0 0-28.89-28.89Z"/><path fill-rule="evenodd" clip-rule="evenodd" d="M72.95 70.893a1.107 1.107 0 0 1-1.11-1.111 21.415 21.415 0 0 0-21.391-21.388 1.114 1.114 0 0 1 0-2.225 23.655 23.655 0 0 1 23.613 23.613 1.114 1.114 0 0 1-1.111 1.11ZM93.332 27.78a6.669 6.669 0 1 1 6.669-6.667 6.676 6.676 0 0 1-6.669 6.668Zm0-11.114a4.446 4.446 0 1 0 0 8.893 4.446 4.446 0 0 0 0-8.893ZM8.893 61.116a8.89 8.89 0 1 1 8.887-8.89 8.902 8.902 0 0 1-8.887 8.89Zm0-15.57a6.669 6.669 0 1 0 6.665 6.668 6.674 6.674 0 0 0-6.665-6.656v-.012Z"/></svg></svg>