<?xml version="1.0" encoding="utf-8"?><svg viewbox="0 0 20 20" xmlns="http://www.w3.org/2000/svg" xmlns:xlink="http://www.w3.org/1999/xlink"><style>:root>svg{display:none}:root>svg:target{display:block}</style><svg viewbox="0 0 20 20" id="delivery-icon-1" xmlns="http://www.w3.org/2000/svg"><path d="M15.313 20H4.687A4.693 4.693 0 0 1 0 15.312V4.688A4.693 4.693 0 0 1 4.688 0h10.625A4.693 4.693 0 0 1 20 4.688v10.625A4.693 4.693 0 0 1 15.312 20ZM4.687 1.562a3.129 3.129 0 0 0-3.125 3.125v10.625a3.129 3.129 0 0 0 3.125 3.126h10.625a3.129 3.129 0 0 0 3.126-3.125V4.687a3.129 3.129 0 0 0-3.125-3.125H4.687Zm8.065 14.727c-.328 0-.658-.079-.964-.238l-1.548-.805a.52.52 0 0 0-.48 0l-1.548.805a2.07 2.07 0 0 1-2.19-.165 2.042 2.042 0 0 1-.814-2.009l.295-1.706a.49.49 0 0 0-.144-.436l-1.252-1.209C2.87 9.354 3.57 7.236 5.254 7.01l1.73-.249a.51.51 0 0 0 .385-.274l.774-1.553c.74-1.519 2.975-1.518 3.714 0l.774 1.553a.51.51 0 0 0 .384.274l1.731.25c1.685.225 2.382 2.344 1.147 3.515l-1.252 1.209a.49.49 0 0 0-.144.436l.295 1.706a2.042 2.042 0 0 1-.814 2.008 2.074 2.074 0 0 1-1.226.404ZM10 13.624c.33 0 .66.079.962.236l1.548.805a.507.507 0 0 0 .546-.04.48.48 0 0 0 .197-.481l-.296-1.707a2.05 2.05 0 0 1 .599-1.827l1.252-1.208a.476.476 0 0 0 .128-.502.492.492 0 0 0-.412-.343l-1.73-.249a2.071 2.071 0 0 1-1.561-1.124l-.774-1.552a.515.515 0 0 0-.918 0l-.774 1.552a2.071 2.071 0 0 1-1.56 1.124l-1.73.249a.492.492 0 0 0-.413.343.476.476 0 0 0 .128.502l1.252 1.208a2.05 2.05 0 0 1 .599 1.828l-.296 1.706a.48.48 0 0 0 .197.48.506.506 0 0 0 .547.041l1.547-.805c.301-.157.632-.236.962-.236Z"/></svg><svg viewbox="0 0 20 20" id="delivery-icon-2" xmlns="http://www.w3.org/2000/svg"><path d="M5.977 12.54c0 .538-.438.976-.977.976-1.295-.052-1.295-1.902 0-1.954.54 0 .977.438.977.977Zm2.382-.977a.977.977 0 0 0-.976.976c.051 1.296 1.902 1.295 1.953 0a.977.977 0 0 0-.977-.976Zm3.36 0a.977.977 0 0 0-.977.976c.052 1.296 1.902 1.295 1.953 0a.977.977 0 0 0-.976-.976ZM5 14.921a.977.977 0 0 0-.977.976c.052 1.296 1.902 1.296 1.954 0A.977.977 0 0 0 5 14.922Zm3.36 0a.977.977 0 0 0-.977.976c.051 1.296 1.902 1.296 1.953 0a.977.977 0 0 0-.977-.976Zm3.359 0a.977.977 0 0 0-.977.976c.052 1.296 1.902 1.296 1.953 0a.977.977 0 0 0-.976-.976Zm3.36 0a.977.977 0 0 0-.977.976c.051 1.296 1.901 1.296 1.953 0a.977.977 0 0 0-.977-.976ZM20 8.906v6.406A4.693 4.693 0 0 1 15.312 20H4.688A4.693 4.693 0 0 1 0 15.312V8.907A4.693 4.693 0 0 1 4.688 4.22h10.625A4.693 4.693 0 0 1 20 8.906Zm-1.563 0a3.129 3.129 0 0 0-3.125-3.125H4.688a3.129 3.129 0 0 0-3.125 3.125v6.406a3.129 3.129 0 0 0 3.125 3.126h10.625a3.129 3.129 0 0 0 3.124-3.125V8.905Zm-2.343-.39H3.906c-1.036.04-1.036 1.521 0 1.562h12.188c1.036-.041 1.035-1.521 0-1.562ZM7.89 2.344a.781.781 0 1 1-1.563 0 .782.782 0 0 0-1.562 0 .781.781 0 1 1-1.563 0c.129-3.11 4.56-3.109 4.688 0ZM14.53 0a2.346 2.346 0 0 0-2.344 2.344.781.781 0 0 0 1.563 0 .782.782 0 0 1 1.563 0 .781.781 0 0 0 1.562 0A2.346 2.346 0 0 0 14.531 0Zm.547 11.563a.977.977 0 0 0-.976.976c.051 1.296 1.901 1.295 1.953 0a.977.977 0 0 0-.977-.976Z"/></svg><svg viewbox="0 0 20 20" id="delivery-icon-3" xmlns="http://www.w3.org/2000/svg"><path d="M11.54 20H4.678A4.688 4.688 0 0 1 0 15.312V4.688A4.688 4.688 0 0 1 4.678 0h10.605a4.688 4.688 0 0 1 4.678 4.687v3.946c-.041 1.036-1.519 1.036-1.56 0V4.687c0-1.723-1.399-3.125-3.118-3.125H4.678A3.126 3.126 0 0 0 1.56 4.688v10.625c0 1.724 1.4 3.126 3.12 3.126h6.861c1.035.04 1.034 1.521 0 1.562Zm-.967-13.121 2.415-2.42a.782.782 0 0 0 0-1.105.779.779 0 0 0-1.103 0L9.47 5.774a.78.78 0 0 1-1.105-.002L5.973 3.356a.779.779 0 0 0-1.103-.004.782.782 0 0 0-.004 1.105l2.392 2.415c.442.446 1.03.692 1.656.693h.005c.625 0 1.212-.244 1.654-.686Zm-6.08 6.091 1.675-1.701c.896-.911.893-2.39-.006-3.297L4.49 6.285a.779.779 0 0 0-1.103-.003.782.782 0 0 0-.004 1.104l1.671 1.686c.3.303.3.796.002 1.1l-1.675 1.701a.782.782 0 0 0 .556 1.33.777.777 0 0 0 .555-.233Zm12.964 6.238C19.144 17.062 20 15.425 20 14.342c0-2.308-1.871-4.186-4.171-4.186-2.3 0-4.172 1.878-4.172 4.186 0 1.083.855 2.72 2.543 4.866.396.503.99.792 1.629.792a2.06 2.06 0 0 0 1.628-.792Zm.983-4.866c0 .527-.58 1.828-2.208 3.9a.51.51 0 0 1-.807 0c-1.628-2.072-2.209-3.373-2.209-3.9a2.62 2.62 0 0 1 2.613-2.623 2.62 2.62 0 0 1 2.611 2.623ZM4.717 16.875c-.684.004-1.043-.844-.551-1.334L15.511 4.174a.779.779 0 0 1 1.103 0c.304.305.304.8 0 1.105L5.269 16.646a.776.776 0 0 1-.552.229Zm10.137-2.617c0 .54.436.976.975.976 1.292-.051 1.292-1.902 0-1.953a.976.976 0 0 0-.975.977Z"/></svg><svg viewbox="0 0 20 16" id="email" xmlns="http://www.w3.org/2000/svg"><path d="M15.313 16H4.687C2.103 16 0 13.868 0 11.248V4.752C0 2.132 2.103 0 4.688 0h10.625C17.896 0 20 2.132 20 4.752v6.496C20 13.867 17.897 16 15.312 16ZM4.687 1.584c-1.723 0-3.125 1.421-3.125 3.168v6.496c0 1.747 1.402 3.168 3.125 3.168h10.625c1.724 0 3.126-1.421 3.126-3.168V4.752c0-1.747-1.402-3.168-3.125-3.168H4.687Zm8.176 7.818 3.861-2.99a.8.8 0 0 0 .147-1.11.774.774 0 0 0-1.095-.15l-3.861 2.991a3.099 3.099 0 0 1-3.788.002L4.386 5.196a.774.774 0 0 0-1.097.14.8.8 0 0 0 .138 1.111L7.17 9.398a4.64 4.64 0 0 0 2.848.975 4.641 4.641 0 0 0 2.844-.97Z"/></svg><svg viewbox="0 0 16 16" id="instagram" xmlns="http://www.w3.org/2000/svg"><path d="M13.723 0H2.277C.985 0 0 .985 0 2.277v11.446C0 15.015.985 16 2.277 16h11.446C15.015 16 16 15.015 16 13.723V2.277C16 .985 15.015 0 13.723 0ZM8 12.8c2.646 0 4.8-2.092 4.8-4.615 0-.431-.062-.923-.185-1.293h1.354v6.523a.617.617 0 0 1-.615.616H2.646a.617.617 0 0 1-.615-.616V6.831h1.415c-.123.43-.184.861-.184 1.292C3.2 10.708 5.354 12.8 8 12.8Zm0-1.846c-1.723 0-3.077-1.354-3.077-3.016 0-1.661 1.354-3.015 3.077-3.015 1.723 0 3.077 1.354 3.077 3.015 0 1.724-1.354 3.016-3.077 3.016Zm5.908-6.585c0 .37-.308.677-.677.677h-1.723a.683.683 0 0 1-.677-.677V2.708c0-.37.308-.677.677-.677h1.723c.369 0 .677.307.677.677v1.661Z"/></svg><svg viewbox="0 0 20 20" id="phone" xmlns="http://www.w3.org/2000/svg"><path d="M12.928 20C4.908 19.94-4.488 8.264 2.378 1.398c.243-.248.502-.486.767-.709a2.923 2.923 0 0 1 2-.683 2.9 2.9 0 0 1 1.95.86L8.416 2.24c1.431 1.4.924 3.923-.942 4.653-.578.235-.946.444-1.045.515-.728.741-1.192 1.946 1.532 4.673.884.884 2.193 2.06 3.353 2.06.47 0 .901-.198 1.318-.607.054-.08.242-.398.483-1 .723-1.877 3.254-2.399 4.66-.959l1.358 1.314.01.01a2.911 2.911 0 0 1 .174 3.93c-.208.248-.43.49-.659.72C17.042 19.168 15.083 20 12.928 20ZM5.027 1.564c-.31 0-.62.107-.877.322-.228.19-.449.395-.658.607-3.66 3.715-1.649 8.789 1.868 12.262 3.485 3.465 8.538 5.36 12.193 1.69a9.41 9.41 0 0 0 .564-.617 1.348 1.348 0 0 0-.076-1.822l-1.357-1.313-.01-.009a1.267 1.267 0 0 0-1.168-.352 1.27 1.27 0 0 0-.939.784c-.11.272-.49 1.184-.805 1.499-.721.722-1.545 1.088-2.447 1.088-1.721 0-3.287-1.346-4.46-2.519-1.777-1.704-3.833-4.611-1.512-6.9.329-.328 1.263-.724 1.541-.838.405-.164.687-.505.774-.935a1.276 1.276 0 0 0-.363-1.183L5.973 1.956a1.34 1.34 0 0 0-.946-.392Zm14.19 7.774a.782.782 0 0 1-.777-.711 7.799 7.799 0 0 0-7.074-7.068.781.781 0 1 1 .14-1.556c4.397.329 8.162 4.091 8.49 8.484a.781.781 0 0 1-.779.85Zm-6.09-.001a.78.78 0 0 0 .494-.989 3.161 3.161 0 0 0-1.924-1.973.782.782 0 0 0-.521 1.473c.447.158.807.53.962.995a.782.782 0 0 0 .989.494Zm3.071-.007a.781.781 0 0 0 .663-.884 6.295 6.295 0 0 0-5.314-5.31c-1.032-.106-1.242 1.359-.222 1.547a4.724 4.724 0 0 1 3.989 3.984.782.782 0 0 0 .884.663Z"/></svg><svg viewbox="0 0 20 20" id="search" xmlns="http://www.w3.org/2000/svg"><path d="M11.76 16.452C.824 16 .826.45 11.76 0c2.202 0 4.272.853 5.828 2.401 5.18 5.114 1.452 14.071-5.828 14.051Zm0-14.893c-3.684 0-6.681 2.991-6.681 6.667.371 8.85 13 8.84 13.362-.015 0-3.668-2.997-6.652-6.681-6.652ZM.78 20a.78.78 0 0 1-.55-1.333l3.516-3.489a.783.783 0 0 1 1.105.003.779.779 0 0 1-.003 1.103l-3.517 3.49a.78.78 0 0 1-.55.226Z"/></svg><svg viewbox="0 0 16 16" id="vk" xmlns="http://www.w3.org/2000/svg"><path d="M15.851 11.973c0-.069-.063-.069-.063-.137-.255-.548-.828-1.233-1.592-1.987-.382-.342-.573-.616-.7-.753-.191-.274-.191-.48-.127-.754.063-.205.318-.547.764-1.164.254-.342.382-.548.573-.753.954-1.37 1.4-2.26 1.273-2.672l-.064-.068c-.064-.069-.127-.137-.255-.137-.127-.069-.318-.069-.509 0h-2.865l-.063.068c-.064.069-.064.069-.064.137-.255.754-.573 1.37-.891 2.055a11.8 11.8 0 0 1-.573.96c-.191.273-.318.479-.446.616-.127.137-.254.205-.318.342-.064.069-.191.137-.191.069-.064 0-.127 0-.127-.069l-.191-.205c-.064-.069-.064-.206-.128-.343V3.754c0-.07-.063-.206-.063-.275l-.191-.205c-.064-.069-.191-.069-.255-.137A5.325 5.325 0 0 0 7.64 3c-1.018 0-1.719.068-1.973.205-.128.069-.255.137-.319.274-.127.137-.127.206-.063.206.318.068.573.205.7.41l.064.138c.063.068.063.205.127.41.064.206.064.412.064.686v1.096c0 .342-.064.548-.064.753 0 .206-.064.343-.127.411-.064.137-.064.206-.128.206 0 0 0 .068-.063.068-.064 0-.128.069-.255.069-.064 0-.19-.069-.255-.137a.799.799 0 0 1-.318-.343c-.127-.137-.254-.342-.382-.616-.127-.274-.318-.548-.445-.96l-.128-.273a10.06 10.06 0 0 1-.318-.754c-.127-.342-.255-.616-.382-.959a.942.942 0 0 0-.191-.274h-.064s-.063-.068-.127-.068-.127-.069-.19-.069H.508c-.254 0-.382.069-.445.137L0 3.685v.137c0 .068 0 .137.064.274.318.822.7 1.644 1.082 2.466.382.753.764 1.438 1.018 1.917.319.48.573.96.892 1.37.318.411.509.685.573.822l.254.274.191.206c.128.137.319.342.573.548.255.205.573.41.891.616.319.206.7.343 1.083.48.445.136.827.205 1.21.136h.954a.56.56 0 0 0 .446-.205l.063-.069c0-.068.064-.068.064-.136v-.274c0-.274 0-.48.064-.685.063-.206.063-.343.127-.48a.942.942 0 0 1 .191-.274l.127-.137h.064c.127-.068.318 0 .446.137.19.137.382.343.509.548.127.206.318.411.573.685.255.274.446.48.573.548l.19.137c.128.068.255.137.446.205.191.069.319.069.446.069l2.164-.069c.191 0 .382-.068.51-.136.127-.069.19-.137.19-.274v-.274c-.127-.137-.127-.206-.127-.274Z"/></svg><svg viewbox="0 0 16 16" id="whatsup" xmlns="http://www.w3.org/2000/svg"><path d="M13.659 2.333A7.945 7.945 0 0 0 8.027 0C3.624 0 .056 3.556.056 7.944c0 1.39.39 2.778 1.059 3.945L0 16l4.237-1.111a8.151 8.151 0 0 0 3.79.944c4.405 0 7.973-3.555 7.973-7.944-.056-2.056-.836-4.056-2.341-5.556Zm-1.784 8.445c-.168.444-.948.889-1.338.944-.335.056-.78.056-1.227-.055-.279-.111-.669-.223-1.115-.445-2.007-.833-3.29-2.833-3.4-3-.112-.11-.837-1.055-.837-2.055 0-1 .502-1.445.67-1.667.166-.222.39-.222.557-.222h.39c.111 0 .279-.056.446.333.167.389.557 1.389.613 1.445a.353.353 0 0 1 0 .333 1.162 1.162 0 0 1-.223.333c-.111.111-.223.278-.279.334-.111.11-.223.222-.111.388.111.223.502.834 1.115 1.39.78.666 1.394.888 1.617 1 .223.11.334.055.446-.056.111-.111.501-.556.613-.778.111-.222.279-.167.446-.111.167.055 1.17.555 1.338.667.223.11.334.166.39.222.056.166.056.555-.111 1Z"/></svg></svg>