<?xml version="1.0" encoding="utf-8"?><svg viewbox="0 0 95 35" xmlns="http://www.w3.org/2000/svg" xmlns:xlink="http://www.w3.org/1999/xlink"><style>:root>svg{display:none}:root>svg:target{display:block}</style><svg viewbox="0 0 30 30" id="in" xmlns="http://www.w3.org/2000/svg"><path d="M20.25 6H9.75A3.75 3.75 0 0 0 6 9.75v10.5A3.75 3.75 0 0 0 9.75 24h10.5A3.75 3.75 0 0 0 24 20.25V9.75A3.75 3.75 0 0 0 20.25 6ZM12 20.25H9.75V12H12v8.25Zm-1.125-9.201a1.318 1.318 0 0 1-1.313-1.323c0-.73.588-1.323 1.313-1.323s1.313.592 1.313 1.323c0 .73-.588 1.323-1.313 1.323ZM21 20.25h-2.25v-4.203c0-2.526-3-2.335-3 0v4.203H13.5V12h2.25v1.324C16.797 11.384 21 11.24 21 15.18v5.069Z"/></svg><svg viewbox="0 0 95 35" id="logo" xmlns="http://www.w3.org/2000/svg"><g clip-path="url(#ba)"><path d="M7.966 0v14.592c1.4-1.018 2.709-1.788 3.938-2.297 1.227-.509 2.373-.763 3.44-.763 2.323 0 4.256 1.011 5.796 3.029 1.54 2.017 2.31 4.582 2.31 7.694 0 3.583-1.018 6.51-3.055 8.788-2.035 2.278-4.65 3.417-7.856 3.417a7.48 7.48 0 0 1-2.405-.4 7.345 7.345 0 0 1-2.17-1.178L2.17 34.556V8.554c0-1.336-.166-2.507-.496-3.513C1.342 4.042.782 2.985 0 1.885L7.966 0Zm0 31.321a13.89 13.89 0 0 0 1.634.439 7.69 7.69 0 0 0 1.45.152c1.947 0 3.519-.789 4.714-2.367 1.196-1.578 1.788-3.69 1.788-6.325 0-2.622-.598-4.684-1.787-6.186-1.196-1.502-2.825-2.253-4.9-2.253-.343 0-.73.026-1.164.07a24.86 24.86 0 0 0-1.73.261V31.32h-.005v.001ZM45.595 22.062H31.408v.376c0 2.952.776 5.198 2.334 6.726 1.553 1.534 3.817 2.298 6.789 2.298.661 0 1.418-.045 2.27-.128a61.076 61.076 0 0 0 2.959-.388c-1.38 1.272-2.863 2.233-4.44 2.889-1.578.649-3.239.98-4.982.98-3.301 0-5.936-1.031-7.908-3.087-1.973-2.056-2.958-4.817-2.958-8.272 0-3.506 1.03-6.37 3.098-8.591 2.067-2.221 4.733-3.334 7.997-3.334 2.792 0 5 .917 6.61 2.756 1.61 1.839 2.417 4.352 2.417 7.541v.234h.001Zm-6.177-2.03c0-2.087-.318-3.709-.955-4.855-.637-1.146-1.534-1.718-2.697-1.718-1.38 0-2.442.656-3.181 1.966-.738 1.311-1.126 3.233-1.152 5.765l7.985-1.158ZM55.26 0v27.224c0 1.604.145 2.901.437 3.9.292.999.744 2.018 1.355 3.055h-9.359c.611-1.069 1.063-2.106 1.356-3.124.292-1.012.438-2.291.438-3.831V8.553c0-1.336-.172-2.507-.509-3.513-.344-.999-.903-2.056-1.687-3.156L55.26 0ZM67.557 0v27.224c0 1.604.146 2.901.438 3.9.293.999.745 2.018 1.354 3.055h-9.351c.61-1.069 1.063-2.106 1.355-3.124.292-1.012.438-2.291.438-3.831V8.553c0-1.336-.172-2.507-.51-3.513-.343-.999-.902-2.056-1.69-3.156L67.556 0ZM71.984 23.215c0-3.538 1.074-6.37 3.226-8.496 2.149-2.132 5.02-3.194 8.601-3.194 3.441 0 6.164 1.05 8.175 3.144 2.011 2.1 3.016 4.932 3.016 8.496 0 3.595-1.069 6.471-3.206 8.616-2.138 2.145-5 3.22-8.602 3.22-3.44 0-6.17-1.063-8.187-3.182-2.012-2.12-3.023-4.99-3.023-8.604Zm11.45-9.896c-1.57 0-2.805.866-3.709 2.59-.902 1.731-1.353 4.118-1.353 7.166 0 3.124.464 5.587 1.393 7.388.929 1.802 2.183 2.699 3.772 2.699 1.616 0 2.882-.866 3.791-2.604.91-1.737 1.368-4.181 1.368-7.344 0-3.124-.464-5.555-1.394-7.292-.928-1.737-2.212-2.603-3.868-2.603Z"/></g><defs><clippath id="ba"><path d="M0 0h95v35H0z"/></clippath></defs></svg><svg viewbox="0 0 30 30" id="tiktok" xmlns="http://www.w3.org/2000/svg"><path fill-rule="evenodd" clip-rule="evenodd" d="M18.915 6c.289 2.554 1.674 4.077 4.082 4.24v2.872c-1.396.14-2.618-.329-4.04-1.215v5.374c0 6.826-7.23 8.96-10.136 4.066-1.868-3.148-.724-8.673 5.267-8.894v3.03a8.467 8.467 0 0 0-1.39.35c-1.333.465-2.088 1.334-1.879 2.868.404 2.938 5.64 3.807 5.205-1.933V6.005h2.891V6Z"/></svg><svg viewbox="0 0 30 30" id="youtube" xmlns="http://www.w3.org/2000/svg"><path d="m15.576 23.976-5.334-.097c-1.727-.034-3.459.034-5.152-.319-2.576-.527-2.758-3.108-2.95-5.274a37.035 37.035 0 0 1 .336-9.166c.28-1.694 1.384-2.705 3.09-2.815 5.758-.4 11.555-.352 17.3-.166.607.017 1.218.11 1.817.217 2.953.518 3.025 3.444 3.217 5.908.19 2.488.11 4.99-.255 7.462-.293 2.046-.853 3.762-3.217 3.928-2.962.217-5.856.391-8.827.336 0-.013-.017-.014-.025-.014Zm-3.136-5.181c2.232-1.283 4.422-2.544 6.641-3.818-2.236-1.283-4.421-2.544-6.641-3.818v7.636Z"/></svg><svg viewbox="0 0 30 30" id="zaprebook" xmlns="http://www.w3.org/2000/svg"><path fill-rule="evenodd" clip-rule="evenodd" d="M16.842 24v-8.21h2.653l.397-3.201h-3.05v-2.042c0-.927.247-1.558 1.527-1.558L20 8.988V6.126C19.718 6.086 18.75 6 17.623 6c-2.352 0-3.963 1.492-3.963 4.23v2.36H11v3.2h2.66V24h3.182Z"/></svg><svg viewbox="0 0 30 30" id="zapregram" xmlns="http://www.w3.org/2000/svg"><path d="M12 15a3 3 0 1 1 6 0 3 3 0 0 1-6 0Zm-1.621 0a4.622 4.622 0 1 0 9.243 0 4.622 4.622 0 0 0-9.243 0Zm8.346-4.805a1.08 1.08 0 1 0 2.161 0 1.08 1.08 0 0 0-2.161 0Zm-7.361 12.13c-.878-.04-1.355-.185-1.672-.309a2.8 2.8 0 0 1-1.035-.673 2.78 2.78 0 0 1-.673-1.034c-.124-.317-.27-.794-.31-1.672-.043-.948-.052-1.234-.052-3.637s.01-2.688.052-3.637c.04-.878.187-1.354.31-1.672a2.8 2.8 0 0 1 .673-1.035c.315-.315.615-.51 1.035-.673.317-.123.794-.27 1.672-.31.949-.043 1.234-.052 3.636-.052 2.404 0 2.688.01 3.638.052.877.04 1.353.188 1.671.31.42.163.72.358 1.035.673.315.315.51.615.673 1.035.124.317.27.794.31 1.672.044.95.052 1.234.052 3.637s-.008 2.688-.052 3.637c-.04.878-.187 1.355-.31 1.672a2.79 2.79 0 0 1-.673 1.034c-.315.315-.615.51-1.035.673-.317.124-.794.27-1.671.31-.95.043-1.234.052-3.638.052-2.402 0-2.687-.009-3.636-.052Zm-.074-16.27c-.958.043-1.613.195-2.185.418A4.416 4.416 0 0 0 7.511 7.51c-.5.5-.809 1.001-1.038 1.594-.223.572-.375 1.226-.418 2.185C6.01 12.25 6 12.556 6 15s.01 2.75.055 3.71c.043.959.195 1.613.418 2.185a4.4 4.4 0 0 0 1.038 1.594c.5.5 1.002.808 1.594 1.038.573.223 1.226.375 2.185.418.96.044 1.266.055 3.71.055 2.445 0 2.751-.01 3.711-.055.958-.043 1.613-.195 2.185-.418a4.426 4.426 0 0 0 1.594-1.038c.5-.5.808-1.002 1.038-1.594.223-.572.375-1.226.418-2.185.044-.96.054-1.266.054-3.71s-.01-2.75-.054-3.71c-.043-.959-.195-1.613-.418-2.185a4.426 4.426 0 0 0-1.038-1.594c-.5-.5-1.002-.809-1.594-1.038-.573-.223-1.227-.375-2.184-.418-.96-.044-1.267-.055-3.71-.055-2.446 0-2.752.01-3.712.055Z"/></svg></svg>