<svg width="35" height="36" fill="none" xmlns="http://www.w3.org/2000/svg"><rect x="1.458" y="1.76" width="32.083" height="32.083" rx="12.396" fill="#F03E3D"/><rect x="1.458" y="1.76" width="32.083" height="32.083" rx="12.396" stroke="#fff" stroke-width="2.917"/><rect x="1.458" y="1.76" width="32.083" height="32.083" rx="12.396" stroke="#F03E3D" stroke-width="2.917"/><path d="M25.766 12.54a.788.788 0 0 0-1.132 0l-9.584 9.79-3.684-3.762a.788.788 0 0 0-1.132 0 .83.83 0 0 0 0 1.155l4.25 4.34a.789.789 0 0 0 1.132 0l10.15-10.366a.83.83 0 0 0 0-1.155Z" fill="#fff"/></svg>