<svg width="35" height="36" fill="none" xmlns="http://www.w3.org/2000/svg"><mask id="a" fill="#fff"><path fill-rule="evenodd" clip-rule="evenodd" d="M13.854.301C6.203.301 0 6.504 0 14.155v7.292C0 29.1 6.203 35.301 13.854 35.301h7.292C28.797 35.301 35 29.098 35 21.447v-7.292C35 6.504 28.797.301 21.146.301h-7.292Zm10.78 12.24a.788.788 0 0 1 1.132 0 .83.83 0 0 1 0 1.155l-10.15 10.366a.789.789 0 0 1-1.132 0l-4.25-4.34a.83.83 0 0 1 0-1.155.788.788 0 0 1 1.132 0l3.684 3.762 9.584-9.788Z"/></mask><path fill-rule="evenodd" clip-rule="evenodd" d="M13.854.301C6.203.301 0 6.504 0 14.155v7.292C0 29.1 6.203 35.301 13.854 35.301h7.292C28.797 35.301 35 29.098 35 21.447v-7.292C35 6.504 28.797.301 21.146.301h-7.292Zm10.78 12.24a.788.788 0 0 1 1.132 0 .83.83 0 0 1 0 1.155l-10.15 10.366a.789.789 0 0 1-1.132 0l-4.25-4.34a.83.83 0 0 1 0-1.155.788.788 0 0 1 1.132 0l3.684 3.762 9.584-9.788Z" fill="#F90"/><path d="m25.766 12.54 2.084-2.04-2.084 2.04Zm-1.132 0L22.55 10.5l2.084 2.04Zm1.132 1.156-2.084-2.04 2.084 2.04Zm-10.15 10.366-2.085-2.04 2.085 2.04Zm-1.132 0 2.084-2.04-2.084 2.04Zm-4.25-4.34-2.084 2.04 2.084-2.04Zm0-1.155-2.083-2.041 2.083 2.04Zm1.132 0-2.084 2.04 2.084-2.04Zm3.684 3.762-2.084 2.04 2.084 2.129 2.084-2.128-2.084-2.041ZM2.917 14.155c0-6.04 4.897-10.937 10.937-10.937v-5.833c-9.262 0-16.77 7.508-16.77 16.77h5.833Zm0 7.292v-7.292h-5.834v7.292h5.834Zm10.937 10.938c-6.04 0-10.937-4.897-10.937-10.938h-5.834c0 9.262 7.509 16.77 16.771 16.77v-5.832Zm7.292 0h-7.292v5.833h7.292v-5.833Zm10.937-10.938c0 6.04-4.897 10.938-10.937 10.938v5.833c9.262 0 16.77-7.509 16.77-16.77h-5.833Zm0-7.292v7.292h5.834v-7.292h-5.834ZM21.146 3.218c6.04 0 10.937 4.897 10.937 10.937h5.834c0-9.262-7.509-16.77-16.771-16.77v5.833Zm-7.292 0h7.292v-5.833h-7.292v5.833ZM27.85 10.5a3.705 3.705 0 0 0-5.3 0l4.168 4.081a2.129 2.129 0 0 1-3.036 0l4.168-4.08Zm0 5.237a3.746 3.746 0 0 0 0-5.237l-4.168 4.081a2.087 2.087 0 0 1 0-2.926l4.168 4.082ZM17.7 26.103l10.15-10.366-4.168-4.082-10.15 10.367 4.168 4.08Zm-5.3 0a3.705 3.705 0 0 0 5.3 0l-4.168-4.082a2.128 2.128 0 0 1 3.036 0L12.4 26.103Zm-4.25-4.34 4.25 4.34 4.168-4.082-4.25-4.34-4.168 4.081Zm0-5.237a3.746 3.746 0 0 0 0 5.236l4.168-4.08c.798.814.798 2.11 0 2.925L8.15 16.526Zm5.3 0a3.705 3.705 0 0 0-5.3 0l4.168 4.081a2.128 2.128 0 0 1-3.036 0l4.168-4.08Zm3.684 3.762-3.684-3.762-4.168 4.081 3.684 3.763 4.168-4.082ZM22.55 10.5l-9.584 9.788 4.168 4.082 9.584-9.789L22.55 10.5Z" fill="#fff" mask="url(#a)"/><path d="m25.766 12.54 2.084-2.04-2.084 2.04Zm-1.132 0L22.55 10.5l2.084 2.04Zm1.132 1.156-2.084-2.04 2.084 2.04Zm-10.15 10.366-2.085-2.04 2.085 2.04Zm-1.132 0 2.084-2.04-2.084 2.04Zm-4.25-4.34-2.084 2.04 2.084-2.04Zm0-1.155-2.083-2.041 2.083 2.04Zm1.132 0-2.084 2.04 2.084-2.04Zm3.684 3.762-2.084 2.04 2.084 2.129 2.084-2.128-2.084-2.041ZM2.917 14.155c0-6.04 4.897-10.937 10.937-10.937v-5.833c-9.262 0-16.77 7.508-16.77 16.77h5.833Zm0 7.292v-7.292h-5.834v7.292h5.834Zm10.937 10.938c-6.04 0-10.937-4.897-10.937-10.938h-5.834c0 9.262 7.509 16.77 16.771 16.77v-5.832Zm7.292 0h-7.292v5.833h7.292v-5.833Zm10.937-10.938c0 6.04-4.897 10.938-10.937 10.938v5.833c9.262 0 16.77-7.509 16.77-16.77h-5.833Zm0-7.292v7.292h5.834v-7.292h-5.834ZM21.146 3.218c6.04 0 10.937 4.897 10.937 10.937h5.834c0-9.262-7.509-16.77-16.771-16.77v5.833Zm-7.292 0h7.292v-5.833h-7.292v5.833ZM27.85 10.5a3.705 3.705 0 0 0-5.3 0l4.168 4.081a2.129 2.129 0 0 1-3.036 0l4.168-4.08Zm0 5.237a3.746 3.746 0 0 0 0-5.237l-4.168 4.081a2.087 2.087 0 0 1 0-2.926l4.168 4.082ZM17.7 26.103l10.15-10.366-4.168-4.082-10.15 10.367 4.168 4.08Zm-5.3 0a3.705 3.705 0 0 0 5.3 0l-4.168-4.082a2.128 2.128 0 0 1 3.036 0L12.4 26.103Zm-4.25-4.34 4.25 4.34 4.168-4.082-4.25-4.34-4.168 4.081Zm0-5.237a3.746 3.746 0 0 0 0 5.236l4.168-4.08c.798.814.798 2.11 0 2.925L8.15 16.526Zm5.3 0a3.705 3.705 0 0 0-5.3 0l4.168 4.081a2.128 2.128 0 0 1-3.036 0l4.168-4.08Zm3.684 3.762-3.684-3.762-4.168 4.081 3.684 3.763 4.168-4.082ZM22.55 10.5l-9.584 9.788 4.168 4.082 9.584-9.789L22.55 10.5Z" fill="#F90" mask="url(#a)"/></svg>