<svg width="27" height="10" fill="none" xmlns="http://www.w3.org/2000/svg"><path d="M18.742 8.303c-.142-.544-.342-1.165-.217-1.23a14.191 14.191 0 0 1 2.516-1.1c-6.849.115-13.69.274-20.488.426-.132.023-.31-2.264-.397-2.249 7.47-.182 14.992-.33 22.466-.47-.761-.475-1.56-.905-2.323-1.383-.154-.105-.173-.976-.203-1.145-.03-.17-.044-1.04-.199-1.145l4.547 2.74c.403.233.814.51 1.216.746.257.173.638.282.785.606.173.595.28 1.206.322 1.824l.075.424c-.007-.042-.05-.035-.058-.077-.035.311-.247.394-.713.563-.802.287-1.619.533-2.446.736-1.473.33-2.901.833-4.257 1.497a.043.043 0 0 1-.036.049c-.123.066-.291.139-.415.205l-.175-1.017Z" fill="#6EB0E1"/></svg>