<svg width="31" height="15" fill="none" xmlns="http://www.w3.org/2000/svg"><g clip-path="url(#a)"><path d="M20.898 10.336c-.157-.604-.38-1.293-.241-1.368a15.887 15.887 0 0 1 2.808-1.224c-7.639.134-15.27.314-22.85.488-.147.025-.339-2.49-.442-2.498 8.332-.208 16.721-.377 25.06-.538-.85-.531-1.74-1.005-2.59-1.535-.17-.116-.19-1.084-.224-1.273-.034-.19-.054-1.157-.226-1.272l5.076 3.039c.453.26.907.569 1.358.83.285.192.709.311.874.672.192.66.312 1.34.358 2.026l.083.471c-.008-.047-.056-.039-.066-.09-.04.347-.275.438-.797.627-.895.353-1.816.564-2.728.823a21.506 21.506 0 0 0-4.748 1.664.05.05 0 0 1 0 .02.05.05 0 0 1-.022.03.047.047 0 0 1-.018.007c-.138.073-.324.159-.467.228l-.198-1.127Z" fill="#007189"/></g><defs><clipPath id="a"><path fill="#fff" d="M0 0h30.296v14.884H0z"/></clipPath></defs></svg>